<svg xmlns="http://www.w3.org/2000/svg"  viewBox="0 0 48 48" width="50px" height="50px"><path fill="#4652b0" d="M37,14h-4c-0.332,0-0.677,0.499-0.859,0.776l-1.897,2.89c-1.006-0.527-1.918-1.22-2.804-2.106	c-0.886-0.887-1.58-1.799-2.109-2.803l2.892-1.898C28.501,10.677,29,10.332,29,10V6c0-1.06-1.195-2-2.257-2h-2.818	C22.863,4,22,4.864,22,5.925c0,4.959,1.172,8.155,4.046,11.029C28.92,19.828,32.115,21,37.075,21C38.137,21,39,20.136,39,19.074	v-2.817C39,15.195,38.059,14,37,14z"/><rect width="6" height="32" x="5" y="11" fill="#69bad1"/><rect width="6" height="22" x="13" y="21" fill="#69bad1"/><rect width="6" height="11" x="21" y="32" fill="#69bad1"/><rect width="6" height="17" x="29" y="26" fill="#69bad1"/><rect width="6" height="7" x="37" y="36" fill="#69bad1"/></svg>