<svg xmlns="http://www.w3.org/2000/svg"  viewBox="0 0 48 48" width="50px" height="50px"><path fill="#1E88E5" d="M4.6,32.5C4.8,33.9,6,35,7.4,35h34.2c1.4,0,2.6-1.1,2.8-2.5l2.6-16c0.1-0.9-0.1-1.8-0.7-2.5c-0.5-0.6-1.3-1-2.1-1H4.8c-0.8,0-1.6,0.4-2.1,1c-0.6,0.7-0.8,1.6-0.7,2.5L4.6,32.5z"/><path fill="#1A237E" d="M40.5,17c1.4,0,2.5,1.1,2.5,2.5S41.9,22,40.5,22S38,20.9,38,19.5S39.1,17,40.5,17 M32.5,17c1.4,0,2.5,1.1,2.5,2.5S33.9,22,32.5,22c-1.4,0-2.5-1.1-2.5-2.5S31.1,17,32.5,17 M24.5,17c1.4,0,2.5,1.1,2.5,2.5S25.9,22,24.5,22c-1.4,0-2.5-1.1-2.5-2.5S23.1,17,24.5,17 M16.5,17c1.4,0,2.5,1.1,2.5,2.5S17.9,22,16.5,22S14,20.9,14,19.5S15.1,17,16.5,17 M8.5,17c1.4,0,2.5,1.1,2.5,2.5S9.9,22,8.5,22S6,20.9,6,19.5S7.1,17,8.5,17 M36.5,26c1.4,0,2.5,1.1,2.5,2.5S37.9,31,36.5,31S34,29.9,34,28.5S35.1,26,36.5,26 M28.5,26c1.4,0,2.5,1.1,2.5,2.5S29.9,31,28.5,31S26,29.9,26,28.5S27.1,26,28.5,26 M20.5,26c1.4,0,2.5,1.1,2.5,2.5S21.9,31,20.5,31S18,29.9,18,28.5S19.1,26,20.5,26 M12.5,26c1.4,0,2.5,1.1,2.5,2.5S13.9,31,12.5,31S10,29.9,10,28.5S11.1,26,12.5,26"/></svg>