<svg xmlns="http://www.w3.org/2000/svg"  viewBox="0 0 48 48" width="50px" height="50px"><path fill="#5d3db1" d="M39,44H13V4h26c2.2,0,4,1.8,4,4v32C43,42.2,41.2,44,39,44z"/><path fill="#30218d" d="M11,4h2v40h-2c-2.2,0-4-1.8-4-4V8C7,5.8,8.8,4,11,4z"/><path fill="#fff" d="M34.002,26h-4.378c-0.336,0-0.651,0.17-0.835,0.451l-2.044,3.115	c-1.092-0.566-2.079-1.314-3.038-2.273S22,25.347,21.434,24.255l3.115-2.044C24.83,22.026,25,21.712,25,21.375v-4.377	C25,15.896,24.103,15,23,15h-3c-1.103,0-2,0.897-2,2c0,5.267,1.244,8.658,4.293,11.707C25.343,31.756,28.734,33,34,33	c1.103,0,2-0.897,2-2v-3C36,26.897,35.104,26,34.002,26z"/><path fill="#757575" d="M9,37H5c-0.552,0-1-0.447-1-1s0.448-1,1-1h4c0.552,0,1,0.447,1,1S9.552,37,9,37z M9,31H5	c-0.552,0-1-0.447-1-1s0.448-1,1-1h4c0.552,0,1,0.447,1,1S9.552,31,9,31z M9,25H5c-0.552,0-1-0.447-1-1s0.448-1,1-1h4	c0.552,0,1,0.447,1,1S9.552,25,9,25z M9,19H5c-0.552,0-1-0.447-1-1s0.448-1,1-1h4c0.552,0,1,0.447,1,1S9.552,19,9,19z M9,13H5	c-0.552,0-1-0.447-1-1s0.448-1,1-1h4c0.552,0,1,0.447,1,1S9.552,13,9,13z"/></svg>