<svg xmlns="http://www.w3.org/2000/svg"  viewBox="0 0 48 48" width="50px" height="50px"><path fill="#009688" d="M18,32c-1.1,0-2-0.9-2-2V20h-4v10c0,3.3,2.7,6,6,6h19v-4H18z"/><path fill="#009688" d="M40,10l-6,13.4c-0.2,0.4-0.5,0.6-0.9,0.6H18.2c-0.4,0-0.8-0.3-0.9-0.7L12.4,8.7C11.8,7.1,10.3,6,8.6,6H5v4 h3.6l5.5,16.6c0.3,0.8,1,1.4,1.9,1.4h19c0.8,0,1.5-0.5,1.8-1.2L44.4,10H40z"/><path fill="#00695c" d="M5,6C3.9,6,3,6.9,3,8s0.9,2,2,2s2-0.9,2-2S6.1,6,5,6z"/><path fill="#37474f" d="M34,36c-1.7,0-3,1.3-3,3s1.3,3,3,3s3-1.3,3-3S35.7,36,34,36z M19,36c-1.7,0-3,1.3-3,3s1.3,3,3,3s3-1.3,3-3 S20.7,36,19,36z"/><path fill="#607d8b" d="M34,38c-0.6,0-1,0.4-1,1s0.4,1,1,1s1-0.4,1-1S34.6,38,34,38z M19,38c-0.6,0-1,0.4-1,1s0.4,1,1,1s1-0.4,1-1 S19.6,38,19,38z"/><g><polygon fill="#ff5722" points="20,14 32,14 26,20"/><rect width="4" height="10" x="24" y="6" fill="#ff5722"/></g></svg>