<svg xmlns="http://www.w3.org/2000/svg"  viewBox="0 0 48 48" width="50px" height="50px"><path fill="#942a09" d="M40,8H7c-2.2,0-4,1.8-4,4s1.8,4,4,4c0,0,32,0,33,0s1,1,1,1V9C41,8.4,40.6,8,40,8z"/><rect width="36" height="26" x="7" y="10" fill="#4caf50"/><rect width="33.4" height="20.8" x="7" y="12.6" fill="#c8e6c9"/><path fill="#4caf50" d="M43,10.8V19c-4.4-0.3-7.8-3.8-8-8.2H43z"/><path fill="#4caf50" d="M43,27v7.8h-8C35.3,30.6,38.8,27.3,43,27z"/><path fill="#f57c00" d="M41,17v22c0,0,0,1-1,1S7,40,7,40c-2.2,0-4-1.8-4-4V12c0,2.2,1.8,4,4,4c0,0,32,0,33,0S41,17,41,17z"/><path fill="#bf360c" d="M45,23h-9c-2.2,0-4,1.8-4,4s1.8,4,4,4h9V23z"/><path fill="#ffecb3" d="M36,25c-1.1,0-2,0.9-2,2s0.9,2,2,2s2-0.9,2-2S37.1,25,36,25z"/></svg>