<svg xmlns="http://www.w3.org/2000/svg"  viewBox="0 0 48 48" width="50px" height="50px"><path fill="#ffc107" d="M25.201,5l-18.8,18.8c-1.6,1.6-1.6,4.1,0,5.7l12.3,12.3c1.6,1.6,4.1,1.6,5.7,0l18.8-18.8V9	c0-2.2-1.8-4-4-4H25.201z M37.201,13c-1.1,0-2-0.9-2-2s0.9-2,2-2s2,0.9,2,2S38.301,13,37.201,13"/><path fill="#ef6c00" d="M24.297,24.947l-3.155-3.156l-4.102,4.102l-2.03-2.03l10.055-10.054l5.565,5.565l-1.692,1.692 l-3.535-3.536l-2.576,2.575l3.156,3.156L24.297,24.947z"/><path fill="#ef6c00" d="M30.733,28.413l-0.594-0.704c-0.534-0.534-1.131-0.661-1.789-0.38l-4.937,4.937l-1.961-1.961 l7.471-7.471l1.844,1.844l-0.752,0.863c0.938-0.322,1.68-0.213,2.223,0.331c0.221,0.222,0.371,0.431,0.449,0.628L30.733,28.413z"/></svg>