<svg xmlns="http://www.w3.org/2000/svg"  viewBox="0 0 48 48" width="50px" height="50px"><path fill="#B0BEC5" d="M46 21L43 21 43 18 40 18 40 15 46 15zM46 36L43 36 43 39 40 39 40 42 46 42zM16 36L13 36 13 42 19 42 19 39 16 39zM13 30H16V33H13zM13 24H16V27H13zM43 30H46V33H43zM43 24H46V27H43zM34 15H37V18H34zM34 39H37V42H34zM28 15H31V18H28zM22 15H25V18H22zM28 39H31V42H28zM22 39H25V42H22z"/><g><path fill="#1565C0" d="M2,9c0,2.209,1.791,4,4,4s4-1.791,4-4S8.209,5,6,5S2,6.791,2,9z M4.446,7.621C4.796,7.225,5.308,7,5.852,7c1.112,0,2.008,0.762,2.133,1.814c0.07,0.584-0.105,1.166-0.48,1.592C7.165,10.789,6.706,11,6.206,11c-1.08,0-2.064-0.875-2.192-1.947C3.95,8.52,4.104,8.012,4.446,7.621z"/><path fill="#1565C0" d="M6,12.709c-0.027,0-0.052-0.008-0.079-0.008c2.062,0.814,4.186,1.686,5.938,4.873c0.04,0.07,0.094,0.133,0.16,0.18l10.362,7.244c0.052,0.039,1.564,0.998,3.422,0.998c1.015,0,1.934-0.162,2.735-0.818L29,24.658l-14.578-10.57c-0.196-0.123-3.898-2.377-4.784-2.854c-0.036-0.02-0.187-0.105-0.381-0.217C8.532,12.039,7.347,12.709,6,12.709z"/></g><g><path fill="#2196F3" d="M6,27.996c2.209,0,4-1.791,4-4s-1.791-4-4-4s-4,1.791-4,4S3.791,27.996,6,27.996z M4.014,23.943c0.128-1.072,1.112-1.947,2.192-1.947c0.5,0,0.959,0.211,1.298,0.594c0.375,0.426,0.551,1.008,0.48,1.592c-0.125,1.053-1.021,1.814-2.133,1.814c-0.544,0-1.056-0.225-1.405-0.621C4.104,24.984,3.95,24.477,4.014,23.943z"/><path fill="#2196F3" d="M28.539,7.818C27.737,7.162,26.818,7,25.804,7c-1.857,0-3.37,0.959-3.422,0.998L12.02,15.242c-0.066,0.047-0.12,0.109-0.16,0.18c-1.753,3.188-3.877,4.059-5.938,4.873c0.027,0,0.052-0.008,0.079-0.008c1.347,0,2.532,0.67,3.257,1.691c0.194-0.111,0.345-0.197,0.381-0.217c0.886-0.477,4.588-2.73,4.784-2.854L29,8.338L28.539,7.818z M14.325,16.996c-0.373,0-0.676-0.303-0.676-0.676c0-0.371,0.303-0.674,0.676-0.674c0.371,0,0.675,0.303,0.675,0.674C15,16.693,14.696,16.996,14.325,16.996z"/></g></svg>