<svg xmlns="http://www.w3.org/2000/svg"  viewBox="0 0 48 48" width="50px" height="50px"><g data-name="Shopping"><path fill="none" stroke="#e28d40" stroke-linecap="round" stroke-linejoin="round" stroke-width="2" d="M35,18.5l-1-7c-.8-3.866-4.169-8-8-8-2.873,0-5,2-5,7l1,8"/><polygon fill="#ffb450" points="4 47 8 12 20 13 32 12 37 47 4 47"/><polygon fill="#e28d40" points="41.5 41.375 37 47 32 12 36.5 14.25 41.5 41.375"/><circle cx="14" cy="17" r="2" fill="#fff3f7"/><circle cx="27" cy="17" r="2" fill="#fff3f7"/><polygon fill="#ed9a40" points="47 44 41 42 36 14 39 12 47 44"/><path fill="none" stroke="#ed9a40" stroke-linecap="round" stroke-linejoin="round" stroke-width="2" d="M14,17l1-7c.8-3.866,4.169-8,8-8,2.873,0,5,2,5,7l-1,8"/><path fill="#fff3f7" d="M19.642,37.923l-6.4-6.492a4.352,4.352,0,0,1,0-6.093,4.2,4.2,0,0,1,6,0l.395.4.111-.114a4.2,4.2,0,0,1,6,0,4.352,4.352,0,0,1,0,6.093Z"/><polygon fill="#ffb450" points="37 47 47 44 41 42 37 47"/></g></svg>