<svg xmlns="http://www.w3.org/2000/svg"  viewBox="0 0 48 48" width="50px" height="50px"><path fill="#ffe0b2" d="M42,36.837v2.335c0,1.57-1.286,2.83-2.857,2.809c-1.658-0.022-3.34-0.063-5.023-0.12	c-0.92-0.03-1.83-0.06-2.74-0.1c-2.99-0.12-5.94-0.28-8.71-0.45c-0.91-0.05-1.8-0.11-2.67-0.17c-3.26-0.22-6.19-0.45-8.51-0.65	c-0.99-0.08-1.87-0.16-2.62-0.22C7.05,40.11,6,40,6,40v-4c0,0,3.1-0.3,7.8-0.66c0.96-0.08,1.99-0.16,3.08-0.24	c2.95-0.21,6.29-0.43,9.78-0.62c0.99-0.05,1.99-0.1,2.99-0.15c3.16-0.15,6.38-0.26,9.46-0.3c0.01,0,0.019,0,0.029-0.001	C40.71,33.998,42,35.266,42,36.837z"/><path fill="#e65100" d="M6,18v4.996C6,26.312,8.688,29,12.004,29h23.992C39.312,29,42,26.312,42,22.996V18H6z"/><path fill="#f57f17" d="M39.301,6H8.699C7.208,6,6,7.208,6,8.699v10.205C6,22.27,8.73,25,12.097,25h23.807	C39.271,25,42,22.271,42,18.904V8.699C42,7.208,40.792,6,39.301,6z"/><circle cx="11" cy="21" r="2" fill="#eee"/><circle cx="37" cy="21" r="2" fill="#eee"/><ellipse cx="21.536" cy="14.485" fill="#2e7d32" rx="2.621" ry="4.534" transform="rotate(-12.657 21.54 14.487)"/><ellipse cx="25.748" cy="15.063" fill="#43a047" rx="4.966" ry="2.783" transform="rotate(-53.085 25.748 15.064)"/><path fill="#ffcc80" d="M39.143,34.03c-0.011,0-0.022,0-0.033,0l-7.73,7.73c0.91,0.04,1.82,0.07,2.74,0.1l7.033-7.033	C40.635,34.322,39.924,34.015,39.143,34.03z"/><path fill="#ffcc80" d="M29.65,34.33l-6.98,6.98c-0.91-0.05-1.8-0.11-2.67-0.17l6.66-6.66	C27.65,34.43,28.65,34.38,29.65,34.33z"/><path fill="#ffcc80" d="M16.88,35.1l-5.39,5.39c-0.99-0.08-1.87-0.16-2.62-0.22l4.93-4.93	C14.76,35.26,15.79,35.18,16.88,35.1z"/></svg>