<svg xmlns="http://www.w3.org/2000/svg"  viewBox="0 0 48 48" width="50px" height="50px"><path fill="#F8BBD0" d="M34.7,5.4c-0.3-0.5-1-0.6-1.4-0.1c-1.7,1.9-5.9,5.2-9.2,5.2c-3.4,0-8.2-3.4-10.2-5.3c-0.4-0.4-1.2-0.3-1.4,0.2C10.9,8.4,7,17.1,7,31.8V35c0,4.4,3.5,8,7.9,8h18.2c4.4,0,7.9-3.6,7.9-8v-3.1C41,16.8,36.5,8.2,34.7,5.4z"/><path fill="#F9E3EA" d="M24 19A7 6 0 1 0 24 31A7 6 0 1 0 24 19Z"/><path fill="#37474F" d="M32 14A3 3 0 1 0 32 20 3 3 0 1 0 32 14zM16 14A3 3 0 1 0 16 20 3 3 0 1 0 16 14z"/><path fill="#9E3157" d="M24 24L21 21 27 21z"/><g><path fill="#F48FB1" d="M7.8 21c-2.1.7-3.4 1.3-3.5 1.4-1.9.9-2.8 3.3-1.9 5.3.8 1.8 2.8 2.7 4.7 2.1C7.1 26.5 7.4 23.6 7.8 21zM43.7 22.4c-.1-.1-1.5-.7-3.6-1.4.4 2.6.7 5.6.8 8.9.4.1.8.2 1.2.2 1.5 0 2.9-.9 3.5-2.3C46.5 25.7 45.7 23.3 43.7 22.4z"/><path fill="#F48FB1" d="M35.3 30.7A5.3 6.3 0 1 0 35.3 43.3A5.3 6.3 0 1 0 35.3 30.7Z" transform="rotate(35.357 35.346 36.998)"/><path fill="#F48FB1" d="M12.7 30.7A5.3 6.3 0 1 0 12.7 43.3A5.3 6.3 0 1 0 12.7 30.7Z" transform="scale(-1) rotate(-35.357 -116.08 39.693)"/><path fill="#F48FB1" d="M30.2 10.9c0 0 1.7-.7 3.4-2.5.2-.2.6-.1.7.2.8 1.5 1.5 3.4 1.5 3.4C33.6 10.8 30.2 10.9 30.2 10.9zM17.8 10.9c0 0-1.7-.7-3.4-2.5-.2-.2-.6-.1-.7.2-.8 1.5-1.5 3.4-1.5 3.4C14.4 10.8 17.8 10.9 17.8 10.9z"/></g></svg>