<svg xmlns="http://www.w3.org/2000/svg"  viewBox="0 0 48 48" width="50px" height="50px"><rect width="4" height="13" x="24" fill="#ffb300"/><rect width="1" height="13" x="24" fill="#ff8f00"/><rect width="4" height="13" x="28" y="8" fill="#ffb300"/><rect width="1" height="13" x="28" y="8" fill="#ff8f00"/><rect width="4" height="13" x="32" y="8" fill="#ffb300"/><rect width="1" height="13" x="32" y="8" fill="#ff8f00"/><rect width="4" height="13" x="20" y="8" fill="#ffb300"/><rect width="1" height="13" x="20" y="8" fill="#ff8f00"/><rect width="4" height="13" x="16" y="8" fill="#ffb300"/><rect width="1" height="13" x="16" y="8" fill="#ff8f00"/><rect width="4" height="13" x="12" y="8" fill="#ffb300"/><rect width="1" height="13" x="12" y="8" fill="#ff8f00"/><rect width="4" height="8" x="24" y="13" fill="#eceff1"/><rect width="1" height="8" x="24" y="13" fill="#b0bec5"/><rect width="24" height="26" x="12" y="19" fill="#eee"/><polygon fill="#f4511e" points="12,27 24,22 36,27 36,19 12,19"/><rect width="24" height="3" x="12" y="42" fill="#f4511e"/><path fill="#eceff1" d="M36,19H12v-9l1.858,0.619c0.703,0.234,1.219,0.838,1.34,1.569l0.524,3.141	C15.882,16.293,16.717,17,17.694,17h12.611c0.978,0,1.812-0.707,1.973-1.671l0.524-3.141c0.122-0.731,0.638-1.334,1.34-1.569L36,10	V19z"/><circle cx="24" cy="33" r="6" fill="#f4511e"/></svg>