<svg xmlns="http://www.w3.org/2000/svg"  viewBox="0 0 48 48" width="50px" height="50px"><path fill="#607D8B" d="M29,6V5H19v1c0,2.4-1.6,4.4-4,4.9L5,13c0,15,7,30,7,30h24c0,0,7-15,7-30l-10-2.2C30.6,10.4,29,8.3,29,6z"/><path fill="#FFB300" d="M32 9.4c-.5 0-1 .4-1.1.9-.2 3.7-3.3 6.6-7 6.6-3.7 0-6.8-2.9-7-6.6 0-.6-.5-1-1.1-.9-.6 0-1 .5-.9 1.1.3 4.7 4.2 8.5 9 8.5 4.8 0 8.7-3.7 9-8.5C33 9.9 32.6 9.5 32 9.4zM24 29.3L20 24 24 20 28 24z"/><path fill="#FFC107" d="M24,20L24,20c-0.6,0-1-0.4-1-1v-2c0-0.6,0.4-1,1-1h0c0.6,0,1,0.4,1,1v2C25,19.6,24.6,20,24,20z"/><path fill="#F44336" d="M24 21L27 24 24 28 21 24z"/><path fill="#B71C1C" d="M27 24L24 28 24 24z"/><path fill="#E57373" d="M24 21L21 24 24 24 24 24z"/></svg>