<svg xmlns="http://www.w3.org/2000/svg"  viewBox="0 0 48 48" width="50px" height="50px"><path fill="#ffc107" d="M17.5 5A12.5 12.5 0 1 0 17.5 30A12.5 12.5 0 1 0 17.5 5Z"/><path fill="#ffc107" d="M30.5 18A12.5 12.5 0 1 0 30.5 43A12.5 12.5 0 1 0 30.5 18Z"/><path fill="#fff8e1" d="M13.488 17.518L14.227 11h7.188v2.123h-5.1l-.317 2.757c.604-.323 1.247-.485 1.929-.485 1.221 0 2.179.379 2.871 1.136.693.758 1.04 1.818 1.04 3.18 0 .828-.175 1.569-.524 2.224-.35.655-.85 1.163-1.502 1.524C19.16 23.819 18.391 24 17.505 24c-.775 0-1.494-.157-2.158-.471-.664-.315-1.187-.757-1.572-1.326-.385-.569-.59-1.218-.612-1.947h2.519c.052.534.239.949.56 1.247.32.296.738.444 1.254.444.576 0 1.018-.207 1.33-.621.312-.415.467-1 .467-1.758 0-.728-.18-1.286-.537-1.673s-.867-.581-1.523-.581c-.604 0-1.095.158-1.471.476l-.247.229L13.488 17.518zM31.999 37h-2.141v-9.946l-3.075.951v-2.078L31.724 24H32v13H31.999z"/><path fill="#455a64" d="M30 17A1 1 0 1 0 30 19 1 1 0 1 0 30 17zM18 29A1 1 0 1 0 18 31 1 1 0 1 0 18 29zM24 23A1 1 0 1 0 24 25 1 1 0 1 0 24 23zM21 26A1 1 0 1 0 21 28 1 1 0 1 0 21 26zM27 20A1 1 0 1 0 27 22 1 1 0 1 0 27 20zM12 35A1 1 0 1 0 12 37 1 1 0 1 0 12 35zM15 32A1 1 0 1 0 15 34 1 1 0 1 0 15 32zM6 41A1 1 0 1 0 6 43 1 1 0 1 0 6 41zM9 38A1 1 0 1 0 9 40 1 1 0 1 0 9 38zM42 5A1 1 0 1 0 42 7 1 1 0 1 0 42 5zM36 11A1 1 0 1 0 36 13 1 1 0 1 0 36 11zM39 8A1 1 0 1 0 39 10 1 1 0 1 0 39 8zM33 14A1 1 0 1 0 33 16 1 1 0 1 0 33 14z"/></svg>