<svg xmlns="http://www.w3.org/2000/svg"  viewBox="0 0 48 48" width="50px" height="50px"><path fill="#9ccc65" d="M9,13C8,23.333,7,33.667,6,44c12,0,24,0,36,0c-1-10.333-2-20.667-3-31C29,13,19,13,9,13z"/><circle cx="16" cy="18" r="2" fill="#1b5e20"/><circle cx="32" cy="18" r="2" fill="#1b5e20"/><path fill="#d32f2f" d="M24,21.06c-3.3,0-6,2.812-6,6.206c0,2.327,3.2,7.758,6,11.734c2.8-3.976,6-9.406,6-11.734	C30,23.872,27.3,21.06,24,21.06z"/><circle cx="24" cy="27" r="4" fill="#b71c1c"/><circle cx="24" cy="27" r="2" fill="#ffebee"/><path fill="#388e3c" d="M32,19c-0.553,0-1-0.448-1-1v-6.588C31,7.876,27.859,5,24,5s-7,2.876-7,6.412V18c0,0.552-0.447,1-1,1	s-1-0.448-1-1v-6.588C15,6.773,19.037,3,24,3s9,3.773,9,8.412V18C33,18.552,32.553,19,32,19z"/></svg>