<svg xmlns="http://www.w3.org/2000/svg"  viewBox="0 0 48 48" width="50px" height="50px"><path fill="#80DEEA" d="M24 4A18 18 0 1 0 24 40A18 18 0 1 0 24 4Z"/><path fill="#1976D2" d="M18,9l-5,4.2V33h10V13L18,9z M17,17h-2v-2h2V17z M21,17h-2v-2h2V17z M17,21h-2v-2h2V21z M21,21h-2v-2h2V21z M17,25h-2v-2h2V25z M21,25h-2v-2h2V25z M17,29h-2v-2h2V29z M21,29h-2v-2h2V29z"/><path fill="#E0F7FA" d="M31 12A1 1 0 1 0 31 14 1 1 0 1 0 31 12zM33 10A1 1 0 1 0 33 12 1 1 0 1 0 33 10zM35 16A1 1 0 1 0 35 18 1 1 0 1 0 35 16zM33 18A1 1 0 1 0 33 20 1 1 0 1 0 33 18zM37 18A1 1 0 1 0 37 20 1 1 0 1 0 37 18zM39 20A1 1 0 1 0 39 22 1 1 0 1 0 39 20zM27 8A1 1 0 1 0 27 10 1 1 0 1 0 27 8zM31 8A1 1 0 1 0 31 10 1 1 0 1 0 31 8zM29 10A1 1 0 1 0 29 12 1 1 0 1 0 29 10zM29 14A1 1 0 1 0 29 16 1 1 0 1 0 29 14zM35 20A1 1 0 1 0 35 22 1 1 0 1 0 35 20zM31 16A1 1 0 1 0 31 18 1 1 0 1 0 31 16zM33 14A1 1 0 1 0 33 16 1 1 0 1 0 33 14zM35 12A1 1 0 1 0 35 14 1 1 0 1 0 35 12zM37 14A1 1 0 1 0 37 16 1 1 0 1 0 37 14zM39 16A1 1 0 1 0 39 18 1 1 0 1 0 39 16z"/><g><path fill="#2196F3" d="M14 30A3 3 0 1 0 14 36A3 3 0 1 0 14 30Z"/><path fill="#2196F3" d="M18 32A3 3 0 1 0 18 38A3 3 0 1 0 18 32Z"/><path fill="#2196F3" d="M22 30A3 3 0 1 0 22 36A3 3 0 1 0 22 30Z"/><path fill="#2196F3" d="M33,30C33,30,32.8,30,33,30c-0.6-1.2-1.6-2-3-2c-0.4,0-1,0.2-1.4,0.4C28,27,26.6,26,25,26c-2.2,0-4,1.8-4,4c0,0.8,0,3.2,0,4c0,2.2,1.8,4,4,4s5.8,0,8,0s4-1.8,4-4S35.2,30,33,30z"/></g><path fill="#5C6BC0" d="M8 34H40V38H8z"/><path fill="#3F51B5" d="M6 38H42V42H6z"/></svg>