<svg xmlns="http://www.w3.org/2000/svg"  viewBox="0 0 48 48" width="50px" height="50px"><path fill="#E91E63" d="M34,22h-0.838C31.619,18.469,28.1,16,24,16s-7.619,2.469-9.162,6H14c-4.418,0-8,7-8,12s3.582,8,8,8h20c4.418,0,8-3,8-8S38.418,22,34,22z"/><path fill="#FF9800" d="M22 6A2 2 0 1 0 22 10A2 2 0 1 0 22 6Z"/><path fill="#FF9800" d="M26 6A2 2 0 1 0 26 10A2 2 0 1 0 26 6Z"/><path fill="#AD1457" d="M33,23c0-4.963-4.037-9-9-9s-9,4.037-9,9l-2,2c0,0,0,0,1,0c4,0,3.934-2.198,4.078-2.968C18.543,19.182,21.021,17,24,17s5.457,2.182,5.922,5.032C30.066,22.802,30,25,34,25c1,0,1,0,1,0L33,23z"/><path fill="#FFC107" d="M24,10c-7.168,0-13,5.832-13,13c0,0,0,2,2,2s2-2,2-2c0-4.963,4.037-9,9-9s9,4.037,9,9c0,0,0,2,2,2s2-2,2-2C37,15.832,31.168,10,24,10z"/></svg>