<svg xmlns="http://www.w3.org/2000/svg"  viewBox="0 0 48 48" width="50px" height="50px"><path fill="#b0bec5" d="M37.7,10.7L24,3.8l-13.7,6.8L9.7,9.3l14-7c0.2-0.1,0.5-0.1,0.7,0l14,7L37.7,10.7z"/><path fill="#607d8b" d="M40.6,40.1h-1.4c-0.2,0-0.3,0-0.5,0l-3.1-0.4c-2.4-0.3-4.9-0.2-7.3,0.4L24.7,41 c-0.5,0.1-1.1,0.1-1.6,0l-3.5-1c-2.4-0.6-4.8-0.7-7.3-0.4L9.2,40c-0.2,0-0.3,0-0.5,0H7.4C5.5,40,4,38.5,4,36.6 c0-0.4,0.1-0.9,0.2-1.3l0.2-0.6c1-2.5,1.1-5.3,0.4-7.9l-0.6-2c-0.2-0.7-0.2-1.3,0-2L4.5,22c0.9-2.7,0.8-5.7-0.2-8.4l-0.1-0.3 c-0.1-0.2-0.2-0.6-0.2-1v-1c0-1.9,1.5-3.4,3.4-3.4h1.4c0.2,0,0.3,0,0.5,0l3.1,0.4c2.4,0.3,4.9,0.2,7.3-0.4L23.3,7 c0.5-0.1,1.1-0.1,1.6,0l3.5,1c2.4,0.6,4.8,0.7,7.3,0.4L38.8,8c0.2,0,0.3,0,0.5,0h1.4c1.9,0,3.4,1.5,3.4,3.4v1 c0,0.4-0.1,0.9-0.2,1.3L43.8,14c-1.1,2.7-1.2,5.6-0.2,8.4l0.3,0.8c0.2,0.6,0.2,1.3,0,2l-0.6,2c-0.7,2.6-0.6,5.4,0.4,7.9l0.2,0.6 c0.2,0.4,0.2,0.8,0.2,1.3C44,38.6,42.5,40.1,40.6,40.1z"/><path fill="#8bc34a" d="M38,36H10c-0.6,0-1-0.4-1-1V13c0-0.6,0.4-1,1-1h28c0.6,0,1,0.4,1,1v22C39,35.6,38.6,36,38,36z"/><path fill="#fff" d="M27 18c0 1.7-3 5.2-3 5.2s-3-3.6-3-5.2 1.3-3 3-3S27 16.3 27 18zM21 30c0-1.7 3-5.2 3-5.2s3 3.6 3 5.2-1.3 3-3 3S21 31.7 21 30z"/><path fill="#fff" d="M20.3 18.4c1.4.8 3 5.2 3 5.2s-4.6.8-6 0c-1.4-.8-1.9-2.7-1.1-4.1C17 18.1 18.9 17.6 20.3 18.4zM27.7 29.6c-1.4-.8-3-5.2-3-5.2s4.6-.8 6 0c1.4.8 1.9 2.7 1.1 4.1S29.1 30.4 27.7 29.6zM17.3 24.4c1.4-.8 6 0 6 0s-1.6 4.4-3 5.2c-1.4.8-3.3.3-4.1-1.1C15.4 27.1 15.9 25.2 17.3 24.4zM30.7 23.6c-1.4.8-6 0-6 0s1.6-4.4 3-5.2c1.4-.8 3.3-.3 4.1 1.1S32.1 22.8 30.7 23.6z"/><path fill="#ffc107" d="M27,24c0,1.7-1.3,3-3,3s-3-1.3-3-3s1.3-3,3-3S27,22.3,27,24z"/></svg>