<svg xmlns="http://www.w3.org/2000/svg"  viewBox="0 0 48 48" width="50px" height="50px"><path fill="#e53935" d="M36 24L36 4 12 4 12 24 4 24 24 44 44 24z"/><path fill="#fff" d="M23,21v1.985c0,0.85-0.139,1.479-0.551,2.015H29l-0.01,2H19v-2h1.208 c0.251-0.057,0.484-0.196,0.623-0.545C20.97,24.104,21,23.672,21,23.099V21h-2v-2h2v-1.861c0-1.279,0.326-2.288,1.13-3.029 c0.805-0.74,1.54-1.11,2.848-1.11c1.307,0,2.154,0.344,2.901,1.034C28.627,14.724,29,15.835,29,17h-2 c0-0.595-0.168-1.241-0.507-1.57c-0.337-0.329-0.996-0.494-1.602-0.494c-0.573,0-1.026,0.204-1.357,0.614 C23.202,15.961,23,16.493,23,17.148V19h3v2H23z"/></svg>