<svg xmlns="http://www.w3.org/2000/svg"  viewBox="0 0 48 48" width="50px" height="50px"><circle cx="24" cy="24" r="19" fill="#ffc107"/><circle cx="24" cy="24" r="15" fill="#ffd54f"/><path fill="#f44336" d="M6,32h36c1.105,0,2-0.895,2-2V18c0-1.105-0.895-2-2-2H6c-1.105,0-2,0.895-2,2v12	C4,31.105,4.895,32,6,32z"/><path fill="#fff" d="M15.867,30H13.57l-3.359-7.461V30H7.914V18.625h2.297l3.367,7.469v-7.469h2.289 C15.867,18.625,15.867,30,15.867,30z"/><path fill="#fff" d="M23.586,25.078h-3.578v3.016h4.234V30h-6.531V18.625h6.516v1.914h-4.219v2.688h3.578 C23.586,23.227,23.586,25.078,23.586,25.078z"/><path fill="#fff" d="M32.953,25.773l1.078-7.148h2.273L34.281,30h-2.305l-1.328-6.703L29.336,30h-2.313l-2.031-11.375 h2.289l1.07,7.141l1.336-7.141h1.93L32.953,25.773z"/><path fill="#fff" d="M37.562,28.93c0-0.354,0.112-0.645,0.336-0.871s0.516-0.34,0.875-0.34 c0.354,0,0.644,0.113,0.867,0.34s0.336,0.517,0.336,0.871c0,0.349-0.11,0.636-0.332,0.859s-0.512,0.336-0.871,0.336 c-0.364,0-0.657-0.112-0.879-0.336S37.562,29.278,37.562,28.93z M39.695,26.5h-1.836l-0.258-7.875h2.352L39.695,26.5z"/></svg>