<svg xmlns="http://www.w3.org/2000/svg"  viewBox="0 0 48 48" width="50px" height="50px" fill-rule="evenodd" clip-rule="evenodd" baseProfile="basic"><path fill="#ff5722" d="M35.999,10.335c0,2.489-2.333,4.665-5,4.665s-5-2.023-5-4.665	c0-2.645,5-9.335,5-9.335S35.999,7.846,35.999,10.335z"/><path fill="#fff59d" d="M33.999,12.285c0,1.509-1.235,2.716-3,2.716	c-1.765,0-3-1.207-3-2.716s3-5.284,3-5.284S33.999,10.775,33.999,12.285z"/><path fill="#f90" fill-rule="evenodd" d="M34.999,22.002v2.999	h3.999v-2.999H34.999z" clip-rule="evenodd"/><path fill="#010f16" fill-rule="evenodd" d="M37.999,17.001	c1.656,0,3,1.344,3,3c0,1.656-1.344,3-3,3s-3-1.344-3-3C34.999,18.345,36.343,17.001,37.999,17.001z" clip-rule="evenodd"/><path fill="#78909c" fill-rule="evenodd" d="M34.999,22.001l1-7	l3.468,3.644c0.335,0.351,0.532,0.833,0.532,1.356c0,1.104-0.896,2-2,2H34.999z" clip-rule="evenodd"/><path fill="#010f16" fill-rule="evenodd" d="M17.999,21.002v2.999	h4.999v-2.999H17.999z" clip-rule="evenodd"/><path fill="#78909c" fill-rule="evenodd" d="M20.999,27.001v-4.001	c0-1.103,0.896-1.999,2-1.999c1.103,0,1.999,0.896,1.999,1.999h2.001l-1,4.001H20.999z" clip-rule="evenodd"/><path fill="#78909c" fill-rule="evenodd" d="M42.999,26.001l-1-2h-7	v3h7L42.999,26.001z" clip-rule="evenodd"/><path fill="#b0bec5" d="M25.998,15.001v11.999h10.001V15.001H25.998z"/><path fill="#010f16" fill-rule="evenodd" d="M30.999,16.001	c0.552,0,1,0.448,1,1c0,0.552-0.448,1-1,1c-0.552,0-1-0.448-1-1C29.999,16.449,30.447,16.001,30.999,16.001z" clip-rule="evenodd"/><path fill="#010f16" fill-rule="evenodd" d="M30.999,22.001	c0.552,0,1,0.448,1,1c0,0.552-0.448,1-1,1c-0.552,0-1-0.448-1-1C29.999,22.449,30.447,22.001,30.999,22.001z" clip-rule="evenodd"/><path fill="#010f16" fill-rule="evenodd" d="M27.999,19.001	c0.552,0,1,0.448,1,1c0,0.552-0.448,1-1,1c-0.552,0-1-0.448-1-1C26.999,19.449,27.447,19.001,27.999,19.001z" clip-rule="evenodd"/><path fill="#010f16" fill-rule="evenodd" d="M33.999,19.001	c0.552,0,1,0.448,1,1c0,0.552-0.448,1-1,1c-0.552,0-1-0.448-1-1C32.999,19.449,33.447,19.001,33.999,19.001z" clip-rule="evenodd"/><path fill="#b0bec5" fill-rule="evenodd" d="M37.999,19.001	c0.552,0,1,0.448,1,1c0,0.552-0.448,1-1,1s-1-0.448-1-1C36.999,19.449,37.447,19.001,37.999,19.001z" clip-rule="evenodd"/><path fill="#b0bec5" fill-rule="evenodd" d="M22.999,22.001	c0.552,0,1,0.448,1,1c0,0.552-0.448,1-1,1c-0.552,0-1-0.448-1-1C21.999,22.449,22.447,22.001,22.999,22.001z" clip-rule="evenodd"/><path fill="#546e7a" fill-rule="evenodd" d="M18.999,43.977	l-0.001-17.975h24.001l0.001,17.975c0,1.116-0.908,2.024-2.024,2.024H21.023C19.907,46.001,18.999,45.093,18.999,43.977z" clip-rule="evenodd"/><path fill="#546e7a" fill-rule="evenodd" d="M3.998,15.001	c0-6.072,0.897-11,2.001-11l12.027,0.001c0.537,0,0.975,0.437,0.975,0.975v20.049c0,0.537-0.437,0.975-0.975,0.975H5.999	C4.895,26.001,3.998,21.073,3.998,15.001z" clip-rule="evenodd"/><path fill="#546e7a" fill-rule="evenodd" d="M18.999,24.999	c0.552,0,1,0.449,1,1.001c0,0.552-0.448,1.001-1,1.001c-0.552,0-1-0.449-1-1.001C17.999,25.449,18.447,24.999,18.999,24.999z" clip-rule="evenodd"/></svg>