<svg xmlns="http://www.w3.org/2000/svg"  viewBox="0 0 48 48" width="50px" height="50px"><path fill="#66bb6a" d="M48,35c0,2.208-1.791,4-4,4H4c-2.209,0-4-1.792-4-4V13c0-2.21,1.791-4,4-4h40c2.209,0,4,1.79,4,4V35z"/><path fill="#fff" d="M10 27.762c-.391.411-.873.718-1.442.928C7.988 28.897 7.365 29 6.687 29c-1.157 0-2.056-.348-2.698-1.039-.64-.693-.97-1.702-.989-3.025v-1.751c0-1.343.303-2.374.91-3.1C4.516 19.363 5.4 19 6.562 19c1.093 0 1.917.26 2.473.783C9.591 20.302 9.913 20.885 10 22H8c-.055-.619-.167-.808-.379-1.033-.211-.223-.543-.336-.996-.336-.548 0-.948.195-1.197.581-.249.39-.459 1.005-.469 1.853v1.765c0 .886.219 1.532.494 1.937.274.401.725.603 1.352.603.401 0 .726-.078.975-.233L8 27.014v-1.44H7V24h3V27.762zM33.478 21H31v8h-2v-8h-2.42v-2h6.898V21zM24.695 27h-2.741l-.533 2h-2.126l3.11-9.953h1.839L27.375 29h-2.146L24.695 27zM22.392 25.289h1.859l-.93-3.549L22.392 25.289zM15.008 25.346H14V29h-2V19h3.206c1.007 0 1.785.263 2.334.785.55.526.824 1.272.824 2.237 0 1.327-.481 2.257-1.442 2.788l1.743 4.093V29h-2.16L15.008 25.346zM14 23.662h1.151c.4 0 .701-.133.902-.4.2-.267.301-.628.301-1.075 0-1.003-.39-1.503-1.169-1.503H14V23.662zM35 19H37V29H35zM43.498 26.313c0-.395-.104-.697-.311-.9-.208-.202-.585-.412-1.132-.63-.998-.371-1.716-.804-2.153-1.302-.438-.497-.656-1.083-.656-1.761 0-.819.298-1.478.893-1.975S41.488 19 42.404 19c.611 0 1.155.126 1.634.378s.847.607 1.104 1.066c.257.458.386.974.386 1.556h-2.003c0-.455-.099-.792-.297-1.033-.198-.237-.484-.355-.858-.355-.351 0-.624.099-.82.302-.195.204-.294.477-.294.821 0 .267.109.508.328.726.219.214.606.439 1.162.67.971.342 1.676.764 2.116 1.262.439.5.659 1.134.659 1.906 0 .848-.275 1.509-.827 1.986C44.144 28.761 43.394 29 42.445 29c-.643 0-1.228-.13-1.757-.388-.528-.258-.942-.628-1.24-1.11C39.15 27.021 39 26.653 39 26h2.017c0 .561.112.767.335 1.021.224.253.588.382 1.094.382C43.147 27.403 43.498 27.04 43.498 26.313z"/></svg>