<svg xmlns="http://www.w3.org/2000/svg"  viewBox="0 0 48 48" width="50px" height="50px"><path fill="#3f51b5" d="M36 24L36 4 12 4 12 24 4 24 24 44 44 24z"/><path fill="#fff" d="M27.796,24.388C27.294,24.767,26.676,25,26,25h-1c-1.654,0-3-1.346-3-3v-3c0-1.654,1.346-3,3-3h1 c0.676,0,1.294,0.233,1.796,0.612l0.648-1.944C27.717,14.255,26.891,14,26,14h-1c-2.75,0-5,2.25-5,5v3c0,2.75,2.25,5,5,5h1 c0.891,0,1.717-0.255,2.444-0.668L27.796,24.388z"/><path fill="#fff" d="M18 18H26V20H18zM18 21H26V23H18z"/></svg>