<svg xmlns="http://www.w3.org/2000/svg"  viewBox="0 0 48 48" width="50px" height="50px"><path fill="#00b8d4" d="M24,2l4.506,5.029L35,5l1.465,6.535L43,13l-2,6.494L46,24l-5,4.506L43,35l-6.535,1.465L35,43l-6.494-2.029L24,46l-4.506-5.029L13,43l-1.465-6.535L5,35l2-6.494L2,24l5-4.506L5,13l6.535-1.465L13,5l6.494,2.029L24,2z"/><path fill="#fff" d="M17.5 30.199h-2.102V33H14v-6.801h3.801v1.199h-2.402v1.801H17.5V30.199zM21.102 30.5h-.703V33H19v-6.801h2.199c1.199 0 2.199.602 2.199 2.102 0 1.398-.797 1.801-1 1.898L23.602 33h-1.5L21.102 30.5zM20.398 29.301h.801c.801 0 .801-.699.801-1 0-.199 0-1-.801-1h-.801V29.301zM28.398 30h-2.199v1.801h2.5V33h-3.898v-6.801h3.898v1.199h-2.5V29h2.199V30zM33.602 30h-2.203v1.801H34V33h-3.898v-6.801H34v1.199h-2.5V29h2.199v1H33.602zM25.898 23.699h-2.699v-8.398l-3.199 1v-2.199l5.602-2h.297V23.699z"/></svg>