<svg xmlns="http://www.w3.org/2000/svg"  viewBox="0 0 48 48" width="50px" height="50px"><path fill="#ffc107" d="M42,36H28V16c0-1.1,0.9-2,2-2h8c0.6,0,1.2,0.3,1.6,0.8l6,7.7c0.3,0.4,0.4,0.8,0.4,1.2V32C46,34.2,44.2,36,42,36	z"/><path fill="#9575cd" d="M6,36h22V12c0-2.2-1.8-4-4-4H7c-2.8,0-5,2.2-5,5v19C2,34.2,3.8,36,6,36z"/><circle cx="37" cy="36" r="5" fill="#37474f"/><circle cx="14" cy="36" r="5" fill="#37474f"/><circle cx="37" cy="36" r="2.5" fill="#78909c"/><circle cx="14" cy="36" r="2.5" fill="#78909c"/><path fill="#455a64" d="M42,26h-3.6c-0.3,0-0.5-0.1-0.7-0.3l-1.4-1.4c-0.2-0.2-0.4-0.3-0.7-0.3H32c-0.6,0-1-0.4-1-1v-6c0-0.6,0.4-1,1-1	h5.5c0.3,0,0.6,0.1,0.8,0.4l4.5,5.4c0.1,0.2,0.2,0.4,0.2,0.6V25C43,25.6,42.6,26,42,26z"/><path fill="#fff" d="M15,11c-5,0-9,4-9,9s4,9,9,9s9-4,9-9S20,11,15,11z"/><rect width="2" height="7" x="14" y="13" fill="#37474f"/><rect width="2" height="4.9" x="15.7" y="19.3" fill="#37474f" transform="rotate(-44.887 16.747 21.754)"/><circle cx="15" cy="20" r="2" fill="#37474f"/><g><circle cx="15" cy="20" r="1" fill="#9575cd"/></g></svg>