<svg xmlns="http://www.w3.org/2000/svg"  viewBox="0 0 48 48" width="50px" height="50px"><path fill="#546e7a" d="M4,13H3c-0.552,0-1-0.448-1-1v-2c0-0.552,0.448-1,1-1h1c0.552,0,1,0.448,1,1v2 C5,12.552,4.552,13,4,13z"/><path fill="#795548" d="M44,18H31c0,0-1.1,4.14-1.67,7.83l-0.01,0.08c-0.78-0.17-1.54-0.64-2.32-1.3 c-0.84-0.71-1.71-1.67-2.64-2.76c-0.08-0.1-0.16-0.2-0.25-0.3c-0.023-0.027-0.048-0.058-0.071-0.085l-5.277,3.809 c0.01,0.019,0.018,0.037,0.028,0.056L19,25.72c0.01,0.02,0.02,0.05,0.03,0.07C22.5,32.44,26.63,39,35.5,39 c5.73,0,10.5-2.25,10.5-9.68C46,25.5,44,18,44,18z"/><path fill="#455a64" d="M17.63,23.05c0.068,0.136,0.139,0.273,0.208,0.409l4.91-3.545c-0.109-0.122-0.215-0.247-0.318-0.374 c-0.08-0.09-0.17-0.19-0.25-0.29C18.47,14.88,13.67,10,6,10c-2,0-2,0-2,0v2h2c5.7,0,8.62,5.19,11.61,11.01 C17.62,23.02,17.62,23.04,17.63,23.05z"/><path fill="#fbc02d" d="M24.36,21.85L19,25.72l-0.21-0.39c-0.39-0.77-0.78-1.52-1.16-2.28c-0.01-0.01-0.01-0.03-0.02-0.04 l4.82-3.47c0.13,0.16,0.26,0.32,0.4,0.47c0.44,0.53,0.87,1.05,1.28,1.54C24.2,21.65,24.28,21.75,24.36,21.85z"/></svg>