<svg xmlns="http://www.w3.org/2000/svg"  viewBox="0 0 48 48" width="50px" height="50px"><path fill="#FF9800" d="M9 13H19V35H9z"/><path fill="#90A4AE" d="M9 35H19V39H9z"/><path fill="#E57373" d="M19,39H9v2c0,1.1,0.9,2,2,2h6c1.1,0,2-0.9,2-2V39z"/><path fill="#FFA726" d="M12 13H16V35H12z"/><path fill="#FFC107" d="M19 13L16.5 9 11.5 9 9 13z"/><path fill="#37474F" d="M14 5L11.5 9 16.5 9z"/><path fill="#9EB0B9" d="M12 35H16V39H12z"/><path fill="#E78080" d="M12 39H16V43H12z"/><path fill="#FFD54F" d="M15 9L13 9 12 13 16 13z"/><path fill="#2196F3" d="M37,5H27c-1.1,0-2,0.9-2,2v34c0,1.1,0.9,2,2,2h10c1.1,0,2-0.9,2-2V7C39,5.9,38.1,5,37,5z M32,11c-1.1,0-2-0.9-2-2c0-1.1,0.9-2,2-2s2,0.9,2,2C34,10.1,33.1,11,32,11z"/><path fill="#1565C0" d="M25 15H30V17H25zM25 19H28V21H25zM25 23H30V25H25zM25 27H28V29H25zM25 31H30V33H25zM25 35H28V37H25zM25 39H30V41H25z"/></svg>