<svg xmlns="http://www.w3.org/2000/svg"  viewBox="0 0 48 48" width="50px" height="50px"><polygon fill="#37474f" points="33,13 26,13 26,18 31,18 31,15 33,15"/><path fill="#29b6f6" d="M31,17H17v27c0,1.1,0.9,2,2,2h12c1.1,0,2-0.9,2-2V19C33,17.9,32.1,17,31,17z"/><path fill="#c5cae9" d="M29,18H17v-6c0-0.6,0.4-1,1-1h6c1.2,0,2.3,0.7,2.8,1.8L29,18z"/><path fill="#455a64" d="M33,20H17v-3h15c0.6,0,1,0.4,1,1V20z"/><path fill="#ff5722" d="M23,6c0,1.6-1.4,3-3,3s-3-1.3-3-3s3-6,3-6S23,4.4,23,6z"/><path fill="#fff59d" d="M21.7,7.2C21.7,8.2,21,9,20,9s-1.7-0.8-1.7-1.8S20,3.7,20,3.7S21.7,6.2,21.7,7.2z"/></svg>