<svg xmlns="http://www.w3.org/2000/svg"  viewBox="0 0 48 48" width="50px" height="50px"><path fill="#e64a19" d="M10,37.918l-5,6c0,0,6,1,10-4L10,37.918z"/><path fill="#f9a825" d="M12,37.918c-0.7,0-1.4-0.4-1.8-1.1c-0.5-1-0.1-2.2,0.9-2.7l6.9-3.4v-6.8c0-1.1,0.9-2,2-2s3,0.9,3,2l-1,8c0,0.8-0.4,1.5-1.1,1.8l-8,4C12.6,37.818,12.3,37.918,12,37.918z"/><path fill="#ffb74d" d="M33.5,7c1.925,0,3.5,1.575,3.5,3.5S35.425,14,33.5,14S30,12.425,30,10.5S31.575,7,33.5,7z"/><path fill="#ffba57" d="M41.5,23.318l-8.5-7.5l-0.1-0.1l-3.6-2.5c-0.2-0.1-0.4-0.2-0.6-0.2l-6.6-1.3l-3.2-5.8c-0.3-0.8-1.2-1.1-2-0.8c-0.8,0.3-1.1,1.2-0.8,2l3.5,6.5c0.2,0.5,0.6,0.8,1.1,0.9l4.6,0.9l-6.1,5.5c-1.5,1.3-1.6,3.5-0.3,4.9c0.4,0.4,0.9,0.7,1.4,0.9l6.6,4.2l-0.9,6.7c-0.2,1.1,0.6,2.1,1.7,2.3c0.1,0,0.2,0,0.3,0c1,0,1.8-0.7,2-1.7l1-8c0.1-0.8-0.2-1.6-0.9-2l-5.1-3.2l6.9-6.2l7.6,6.7c0.3,0.3,0.6,0.4,1,0.4s0.8-0.2,1.1-0.5C42.2,24.818,42.1,23.818,41.5,23.318z"/><path fill="#ba68c8" d="M38,20.23l-5-4.412l-0.1-0.1l-3.6-2.5c-0.2-0.1-0.4-0.2-0.6-0.2l-6.6-1.3c0,0-1.9,2.7-1.4,2.8l4.6,0.9l-6.1,5.5c-1.5,1.3-1.6,3.5-0.3,4.9c0.4,0.4,0.9,0.7,1.4,0.9l4.7-1.7L32,19l4,3.433L38,20.23z"/><path fill="#ab47bc" d="M22,25l3,0.018L32,19l-1.5-1.407L22,25z"/><path fill="#2d4c5c" d="M19.2,20.918c-1.5,1.3-1.6,3.5-0.3,4.9c0.4,0.4,0.9,0.7,1.4,0.9l4.7-1.7L19.2,20.918z"/><path fill="#ff754c" d="M32.087,42c-18,0-26.1-4.3-26.5-4.5c-0.6-0.3-0.7-0.9-0.5-1.4c0.3-0.5,0.9-0.6,1.4-0.4c0.1,0.1,10.5,4.7,35.4,3.9c0.6,0,1,0.4,1.1,0.9s-0.4,1-0.9,1.1C38.487,41.9,35.087,42,32.087,42z"/></svg>