<svg xmlns="http://www.w3.org/2000/svg"  viewBox="0 0 48 48" width="50px" height="50px"><path fill="#455a64" d="M6,42h37v2H6V42z"/><path fill="#ffb74d" d="M22.5,4C24.4,4,26,5.6,26,7.5S24.4,11,22.5,11S19,9.4,19,7.5S20.6,4,22.5,4"/><path fill="#7e8ccf" d="M16.9,21c-0.3,0-0.5-0.1-0.8-0.2l-4.4-2c-0.7-0.4-0.9-1.3-0.5-2.1c0.4-0.7,1.3-0.9,2.1-0.5l3.4,1.4 l4.2-4.1c0.4-0.4,1.8-1.2,3.1-1.4s0,0,0,0c0.4-0.1,2.7-0.3,3.7,0.2l6.5,3.5l3.5-1.5c0.7-0.4,1.6-0.2,2.1,0.5 c0.4,0.7,0.2,1.6-0.5,2.1l-4.3,2c-0.5,0.3-1,0.3-1.5,0L26,15.6l-2.8,1.2L18,20.6C17.7,20.9,17.3,21,16.9,21z"/><path fill="#7e8ccf" d="M27,25.5c-1.4,0-2.7-0.8-3.3-2.2l-2.6-6.5c-0.7-1.8,0.2-3.7,2-4.4c1.8-0.7,3.8,0.1,4.5,1.9l3.6,8.8 C32,24.8,29.8,25.5,27,25.5z"/><path fill="#455a64" d="M6.7,43.8l-1.3-1.5C5.7,42,13.8,35,25,35c11.3,0,18.4,7,18.7,7.3l-1.4,1.4C42.2,43.6,35.4,37,25,37 C14.5,37,6.7,43.7,6.7,43.8z"/><path fill="#b0bec5" d="M44 44L42 44 42 41.1 37.5 17 39.5 16.6 44 41z"/><path fill="#455a64" d="M39.9,18.8l-0.9-5c-0.1-0.5-0.6-0.9-1.2-0.8c-0.5,0.1-0.9,0.6-0.8,1.2l0.9,5L39.9,18.8z"/><path fill="#b0bec5" d="M7 44L5 44 5 40.7 12 17.4 14 18 7 41.1z"/><path fill="#455a64" d="M11.4,19.6l1.4-4.9c0.2-0.5,0.7-0.8,1.2-0.7c0.5,0.2,0.8,0.7,0.7,1.2l-1.4,4.9L11.4,19.6z"/><path fill="#d2ccc9" d="M37.7,34l-6.4-11h-7.7l-3,3.6c-0.7,0.7-0.8,1.9-0.1,2.7l5,5c0.4,0.5,1,0.7,1.5,0.7 c0.5,0,0.9-0.2,1.3-0.5c0.8-0.7,1-2,0.3-2.8l-3.8-3.6L28,26l6.3,10c0.4,0.6,1,1,1.7,1c0.3,0,0.7-0.1,1-0.3 C38,36.2,38.3,34.9,37.7,34z"/><path fill="#b2aead" d="M27,24l-4,4l5.4,3.6l-3.7-3.5L28,26L27,24z"/><path fill="#606fc4" d="M23.3,16.5l-1.7,1.4l2,5.1H26L23.3,16.5z"/></svg>