<svg xmlns="http://www.w3.org/2000/svg"  viewBox="0 0 48 48" width="50px" height="50px" baseProfile="basic"><polygon fill="#e8eaf6" points="42,39 6,39 6,23 24,6 42,23"/><polygon fill="#c5cae9" points="39,21 34,16 34,9 39,9"/><rect width="36" height="5" x="6" y="39" fill="#c5cae9"/><polygon fill="#b71c1c" points="24,4.3 4,22.9 6,25.1 24,8.4 42,25.1 44,22.9"/><path fill="#9e9e9e" d="M13,29h22c0.552,0,1-0.448,1-1v0c0-0.552-0.448-1-1-1H13c-0.552,0-1,0.448-1,1v0	C12,28.552,12.448,29,13,29z"/><rect width="3" height="14" x="17" y="21" fill="#ff7043"/><rect width="3" height="10" x="14" y="23" fill="#e64a19"/><rect width="3" height="14" x="28" y="21" fill="#ff7043" transform="rotate(-180 29.5 28)"/><rect width="3" height="10" x="31" y="23" fill="#e64a19" transform="rotate(-180 32.5 28)"/></svg>