<svg xmlns="http://www.w3.org/2000/svg"  viewBox="0 0 48 48" width="50px" height="50px"><path fill="#455a64" d="M2.265,24.051l0.242-0.081H2.426C2.345,24.051,2.345,24.051,2.265,24.051z"/><path fill="#607d8b" d="M13.984,23.957l1.834-6.372l10.234-2.414c1.062-0.29,1.641-1.255,1.448-2.317	c-0.29-1.062-1.255-1.641-2.317-1.448L8.77,15.268c-0.386,0.097-0.772,0.29-1.062,0.579l-5.793,6.758	c-0.579,0.676-0.579,1.641-0.097,2.414c0.386,0.579,0.965,0.869,1.545,0.869c0.29,0,0.483-0.097,0.772-0.193l2.124-0.869v9.269	l-2.8,7.531c-0.386,0.965,0.097,2.124,1.159,2.51c0.193,0.097,0.483,0.097,0.676,0.097c0.772,0,1.545-0.483,1.834-1.255l2.896-7.724	c0.097-0.097,0.097-0.29,0.097-0.483l0.579-4.731l2.317,4.055v8.207c0,1.062,0.869,1.931,1.931,1.931s1.931-0.869,1.931-1.931	v-8.689c0-0.29-0.097-0.676-0.29-0.965L13.984,23.957z"/><path fill="#455a64" d="M12.536,20.095c-0.579-1.448-2.124-1.834-3.572-1.448c-1.352,0.29-4.152,2.607-4.634,2.896	l3.862-1.641c0.29-0.097,0.483-0.193,0.772-0.193c0.772,0,1.448,0.483,1.738,1.159c0.386,0.965,0,2.124-0.965,2.51L6.26,24.826	v2.124l4.248-1.834C12.439,24.247,13.405,22.026,12.536,20.095z"/><polygon fill="#455a64" points="13.018,34.095 13.018,34.095 13.018,42.301 13.984,33.612 10.894,27.529 10.701,30.136"/><path fill="#2196f3" d="M46.443,28.125l-2.489-5.32c-0.108-0.24-0.252-0.429-0.405-0.624l-3.171-4.072	c-0.195-0.251-0.422-0.481-0.67-0.681c-0.59-0.475-0.74-0.83-2.34-1.24l-1.179-0.193l-1.489-0.252l-0.817-0.059	c-2.314-0.002-4.521,2.773-4.521,4.571l-0.096,1.089l0,0l-0.38,4.309l-5.744,5.417c-0.321,0.18-0.574,0.461-0.722,0.799	l-2.765,6.648c-0.278,0.638-0.129,1.353,0.32,1.828c0.152,0.161,0.338,0.295,0.554,0.391c0.854,0.371,1.846-0.02,2.217-0.875	l2.696-6.207l1.35-0.88l2.892-1.879l-0.902,2.596l-0.173,0.498h0l-0.42,1.209l0.363,7.893c-0.028,0.953,0.699,1.724,1.652,1.752	c0.953,0.028,1.724-0.699,1.752-1.652l-0.252-7.885l3.617-4.868c0.214-0.334,0.428-0.669,0.51-1.143l1.244-5.952l0.499-2.562	l3.144,3.24l2.402,5.337c0.333,0.894,1.347,1.342,2.264,1.002C46.303,30.018,46.731,29.1,46.443,28.125z"/><circle cx="12" cy="9" r="4" fill="#ffb74d"/><circle cx="36.93" cy="10.094" r="3.906" fill="#ffb74d"/></svg>