<svg xmlns="http://www.w3.org/2000/svg"  viewBox="0 0 48 48" width="50px" height="50px"><path fill="#90caf9" d="M24,5L4,16.89V41h40V16.89L24,5z"/><rect width="32" height="3" x="8" y="25" fill="#616161"/><path fill="#0277bd" d="M32.868,34h-2.736C29.507,34,29,33.493,29,32.868V20.132C29,19.507,29.507,19,30.132,19h2.736	C33.493,19,34,19.507,34,20.132v12.736C34,33.493,33.493,34,32.868,34z"/><path fill="#0d47a1" d="M36.918,31h-1.835C34.485,31,34,30.515,34,29.918v-6.835C34,22.485,34.485,22,35.082,22h1.835	C37.515,22,38,22.485,38,23.082v6.835C38,30.515,37.515,31,36.918,31z"/><path fill="#0277bd" d="M15.132,34h2.736C18.493,34,19,33.493,19,32.868V20.132C19,19.507,18.493,19,17.868,19h-2.736	C14.507,19,14,19.507,14,20.132v12.736C14,33.493,14.507,34,15.132,34z"/><path fill="#0d47a1" d="M11.082,31h1.835C13.515,31,14,30.515,14,29.918v-6.835C14,22.485,13.515,22,12.918,22h-1.835	C10.485,22,10,22.485,10,23.082v6.835C10,30.515,10.485,31,11.082,31z"/></svg>