<svg xmlns="http://www.w3.org/2000/svg"  viewBox="0 0 48 48" width="50px" height="50px"><path fill="#ffb74d" d="M24,3c2.209,0,4,1.791,4,4c0,2.208-1.791,4-4,4s-4-1.792-4-4C20,4.791,21.791,3,24,3"/><path fill="#ffba57" d="M38.171,10.158c-0.742-0.369-1.643-0.068-2.013,0.67l-2.367,4.736l-5.7-2.443 C27.904,13.04,27.703,13,27.5,13h-6h-1c-0.203,0-0.404,0.04-0.591,0.121l-5.7,2.443l-2.367-4.736 c-0.37-0.738-1.271-1.039-2.013-0.67c-0.741,0.371-1.041,1.271-0.671,2.014l3,6C12.42,18.695,12.948,19,13.501,19 c0.197,0,0.397-0.039,0.59-0.121L19,17.965L29,18l4.909,0.879C34.102,18.961,34.302,19,34.499,19c0.553,0,1.081-0.305,1.343-0.828 l3-6C39.212,11.43,38.912,10.529,38.171,10.158z"/><path fill="#9575cd" d="M29,25v-7.177v-4.312l-0.909-0.39C27.904,13.04,27.703,13,27.5,13h-1h-5h-1 c-0.203,0-0.404,0.04-0.591,0.121L19,13.511v4.454V25H29z"/><path fill="#f9a825" d="M22.336,38.89L26,34l-2-6v-3h5v1l0.98,7.987c0.037,0.33,0.009,0.634-0.316,1.122l-4,6 C24.208,43.292,20.856,41.113,22.336,38.89z"/><path fill="#ffba57" d="M23.464,43.281l-5-7.475c-0.398-0.476-0.551-1.109-0.416-1.715L19,26h5v2l-1.834,6l4.37,6.719 C28.248,42.777,25.138,45.286,23.464,43.281z"/><path fill="#4db6ac" d="M19,25v1l-0.941,8h4.107L24,28l5-3H19z"/><path fill="#26a69a" d="M29.99,34C29.97,33.784,29,26,29,26v-1h-5v3l2,6H29.99z"/><path fill="#1a8e80" d="M28,34l-4-6l2,6H28z"/><g><path fill="#546e7a" d="M3,11h42v2H3V11z"/></g></svg>