<svg xmlns="http://www.w3.org/2000/svg"  viewBox="0 0 48 48" width="50px" height="50px"><path fill="#ffb74a" d="M24,3c2.2,0,4,1.8,4,4s-1.8,4-4,4s-4-1.8-4-4S21.8,3,24,3"/><path fill="#feba57" d="M27.7,42.4L25.5,34L24,28v-3h5v1l1.3,8l1.2,7.7c0.2,1.1-0.5,2.1-1.6,2.3c-0.1,0-0.2,0-0.3,0l0,0	C28.7,44,27.9,43.3,27.7,42.4z"/><polygon fill="#24a69a" points="29,26 29,25 24,25 24,28 25.5,34 30.3,34"/><path fill="#feba57" d="M16.5,41.7c0.3-1.2,0.8-4.5,1.3-7.6c0.6-4,1.2-8,1.2-8v-1h5v3l-1.5,6l-2.1,8.5	c-0.2,0.9-1,1.5-1.9,1.5l0,0c-1.1,0-2-0.9-2-2C16.5,41.9,16.5,41.8,16.5,41.7z"/><path fill="#4bb5ac" d="M19,26c0,0-0.6,4-1.2,8h4.7l1.5-6v-3h-5V26z"/><path fill="#607e8b" d="M3,25h42v2H3V25z"/><path fill="#e55143" d="M42,32c0,0.6-0.4,1-1,1h-1c-0.6,0-1-0.4-1-1V20c0-0.6,0.4-1,1-1h1c0.6,0,1,0.4,1,1V32z"/><path fill="#e55143" d="M6,32c0,0.6,0.4,1,1,1h1c0.6,0,1-0.4,1-1V20c0-0.6-0.4-1-1-1H7c-0.6,0-1,0.4-1,1V32z"/><path fill="#f7754e" d="M39,32c0,0.6-0.4,1-1,1h-1c-0.6,0-1-0.4-1-1V20c0-0.6,0.4-1,1-1h1c0.6,0,1,0.4,1,1V32z"/><path fill="#f7754e" d="M9,32c0,0.6,0.4,1,1,1h1c0.6,0,1-0.4,1-1V20c0-0.6-0.4-1-1-1h-1c-0.6,0-1,0.4-1,1V32z"/><rect width="5" height="2" x="29" y="25" fill="#8fa4ae"/><rect width="5" height="2" x="14" y="25" fill="#8fa4ae"/><path fill="#feba57" d="M19,27.5v-9.6c0.5,0.1,1,0.1,1.5,0.1h7c0.5,0,1,0,1.5-0.1v9.6c0,0.8,0.7,1.5,1.5,1.5l0,0	c0.8,0,1.5-0.7,1.5-1.5l-0.9-12.2C31,14,30,13,28.7,13h-9.4c-1.3,0-2.3,1-2.4,2.3L16,27.5c0,0.8,0.7,1.5,1.5,1.5l0,0	C18.3,29,19,28.3,19,27.5z"/><path fill="#8f79b8" d="M29,25v-7.2c-1.3-1.3-2-3-2-4.8h-1c0,0,0,4-2,4s-2-4-2-4h-1c0,1.9-0.7,3.6-2,5v7H29z"/></svg>