<svg xmlns="http://www.w3.org/2000/svg"  viewBox="0 0 48 48" width="50px" height="50px"><path fill="#607d8b" d="M29 24c-.7 0-1.6-.4-2.9-1.1C25.4 22.6 24.3 22 24 22c-.3 0-1.4.6-2 .9C20.6 23.6 19.7 24 19 24s-1.6-.4-2.9-1.1C15.4 22.6 14.3 22 14 22l-4 0v-2h4c.7 0 1.6.4 2.9 1.1.7.3 1.7.9 2.1.9.3 0 1.4-.6 2-.9 1.4-.7 2.2-1.1 2.9-1.1s1.6.4 2.9 1.1c.7.3 1.7.9 2.1.9.3 0 1.4-.6 2-.9 1.4-.7 2.2-1.1 2.9-1.1h4v2h-4c-.3 0-1.4.6-2.1.9C30.6 23.6 29.7 24 29 24zM4 10h40v2H4V10z"/><path fill="#90a4ae" d="M15 10h6v2h-6V10zM27 10h6v2h-6V10zM11 13c0 .6-.4 1-1 1H9c-.6 0-1-.4-1-1V9c0-.6.4-1 1-1h1c.6 0 1 .4 1 1V13zM40 13c0 .6-.4 1-1 1h-1c-.6 0-1-.4-1-1V9c0-.6.4-1 1-1h1c.6 0 1 .4 1 1V13z"/><path fill="#607d8b" d="M4 20h6v2H4V20zM38 20h6v2h-6V20z"/><path fill="#90a4ae" d="M11 23c0 .6-.4 1-1 1H9c-.6 0-1-.4-1-1v-4c0-.6.4-1 1-1h1c.6 0 1 .4 1 1V23zM40 23c0 .6-.4 1-1 1h-1c-.6 0-1-.4-1-1v-4c0-.6.4-1 1-1h1c.6 0 1 .4 1 1V23z"/><path fill="#607d8b" d="M4 33h10v2H4V33zM34 33h10v2H34V33z"/><path fill="#90a4ae" d="M28 29h2v10h-2V29zM18 29h2v10h-2V29zM11 36c0 .6-.4 1-1 1H9c-.6 0-1-.4-1-1v-4c0-.6.4-1 1-1h1c.6 0 1 .4 1 1V36zM40 36c0 .6-.4 1-1 1h-1c-.6 0-1-.4-1-1v-4c0-.6.4-1 1-1h1c.6 0 1 .4 1 1V36z"/><path fill="#607d8b" d="M29,40H19c-3.3,0-6-2.7-6-6s2.7-6,6-6h10c3.3,0,6,2.7,6,6S32.3,40,29,40z M19,30c-2.2,0-4,1.8-4,4 s1.8,4,4,4h10c2.2,0,4-1.8,4-4s-1.8-4-4-4H19z"/><path fill="#90a4ae" d="M34 20c-.7 0-1.6.4-2.9 1.1-.7.3-1.7.9-2 .9 0 0 0 0 0 0v2c.7 0 1.6-.4 2.9-1.1.7-.3 1.7-.9 2.1-.9V20zM16.9 21.1C15.6 20.4 14.7 20 14 20v2c.3 0 1.4.6 2.1.9 1.4.7 2.2 1.1 2.9 1.1v-2C18.7 22 17.6 21.4 16.9 21.1z"/></svg>