<svg xmlns="http://www.w3.org/2000/svg"  viewBox="0 0 48 48" width="50px" height="50px"><path fill="#5ec08f" d="M29.7,42c-1.7,0-3.7-0.3-5.7-1c-1.9,0.7-3.9,1-5.7,1C11.1,42,6,37.5,6,31.1c0-6.4,4.2-9.7,8-12.6 c3.2-2.5,6-4.7,6-8.5c0-0.8-0.5-2-2-2c-1.2,0-2.1,1.5-2.1,1.5l-1.7-1C14.2,8.4,15.7,6,18,6c2.5,0,4,2,4,4c0,4.7-3.5,7.4-6.8,10 c-3.7,2.9-7.2,5.6-7.2,11c0,5.3,4.2,8.9,10.3,8.9c0.9,0,1.9-0.1,2.9-0.3c-3-1.8-5.4-4.6-5.4-8.6c0-5,4.2-8.1,8.1-8.1 s8.1,3.1,8.1,8.1c0,4-2.3,6.8-5.4,8.6c1,0.2,2,0.3,2.9,0.3c6.2,0,10.3-3.6,10.3-8.9c0-5.4-3.5-8.1-7.2-11c-3.3-2.6-6.8-5.3-6.8-10 c0-2,1.5-4,4-4c2.3,0,3.8,2.4,3.8,2.5l-1.7,1C31.9,9.1,31,8,30,8c-1.5,0-2,1.2-2,2c0,3.7,2.8,5.9,6,8.5c3.7,2.9,8,6.2,8,12.6 C42,37.5,36.9,42,29.7,42z M24,25c-2.9,0-6.1,2.3-6.1,6.1c0,3.9,2.8,6.4,6.1,7.8c3.3-1.4,6.1-3.9,6.1-7.8C30.1,27.3,26.9,25,24,25z"/><path fill="#398e5f" d="M21.6 37.5c-.9.2-1.8.4-2.6.4.7.6 1.5 1.2 2.3 1.7.9-.2 1.8-.5 2.7-.8C23.1 38.5 22.3 38 21.6 37.5zM29.7 40c-.9 0-1.9-.1-2.9-.3-.9.5-1.8.9-2.7 1.3 1 .4 2 .6 3.1.8C28 41.3 28.9 40.7 29.7 40 29.7 40 29.7 40 29.7 40z"/><path fill="#ffba57" d="M10.1,16.7c-0.4,0.4-1,0.4-1.4,0l-1.4-1.4c-0.4-0.4-0.4-1,0-1.4c0,0,2.8-2.8,3.5-3.5 c0.7-0.7,1.4,0,2.1-0.7c0.7-0.7,0-1.4,0.7-2.1s1.4,0,1.4,0l1.4,1.4c0,0,0.7,0.7,0,1.4s-1.4,0-2.1,0.7c-0.7,0.7,0,1.4-0.7,2.1 C12.9,13.9,10.1,16.7,10.1,16.7z"/><path fill="#f79911" d="M10.8,10.3l2.8,2.8c0.7-0.7,0-1.4,0.7-2.1c0.7-0.7,1.4,0,2.1-0.7l-2.8-2.8c-0.7,0.7,0,1.4-0.7,2.1 C12.2,10.3,11.5,9.6,10.8,10.3z"/><path fill="#ffba57" d="M37.9,16.7c0.4,0.4,1,0.4,1.4,0l1.4-1.4c0.4-0.4,0.4-1,0-1.4c0,0-2.8-2.8-3.5-3.5 c-0.7-0.7-1.4,0-2.1-0.7c-0.7-0.7,0-1.4-0.7-2.1s-1.4,0-1.4,0l-1.4,1.4c0,0-0.7,0.7,0,1.4s1.4,0,2.1,0.7c0.7,0.7,0,1.4,0.7,2.1 S37.9,16.7,37.9,16.7z"/><path fill="#f79911" d="M37.2,10.3l-2.8,2.8c-0.7-0.7,0-1.4-0.7-2.1c-0.7-0.7-1.4,0-2.1-0.7l2.8-2.8c0.7,0.7,0,1.4,0.7,2.1 C35.8,10.3,36.5,9.6,37.2,10.3z"/></svg>