<svg xmlns="http://www.w3.org/2000/svg"  viewBox="0 0 48 48" width="50px" height="50px"><path fill="#ba68c8" d="M6.997,21.154c0.79,0.359,1.754,0.078,2.286-0.898l2.411-4.713l3.802-1.084l-2.206,7.115	c-0.016,0.055-0.017,0.103-0.03,0.157l7.057,1.381l2.027-5.919l1.084,2.919c0.219,0.561,0.747,0.887,1.368,0.887h6.372	c0.937,0,1.795-0.57,1.762-1.514c-0.035-1.006-0.908-1.435-1.795-1.435H26l-1.668-4.953c-0.323-0.874-0.963-1.471-1.791-1.738	c-1.471-0.474-3.066-0.985-4.388-1.334c-0.705-0.13-1.711,0.077-2.569,0.361l-5.411,2.353c-0.443,0.177-0.798,0.443-0.976,0.887	L6.399,19C5.956,19.798,6.291,20.831,6.997,21.154z"/><path fill="#ffb74d" d="M13.386,21.299l-2.546,7.82l-5.903-0.371c-0.966-0.074-1.857,0.669-1.932,1.634	c-0.074,0.966,0.669,1.857,1.634,1.932c0,0,7.24,0.446,7.315,0.446c0.669,0,1.337-0.446,1.634-1.04L17,26"/><path fill="#ffb74d" d="M26.557,28.351L26.557,28.351c0-0.006-0.003-0.01-0.004-0.015c-0.226-0.708-0.65-1.206-0.99-1.486	l-5.271-3.649l0.043-0.144l-7.031-1.524l-0.014,0.042c-0.532,1.862,0.621,3.015,0.975,3.37l8.808,4.975l2.177,7.461	c0.267,0.942,1.248,1.49,2.19,1.223c0.942-0.267,1.49-1.248,1.223-2.19L26.557,28.351z"/><path fill="#5ec08f" d="M23.568,25.466l-3.276-2.265l0.043-0.144l-7.031-1.524l-0.014,0.042	c-0.532,1.862,0.621,3.015,0.975,3.37l6.786,3.833L23.568,25.466z"/><polygon fill="#5ec08f" points="15.075,29.227 18.883,22.73 13.386,21.299 11.412,27.36"/><path fill="#b0bec5" d="M36.6,38L36.6,38h-0.7l0,0L8.3,40l0,0C7,40.1,6,41.2,6,42.5C6,43.9,7.1,45,8.5,45l0,0h28.1l0,0	c1.9,0,3.5-1.6,3.5-3.5C40,39.6,38.5,38.1,36.6,38z"/><path fill="#b0bec5" d="M39,40V23h-3l-4,17H39z"/><path fill="#455a64" d="M40.8,25H31v-2h8.2l1.8-8.2l2,0.4L40.8,25z"/><path fill="#455a64" d="M41,23h-5l4.5-10H44L41,23z"/><path fill="#455a64" d="M36.602,38.011L36.6,38h-0.7l-0.008,0.004L8.264,40.006l0.001,0.017C6.981,40.14,6,41.181,6,42.5	C6,43.9,7.1,45,8.5,45h28.1v-0.01c1.855-0.056,3.4-1.624,3.4-3.49C40,39.635,38.456,38.068,36.602,38.011z M36.5,43h-28	C8.2,43,8,42.8,8,42.5S8.2,42,8.5,42v-0.007L36.023,40H36.5c0.8,0,1.5,0.7,1.5,1.5S37.3,43,36.5,43z"/><path fill="#263238" d="M38,41.5c0,0.8-0.7,1.5-1.5,1.5S35,42.3,35,41.5s0.7-1.5,1.5-1.5S38,40.7,38,41.5z"/><path fill="#ffb74d" d="M22.5,3C24.4,3,26,4.6,26,6.5S24.4,10,22.5,10S19,8.4,19,6.5S20.6,3,22.5,3"/><path fill="#ffb74d" d="M12.322,11.806l-2.147,0.934c-0.443,0.177-0.798,0.443-0.976,0.887L6.399,19	c-0.443,0.798-0.108,1.831,0.598,2.154c0.79,0.359,1.754,0.078,2.286-0.898l2.411-4.713L13.6,15L12.322,11.806z"/><path fill="#ffb74d" d="M31.137,18.051h-5.135l-0.239-0.709l-2.927,1.227l0.593,1.543c0.219,0.561,0.747,0.887,1.368,0.887	h6.372c0.937,0,1.795-0.57,1.762-1.514C32.897,18.479,32.024,18.051,31.137,18.051z"/></svg>