<svg xmlns="http://www.w3.org/2000/svg"  viewBox="0 0 48 48" width="50px" height="50px"><path fill="#ffba57" d="M41 18.2c-.2-.8-1-1.3-1.8-1.1l-7 1.9L26 15c-.2-.1-5-.9-5-.9L8.1 9.1c-.8-.4-1.6 0-2 .7-.3.8 0 1.6.7 2L19 18v18c0 .2 0 .3.1.5l2 8c.2.9 1 1.5 1.9 1.5.2 0 .3 0 .5-.1 1.1-.3 1.7-1.4 1.5-2.4L23 35.8l.4-4 1.7 3.9c.1.2.2.5.4.7l6 7c.4.5 1 .7 1.5.7.5 0 .9-.2 1.3-.5.8-.7.9-2 .2-2.8L28.8 34 26 26v-6.4l5.3 2.2c.2.1.4.2.7.2.1 0 .2 0 .3 0l7.5-2C40.7 19.8 41.2 19 41 18.2zM23.5 5C25.4 5 27 6.6 27 8.5S25.4 12 23.5 12 20 10.4 20 8.5 21.6 5 23.5 5"/><path fill="#e64a19" d="M19,36V26h5l-1,10H19z"/><path fill="#ff754c" d="M35.9,12c-0.4,0-0.8-0.1-1.2-0.2c-1.3-0.5-2.4-1.7-3.1-3.2c-1.2-2.6-0.6-5.4,1.3-6.3 c0.7-0.3,1.6-0.4,2.4-0.1c1.3,0.5,2.4,1.7,3.1,3.2c1.2,2.6,0.6,5.4-1.3,6.3C36.7,11.9,36.3,12,35.9,12z M34.1,4 c-0.1,0-0.3,0-0.4,0.1c-0.7,0.4-1,2-0.3,3.7c0.5,1,1.2,1.9,2,2.1c0.3,0.1,0.6,0.1,0.8,0c0.7-0.4,1-2,0.3-3.7l0,0 c-0.5-1-1.2-1.9-2-2.1C34.4,4,34.2,4,34.1,4z"/><path fill="#ff754c" d="M38.1 10.7H40.1V19.9H38.1z" transform="rotate(-26.565 39.064 15.313)"/><path fill="#b0bec5" d="M8,3v2l4,1V2L8,3z"/><path fill="#455a64" d="M9,4c0,0.6-0.4,1-1,1S7,4.6,7,4s0.4-1,1-1S9,3.4,9,4z"/><path fill="#7e8ccf" d="M26,15c-0.2-0.1-5-0.9-5-0.9l-2-0.8V26h7L26,15L26,15z"/><path fill="#ff754c" d="M19,26l3,3l3.1,6.6l3.7-1.6L26,26H19z"/></svg>