<svg xmlns="http://www.w3.org/2000/svg"  viewBox="0 0 48 48" width="50px" height="50px"><rect width="4" height="8" x="22" y="9" fill="#ff9800"/><path fill="#ffb74d" d="M24,12c2.758,0,5-2.242,5-5s-2.242-5-5-5s-5,2.242-5,5S21.242,12,24,12"/><path fill="#424242" d="M28,1c0,0.77-0.3,1.54-0.76,2.19C26.53,4.24,25.4,6,24.44,6c-1.44,0-1.62,0.55-1.9,1.37L22.004,9 H19.41C19.15,8.39,19,7.71,19,7V6c0-2.761,2.239-5,5-5H28z"/><path fill="#263238" d="M14.821,43.413l5.08-8.772c0.693-1.196,2.224-1.604,3.42-0.912c1.196,0.693,1.604,2.224,0.912,3.42 c-0.041,0.071-0.087,0.142-0.134,0.207l-5.92,8.228c-0.646,0.898-1.897,1.102-2.795,0.456 C14.543,45.437,14.316,44.293,14.821,43.413z"/><path fill="#263238" d="M26.846,30.949l-2.474,5.842c-0.54,1.275-2.012,1.871-3.287,1.331 c-1.152-0.488-1.749-1.736-1.456-2.912l1.526-6.158c0.4-1.613,2.031-2.597,3.645-2.197s2.597,2.031,2.197,3.645 C26.959,30.649,26.904,30.81,26.846,30.949z"/><path fill="#455a64" d="M31.259,33.93l4.048,9.714c0.425,1.021-0.057,2.193-1.078,2.618c-0.959,0.4-2.055-0.01-2.537-0.906 l-4.952-9.286c-0.65-1.22-0.189-2.736,1.031-3.386c1.22-0.65,2.736-0.189,3.386,1.031C31.195,33.784,31.229,33.859,31.259,33.93z"/><path fill="#455a64" d="M26.305,27.079l4.616,6.32c0.816,1.117,0.572,2.685-0.546,3.501c-1.03,0.752-2.442,0.603-3.296-0.3 l-5.384-5.68c-1.142-1.205-1.091-3.108,0.114-4.25c1.205-1.142,3.108-1.091,4.25,0.114C26.144,26.874,26.233,26.982,26.305,27.079 z"/><line x1="27.5" x2="33.562" y1="20.33" y2="23.83" fill="none" stroke="#ff9800" stroke-linecap="round" stroke-linejoin="round" stroke-miterlimit="10" stroke-width="3.5"/><line x1="25" x2="27.5" y1="16" y2="20.33" fill="none" stroke="#ff9800" stroke-linecap="round" stroke-linejoin="round" stroke-miterlimit="10" stroke-width="3.5"/><path fill="#1976d2" d="M26.516,15.125l1.5,2.598l-3.031,1.75l-1.5-2.598c-0.485-0.84-0.199-1.906,0.641-2.391 S26.031,14.285,26.516,15.125z"/><polygon fill="#455a64" points="27,30 21.018,29.123 21,27 27,27"/><path fill="#2196f3" d="M24,13L24,13c-1.657,0-3,1.343-3,3v12h6V16C27,14.343,25.657,13,24,13z"/><g><line x1="19.17" x2="17.905" y1="19.214" y2="26.389" fill="none" stroke="#ffb74d" stroke-linecap="round" stroke-linejoin="round" stroke-miterlimit="10" stroke-width="3.5"/></g><g><line x1="23" x2="19.17" y1="16" y2="19.214" fill="none" stroke="#ffb74d" stroke-linecap="round" stroke-linejoin="round" stroke-miterlimit="10" stroke-width="3.5"/><path fill="#2196f3" d="M24.232,17.322l-2.37,1.989l-2.32-2.765l2.37-1.989c0.766-0.643,1.9-0.544,2.543,0.222 S24.999,16.679,24.232,17.322z"/></g></svg>