<svg xmlns="http://www.w3.org/2000/svg"  viewBox="0 0 48 48" width="50px" height="50px"><path fill="#607d8b" d="M3 9H45V11H3z"/><path fill="#ffba57" d="M34.743,32.895l-6.363-3.196l1.188-7.141l3.854-11.083c0.262-0.787-0.162-1.635-0.948-1.897 c-0.784-0.266-1.636,0.162-1.898,0.947L27,21c0,0,0,1-3,1s-3-1-3-1l-3.577-10.475c-0.261-0.785-1.111-1.213-1.898-0.947 c-0.786,0.262-1.21,1.109-0.948,1.897l3.913,11.251l1.37,8.429L9.646,41.525c-0.814,0.748-0.869,2.012-0.123,2.826 C9.917,44.781,10.456,45,10.998,45c0.482,0,0.967-0.174,1.351-0.525l11.653-10.47c0.005,0,0.009,0,0.014,0L32,36l-0.987,6.752 c-0.137,1.096,0.641,2.096,1.736,2.232C32.833,44.996,32.917,45,33,45c0.993,0,1.856-0.74,1.982-1.752L35.984,35 C36.098,34.098,35.587,33.233,34.743,32.895z"/><path fill="#ffba57" d="M24 14A3 3 0 1 0 24 20A3 3 0 1 0 24 14Z"/><path fill="#e64a19" d="M42 16c0 .553-.447 1-1 1h-1c-.553 0-1-.447-1-1V4c0-.553.447-1 1-1h1c.553 0 1 .447 1 1V16zM6 16c0 .553.447 1 1 1h1c.553 0 1-.447 1-1V4c0-.553-.447-1-1-1H7C6.447 3 6 3.447 6 4V16z"/><path fill="#ff754c" d="M39 16c0 .553-.447 1-1 1h-1c-.553 0-1-.447-1-1V4c0-.553.447-1 1-1h1c.553 0 1 .447 1 1V16zM9 16c0 .553.447 1 1 1h1c.553 0 1-.447 1-1V4c0-.553-.447-1-1-1h-1C9.447 3 9 3.447 9 4V16z"/><g><path fill="#90a4ae" d="M29 9H34V11H29zM14 9H19V11H14z"/></g><path fill="#00acc1" d="M32,36v-4.5l-3.619-1.809l0.682-4.097C27.849,24.888,27,23.325,27,21.5 c0-0.222,0.027-0.435,0.051-0.649L27,21c0,0-0.004,0.491-1.04,0.785C25.778,23.618,24.97,25,24,25s-1.778-1.382-1.96-3.215 C21.004,21.491,21,21,21,21l-0.051-0.149C20.973,21.065,21,21.278,21,21.5c0,1.816-0.841,3.371-2.046,4.082l0.906,5.572 l-3.823,3.882l3.226,3.226l4.739-4.258c0.005,0,0.009,0,0.014,0L32,36z"/><path fill="#0097a7" d="M23.997 32L18.083 37.083 19.262 38.262 24.005 34.002 32 36 32 34.438z"/></svg>