<svg xmlns="http://www.w3.org/2000/svg"  viewBox="0 0 48 48" width="50px" height="50px"><path fill="#90a4ae" d="M22.332,35.688C19.579,33.224,18,29.692,18,26c0-2.666,0.801-5.228,2.317-7.409l1.643,1.141 C20.678,21.577,20,23.744,20,26c0,3.124,1.336,6.112,3.666,8.198L22.332,35.688z"/><polygon fill="#90a4ae" points="43,27 27.662,27 14.373,15.129 16.372,12.892 28.806,24 43,24"/><rect width="37" height="3" x="5" y="27" fill="#607d8b"/><rect width="4" height="10" x="5" y="30" fill="#607d8b"/><rect width="4" height="10" x="38" y="30" fill="#607d8b"/><rect width="6" height="2" x="37" y="39" fill="#607d8b"/><rect width="6" height="2" x="4" y="39" fill="#607d8b"/><circle cx="20" cy="31" r="2" fill="#455a64"/><path fill="#b0bec5" d="M8.819,7.727c0.737-0.825,2.001-0.894,2.824-0.158l16.788,14.726l-2.666,2.982L7.486,9.217 L8.819,7.727z"/><path fill="#b0bec5" d="M31,25c0-1.105,0.895-2,2-2h10c1.105,0,2,0.895,2,2v2H31V25z"/><rect width="2" height="3" x="34" y="31" fill="#90a4ae"/><circle cx="35" cy="30" r="2" fill="#455a64"/></svg>