<svg xmlns="http://www.w3.org/2000/svg"  viewBox="0 0 48 48" width="50px" height="50px"><path fill="#ffe0b2" d="M28,25H16c-2.209,0-4,1.791-4,4c0,2.208,1.791,4,4,4h25v9.5c0,1.381,1.119,2.5,2.5,2.5 s2.5-1.119,2.5-2.5V30.541c0-1.466-1.061-2.716-2.507-2.959L28,25z M6.5,24c2.484,0,4.5,2.016,4.5,4.5S8.984,33,6.5,33 C4.015,33,2,30.984,2,28.5S4.015,24,6.5,24"/><path fill="#90a4ae" d="M36,33H4c-1.104,0-2,0.895-2,2v2h36v-2C38,33.895,37.104,33,36,33"/><path fill="#607d8b" d="M4,37h4v7H4V37z M32,37h4v7h-4V37z"/><path fill="#607d8b" d="M31,43h6v2h-6V43z M3,43h6v2H3V43z"/><path fill="#9575cd" d="M28,25h-1v8h11v-6.334L28,25z"/><path fill="#ff754c" d="M28,25H16c-2.209,0-4,1.79-4,4c0,2.208,1.791,4,4,4h12V25z"/><path fill="#ffe0b2" d="M14.5,26c-1.381,0-2.5,1.119-2.5,2.5s1.119,2.5,2.5,2.5s2.5-1.119,2.5-2.5S15.881,26,14.5,26z"/><path fill="#ffe0b2" d="M16,19h-4v10l5-0.5L16,19z"/><path fill="#f0ca92" d="M16.393,22.73L16,19h-4v3.809C12.65,22.929,13.316,23,14,23C14.822,23,15.621,22.902,16.393,22.73z"/><path fill="#ff754c" d="M14,3c4.97,0,9,4.029,9,9s-4.03,9-9,9c-4.971,0-9-4.029-9-9S9.029,3,14,3"/><path fill="#c93d18" d="M14,5c3.866,0,7,3.133,7,7s-3.134,7-7,7s-7-3.133-7-7S10.134,5,14,5"/><path fill="#b0bec5" d="M14,10c1.104,0,2,0.895,2,2c0,1.106-0.896,2-2,2s-2-0.894-2-2C12,10.895,12.896,10,14,10"/><path fill="#455a64" d="M14,11c0.552,0,1,0.449,1,1s-0.448,1-1,1s-1-0.449-1-1S13.448,11,14,11"/></svg>