<svg xmlns="http://www.w3.org/2000/svg"  viewBox="0 0 48 48" width="50px" height="50px"><path fill="#ff754c" d="M2,38h44v2H2V38z"/><path fill="#ffb74d" d="M9,9c2.2,0,4,1.8,4,4c0,2.2-1.8,4-4,4s-4-1.8-4-4C5,10.8,6.8,9,9,9"/><path fill="#ba68c8" d="M21,38c-1.3,0-2.6-0.6-3.3-1.8l-8-12c-1.2-1.8-0.7-4.3,1.1-5.5c1.8-1.2,4.3-0.7,5.5,1.1l8,12 c1.2,1.8,0.7,4.3-1.1,5.5C22.5,37.8,21.8,38,21,38z"/><path fill="#ffb74d" d="M13,22c-0.9,0-1.7-0.6-1.9-1.5c-0.3-1.1,0.4-2.2,1.5-2.4l7.6-1.9l5.6-4.7c0.8-0.7,2.1-0.6,2.8,0.3 s0.6,2.1-0.3,2.8l-6,5c-0.2,0.2-0.5,0.3-0.8,0.4l-8,2C13.3,22,13.2,22,13,22z"/><path fill="#ab47bc" d="M17.2,21l-3.7,0.9C13.3,22,13.2,22,13,22c-0.9,0-1.7-0.6-1.9-1.5c0-0.1,0-0.3-0.1-0.4 c0,4.3,2.6,3.9,3,3.8l4.4-1.1L17.2,21z"/><path fill="#5ec08f" d="M40.7,21.3c-0.7-1.2-2.2-1.6-3.4-1l-8.7,4.5c-0.2,0.1-0.4,0.3-0.6,0.4l-5.3,4.1l-6.3,5l1.3,1.9 c0.8,1.2,2,1.8,3.3,1.8c0.8,0,1.5-0.2,2.2-0.7c0.1-0.1,0.1-0.1,0.2-0.2c0.2-0.1,0.3-0.2,0.5-0.3l7.4-7.8l8.4-4.3 C40.9,24,41.4,22.5,40.7,21.3z"/></svg>