<svg xmlns="http://www.w3.org/2000/svg"  viewBox="0 0 48 48" width="50px" height="50px"><path fill="#1565c0" d="M7,36c0,4,3,7,7,7c3,0,4.5-1.1,4.5-1.1c1.3-1.6,2.7-3.4,4.5-5.6c0,0,0-7.3-9-7.3C10,29,7,32,7,36z"/><path fill="#90caf9" d="M42,17c0-2,0-3,0-5c0-3.8-5-8-11-5c0,0-18.4,19.4-22.5,23.2c0,0,11.5-6.2,14.5,6.1l1,6.7L42,17z"/><path fill="#2196f3" d="M14,44c-6.3,0-8-5.2-8-7.9c0-2.8,1.8-8.1,8.5-8.1c5.9,0,9.5,3.7,9.5,10v3.9c0,0.6-0.4,1-1,1 s-1-0.4-1-1V38c0-5.2-2.7-8-7.5-8C8.2,30,8,35.5,8,36.1c0,0.6,0.2,5.9,6,5.9c0.4,0,4-0.2,4-5c0-1.7-1.3-3-3-3c-0.3,0-3,0.1-3,2.6 c0,1.4,0.8,1.4,1,1.4c0.4,0,1-0.2,1-1c0-0.6,0.4-1,1-1s1,0.4,1,1c0,2.2-1.8,3-3,3s-3-0.9-3-3.4c0-3.1,2.6-4.6,5-4.6 c2.8,0,5,2.2,5,5C20,42.5,16.1,44,14,44z"/><path fill="#2196f3" d="M22,41h2v2h-2V41z"/><path fill="#455a64" d="M32.8 14.2c1.5.9 3.2 2.6 3.2 5.8v5.7l0 0 3-4.3c.1-3.7.3-8-4.1-10.6-1-.6-4.1-1.5-6.6-.9-1 1.1-2.2 2.4-3.6 3.8C27.2 12.9 30.6 12.8 32.8 14.2zM29 35.8l3-4.3c0-.1 0-1.4 0-1.4l0 0c-.1-2.6 0-6-4-8.9-1.1-.8-5.6-2.7-9.2-1.3-1.2 1.3-2.4 2.5-3.6 3.7 2.8-1.5 7.4-1.4 10.9 1.2 1.5 1.1 2.9 3.3 2.9 7V35.8z"/></svg>