<svg xmlns="http://www.w3.org/2000/svg"  viewBox="0 0 48 48" width="50px" height="50px"><path fill="#c5cae9" d="M7 21h15v2H7V21zM7 16h20v2H7V16zM7 26h19v2H7V26z"/><path fill="#f9a825" d="M19,43c-0.6,0-1.1-0.2-1.5-0.7c-0.7-0.8-0.7-2.1,0.2-2.8l9-8c0.8-0.7,2.1-0.7,2.8,0.2 c0.7,0.8,0.7,2.1-0.2,2.8l-9,8C19.9,42.8,19.5,43,19,43z"/><path fill="#ffb74d" d="M37 6c2.2 0 4 1.8 4 4 0 2.2-1.8 4-4 4s-4-1.8-4-4C33 7.8 34.8 6 37 6M39.5 26h-7c-.8 0-1.5-.7-1.5-1.5L30 18v-1l-5.9-5h-6.4c-.8.1-1.6-.5-1.7-1.3-.1-.8.5-1.6 1.3-1.7l7 0c.4 0 .7 0 1 .2l6 4c.2.1 1.8 1.6 1.8 1.6.2.2.9 1.8.9 2.1v6h5.5c.8 0 1.5.7 1.5 1.5S40.3 26 39.5 26zM28 35H17c-1.1 0-2-.9-2-2s.9-2 2-2h7.5l-4.8-6.5 5.1-3.5 5 11c.4.6.4 1.4 0 2C29.4 34.6 28.7 35 28 35z"/><path fill="#ffb74d" d="M22.5,26c-1.1,0-2.1-0.5-2.8-1.4c-1.2-1.5-0.8-3.7,0.7-4.9l7.8-5.8c1.5-1.2,3.7-0.8,4.9,0.7 s0.8,3.7-0.7,4.9l-7.8,5.8C24,25.8,23.2,26,22.5,26z"/><path fill="#ff66a1" d="M30.5,20.9l3.5-2.6V17c0,0,0.2-1.7-0.7-2.6c-1.1-1.1-3.2-1.9-3.2-1.9l-9.7,7.2 c-1.5,1.2-1.9,3.4-0.7,4.9c0.7,0.9,1.7,1.4,2.8,1.4c0.7,0,1.5-0.2,2.1-0.7L30.5,20.9L30.5,20.9z"/><path fill="#546e7a" d="M19.8,24.7l4.7,6.3h4.8l-3.1-6.8l-3.8-5.9l-1.9,1.4c-1.5,1.2-1.9,3.4-0.7,4.9 C19.7,24.6,19.8,24.7,19.8,24.7z"/></svg>