<svg xmlns="http://www.w3.org/2000/svg"  viewBox="0 0 48 48" width="50px" height="50px"><path fill="#ffba57" d="M27.835,14.618l-7.224,4.265c-0.345,0.204-0.789,0.108-1.019-0.221l-1.313-1.876l5.388-4.721	c1.209-1.06,3.059-0.895,4.062,0.361l0.414,0.519C28.569,13.48,28.424,14.27,27.835,14.618z"/><path fill="#ffba57" d="M32.287,34.484l3.349,9.2c0.378,1.038,1.525,1.573,2.563,1.195h0	c1.038-0.378,1.573-1.525,1.195-2.563l-3.653-10.038l-2.921,1.063C32.358,33.509,32.119,34.021,32.287,34.484z"/><path fill="#ffba57" d="M29.75,24.218l2.273,8.818l0.184,1.151c0.052,0.325,0.331,0.564,0.66,0.566L36,34.766V24.218H29.75z"/><polygon fill="#2d4c5c" points="29.083,21.708 32,33 36,33 36,23.162"/><path fill="#00acc1" d="M33.438,15.869l-1.17-1.625c-1.339-1.859-3.485-3.23-5.773-3.244	c-1.146-0.007-1.908,0.286-2.664,0.921l-3.125,2.739l2.063,2.947l2.674-1.581l3.949,5.596v2.705H36v-0.35	C36,21.076,35.105,18.245,33.438,15.869z"/><rect width="5" height="24" x="9" y="21" fill="#9fa8da"/><path fill="#ffba57" d="M23.907,20.122l-11.506-3.083c-1.067-0.286-2.164,0.347-2.449,1.414l0,0	c-0.286,1.067,0.347,2.164,1.414,2.449l11.506,3.083L23.907,20.122z"/><path fill="#546e7a" d="M22.472,23.874l1.035-3.864L36,23.179v1.942c0,2.361-2.452,3.922-4.591,2.924L22.472,23.874z"/><path fill="#ffba57" d="M22,3c2.2,0,4,1.8,4,4s-1.8,4-4,4s-4-1.8-4-4S19.8,3,22,3"/><path fill="#f9a825" d="M11.926,18.496v0.008c0,0.826,0.67,1.496,1.496,1.496h5.437c0.601,0,1.116-0.357,1.354-0.868	l-7.421-1.988C12.281,17.382,11.926,17.896,11.926,18.496z"/><path fill="#ffba57" d="M20.037,19h-5.611c-0.828,0-1.5-0.672-1.5-1.5v0c0-0.828,0.672-1.5,1.5-1.5h5.476	c0.828,0,1.5,0.672,1.5,1.5v0.135C21.402,18.389,20.791,19,20.037,19z"/></svg>