<svg xmlns="http://www.w3.org/2000/svg"  viewBox="0 0 48 48" width="50px" height="50px"><path fill="#ffe0b2" d="M34.42,19.48c-0.06,0.17-0.14,0.33-0.25,0.46l-4,5c-0.52,0.64-1.46,0.75-2.11,0.23 c-0.64-0.52-0.75-1.46-0.23-2.11l2.43-3.04c-0.4-0.07-0.81-0.15-1.21-0.23c-1.4-0.26-2.8-0.53-4.2-0.79 c-0.62,0.03-1.23,0.05-1.85,0c-0.12-0.01-0.25-0.03-0.36-0.07c-0.92-0.24-1.56-1.11-1.48-2.09c0.03-0.41,0.19-0.78,0.43-1.08 C21.92,15.33,22.428,15,23,15c1,0,1.231,0.016,2,0l0.17,0.01c0.11,0,0.22,0.02,0.32,0.05c1.46,0.46,2.93,0.91,4.4,1.37 c1.16,0.35,2.32,0.72,3.47,1.11l0.12,0.04C34.27,17.85,34.69,18.7,34.42,19.48z"/><path fill="#ffe0b2" d="M16,40c-1.104,0-2-0.896-2-2v-8c0-1.104,0.896-2,2-2h10c1.104,0,2,0.896,2,2s-0.896,2-2,2h-8v6 C18,39.104,17.104,40,16,40z"/><path fill="#ffe0b2" d="M18.98,6c-2.2,0-4,1.8-4,4s1.8,4,4,4s4-1.8,4-4S21.18,6,18.98,6z M23.48,15 c-0.45,0-2.19,0.68-3.72,1.39h-0.01c-0.69,0.8-1.06,1.86-0.95,2.97c0,0,0,0.01,0,0.02l0.68,1.72l2.19,6.05 c0.04,0.12,0.09,0.23,0.12,0.32L22,28l8.18,11.1c0.4,0.6,1,0.9,1.7,0.9h9.1c1.1,0,2-0.9,2-2s-0.9-2-2-2h-7.978L28.78,25.5l-2.8-7 l0.06-0.01L23.48,15z"/><path fill="#546e7a" d="M21.997,28.009l7.62,10.34L33.002,36l-4.005-9.991L21.997,28.009z"/><path fill="#00acc1" d="M29.89,16.43c-1.085-0.34-1.892-0.706-2.828-1.06C26.4,15.119,25.693,15,24.985,15H23h-0.22 c-1.24,0-2.31,0.55-3.02,1.39h-0.01c-0.69,0.8-1.06,1.86-0.95,2.97c0,0,0,0.01,0,0.02c0.03,0.35,0.11,0.71,0.25,1.06 c0.99,2.56,2.08,5.34,2.62,6.71c0.04,0.12,0.09,0.23,0.12,0.32C21.93,27.81,22,28,22,28l7-2l-2.648-6.717 c0.899,0.17,1.798,0.34,2.698,0.507L29.89,16.43z"/><polygon fill="#2d4c5c" points="16,28 18,32 25,32 22,28"/></svg>