<svg xmlns="http://www.w3.org/2000/svg"  viewBox="0 0 48 48" width="50px" height="50px"><path fill="#90a4ae" d="M25,6c-1.654,0-3-1.346-3-3s1.346-3,3-3s3,1.346,3,3S26.654,6,25,6z M25,2c-0.552,0-1,0.448-1,1	s0.448,1,1,1s1-0.448,1-1S25.552,2,25,2z"/><path fill="#f44336" d="M30,46H20c-1.105,0-2-0.895-2-2V15c0-1.105,0.895-2,2-2h10c1.105,0,2,0.895,2,2v29	C32,45.105,31.105,46,30,46z"/><rect width="14" height="4" x="18" y="38" fill="#37474f"/><rect width="14" height="4" x="18" y="19" fill="#37474f"/><rect width="18" height="2" x="16" fill="#90a4ae"/><path fill="#37474f" d="M25.531,3.826C25.375,3.927,25.2,4,25,4c-0.2,0-0.376-0.074-0.532-0.175L20,12.801V16h2v-2.729	l3.002-6.031L28,13.236V16h2v-3.236L25.531,3.826z"/></svg>