<svg xmlns="http://www.w3.org/2000/svg"  viewBox="0 0 48 48" width="50px" height="50px"><path fill="#3949ab" d="M32.426,29H17.874C16.839,29,16,30.212,16,31.706V41.5c0,1.495,0.854,2.5,1.889,2.5h14.222L34,35.818	L32.426,29z"/><path fill="#283593" d="M36,41.833v-8.667C36,31.871,35.136,31,34.071,31h-4.747l1.62,5.909L29,44h5.071	C35.136,44,36,43.129,36,41.833z"/><path fill="#283593" d="M39,19c0,0.667-27,0-27,0l-1-1H3c0,0,3.155,8.155,7,12c3,3,6,3,6,3h20c2.204-1.469,3-2.132,3-5.632	V19z"/><path fill="#5c6bc0" d="M35.036,33H16c-2.209,0-4-1.791-4-4v0c0-2.209,1.791-4,4-4h19.036c2.209,0,4,1.791,4,4v0	C39.036,31.209,37.245,33,35.036,33z"/><path fill="#5c6bc0" d="M35,7.039v5.552c0,0.576-0.367,0.955-1,0.955s-1-0.379-1-0.955V6.267 c-1.414-0.455-3.085-0.819-5-1.039v7.363c0,0.576-0.367,0.955-1,0.955s-1-0.379-1-0.955V5.057C25.355,5.022,24.693,5,24,5h-3v7.591 c0,0.576-0.367,0.955-1,0.955c-0.632,0-1-0.379-1-0.955V5h-5.043C12.876,5,12,5.867,12,6.937v12.245C12,21.291,13.727,23,15.857,23 h19.286C37.273,23,39,21.291,39,19.182v-8.455C39,9.743,37.659,8.253,35,7.039z"/><path fill="#283593" d="M34,13.545c0.633,0,1-0.379,1-0.955V7.039c-0.601-0.274-1.264-0.535-2-0.772v6.324 C33,13.167,33.367,13.545,34,13.545z"/><path fill="#283593" d="M27,13.545c0.633,0,1-0.379,1-0.955V5.228c-0.641-0.074-1.303-0.134-2-0.171v7.534 C26,13.167,26.367,13.545,27,13.545z"/><path fill="#283593" d="M20,13.545c0.633,0,1-0.379,1-0.955V5h-2v7.591C19,13.167,19.368,13.545,20,13.545z"/><path fill="#9fa8da" d="M30,39c0,2.088-1.068,3.925-2.686,5h2.926c1.099-1.37,1.76-3.107,1.76-5c0-1.459-0.397-2.822-1.079-4	h-2.458C29.416,36.062,30,37.461,30,39z"/><rect width="16" height="2" x="16" y="33" fill="#283593"/></svg>