<svg xmlns="http://www.w3.org/2000/svg"  viewBox="0 0 48 48" width="50px" height="50px"><path fill="#ffba57" d="M33 9H21.004c-1.104 0-2 .896-2 2s.896 2 2 2H33V9zM21.003 45.001c-.86 0-1.654-.56-1.915-1.427l-2.939-9.8L10 23h6.004l3.756 9.042c.066.122.12.25.16.384l3 10c.317 1.058-.283 2.173-1.342 2.49C21.387 44.973 21.193 45.001 21.003 45.001z"/><path fill="#5f6ec4" d="M16.004,23H10l5.991,10l3.929-0.574c-0.04-0.134-0.094-0.262-0.16-0.384L16.004,23z"/><path fill="#f9a825" d="M20.553,12.945C20.699,12.978,20.848,13,21.004,13h3.459c0.954-1.063,1.541-2.463,1.541-4h-2C24.004,11.021,22.499,12.675,20.553,12.945z"/><path fill="#ff754c" d="M33.004,13c0,0,1.459,1,3,1c1.541,0,3-0.35,3-2v-2c0-1.65-1.229-2-3-2c-1.771,0-3,1-3,1s-1,0.35-1,2v0C32.004,12.65,33.004,13,33.004,13z"/><path fill="#e64a19" d="M31.004 9H33.004000000000005V13H31.004z"/><path fill="#ffba57" d="M11.005,45.001c-0.19,0-0.384-0.027-0.575-0.085c-1.059-0.317-1.659-1.433-1.342-2.49l2.883-9.61L9.004,24H16v8.779c0.03,0.268-0.003,0.538-0.08,0.795l-3,10C12.659,44.441,11.865,45.001,11.005,45.001z"/><path fill="#7e8ccf" d="M21.41,9.188c-1.118-1.579-3.302-1.953-4.879-0.837c-0.622,0.439-6.114,4.578-7.447,14.386c-0.015,0.108-0.006,0.213-0.011,0.32c-0.046,0.31-0.086,0.383-0.059,0.758C9.002,23.876,8.997,23.937,9.004,24l0.038,0.114c0.004,0.033,0.006,0.059,0.01,0.095c0,0,0.017-0.001,0.02-0.002L11.971,33H16l0.004-10c0.721-6.095,4.804-9.851,5-10C22.551,11.876,22.516,10.754,21.41,9.188z"/><path fill="#e5d9c5" d="M9.857,19c-0.259,0.929-0.476,1.932-0.65,3h6.952c0.192-1.041,0.479-2.002,0.818-2.882c0.01-0.039,0.014-0.079,0.027-0.118H9.857z"/><path fill="#ffba57" d="M21.003,22c-0.383,0-0.769-0.109-1.108-0.336l-6-4c-0.919-0.613-1.167-1.854-0.555-2.773c0.613-0.919,1.854-1.168,2.773-0.555l4.503,3.002l2.547-2.86l3.076,2.557l-3.697,4.243C22.148,21.751,21.579,22,21.003,22z"/><path fill="#ff754c" d="M26.239,17.035c0,0,1.704-0.472,2.697-1.651s1.664-2.521,0.402-3.583l-1.53-1.288c-1.262-1.062-2.322-0.347-3.462,1.007s-1.167,2.939-1.167,2.939s-0.376,0.99,0.886,2.053l0,0C25.327,17.575,26.239,17.035,26.239,17.035z"/><path fill="#e64a19" d="M23.065 14.513H25.065V18.512999999999998H23.065z" transform="rotate(-49.917 24.065 16.513)"/><path fill="#ffba57" d="M20.004 5A4 4 0 1 0 20.004 13A4 4 0 1 0 20.004 5Z"/></svg>