<svg xmlns="http://www.w3.org/2000/svg"  viewBox="0 0 48 48" width="50px" height="50px"><path fill="#f9a825" d="M37.387,24.699l4.363-8.887c0.646-1.316,0.1-2.906-1.215-3.551c-1.322-0.648-2.907-0.101-3.551,1.215l-4.713,9.601c-0.23,0.467-0.316,0.99-0.25,1.503l1.416,11.1c0.147,1.162,1.027,2.053,2.117,2.268c0.273,0.055,0.56,0.066,0.851,0.029c1.454-0.186,2.48-1.514,2.296-2.967L37.387,24.699z"/><path fill="#e64a19" d="M37.73,24l4.02-8.188c0.646-1.316,0.1-2.906-1.215-3.551c-1.322-0.648-2.907-0.101-3.551,1.215l-4.713,9.602c-0.143,0.291-0.224,0.604-0.253,0.922H37.73z"/><path fill="#e64a19" d="M17.063 28.51H28.136V30.477H17.063z" transform="scale(-1) rotate(45.004 71.191 -54.55)"/><path fill="#ffb74d" d="M14.5,8c2.485,0,4.5,2.016,4.5,4.5S16.985,17,14.5,17c-2.485,0-4.5-2.016-4.5-4.5S12.015,8,14.5,8"/><path fill="#ffba57" d="M44.987,13.411c0.004-0.034,0.012-0.072,0.012-0.102c0-3.008-2.3-5.309-5.308-5.309H23.593c-1.947,0-3.539,1.594-3.539,3.539c0,0.715,0.138,1.385,0.377,1.999c0.035,0.245,0.118,0.487,0.262,0.708l5.591,8.354l-5.534,5.533c-0.691,0.691-0.691,1.813,0,2.504c0.345,0.344,0.798,0.518,1.251,0.518c0.452,0,0.905-0.174,1.251-0.518l6.546-6.547c0.463-0.462,0.611-1.126,0.44-1.73l0.013,0.015L28.368,17h9.08l-1.269,9.387c-0.003,0.022-0.007,0.045-0.009,0.067l-0.016,0.124c0,0,0.008-0.01,0.012-0.015c-0.022,0.34,0.016,0.682,0.124,1.007l3.539,10.615C40.197,39.297,41.234,40,42.346,40c0.278,0,0.561-0.044,0.84-0.137c1.39-0.463,2.14-1.965,1.677-3.355l-3.286-9.861l3.333-12.5C44.975,13.9,44.991,13.654,44.987,13.411z"/><path fill="#ff754c" d="M27.644 29.535l1.838 1.836c.391.393.391 1.025 0 1.416l-3.589 3.589c-.392.391-1.025.391-1.415 0l-1.838-1.837c-.392-.391-.392-1.024 0-1.415l3.59-3.589C26.62 29.145 27.253 29.145 27.644 29.535M20.082 21.908l1.838 1.838c.391.391.391 1.023 0 1.414l-3.589 3.59c-.392.391-1.025.391-1.415 0l-1.838-1.838c-.392-.389-.392-1.025 0-1.415l3.59-3.589C19.058 21.518 19.69 21.518 20.082 21.908"/><path fill="#607d8b" d="M3 38H9V40H3z"/><path fill="#607d8b" d="M3 19H7V40H3z"/><path fill="#90a4ae" d="M3,20.971l8.887-4.371l-0.012-0.027c-0.766-1.725-2.813-2.467-4.506-1.635L3,17.08V20.971z"/><path fill="#ff754c" d="M36.366,25h5.649l2.894-10.854c0.066-0.247,0.082-0.493,0.077-0.736c0.004-0.034,0.012-0.072,0.012-0.102c0-3.008-2.3-5.309-5.308-5.309H36v9h1L36.366,25z"/><path fill="#7e8ccf" d="M23.593,8c-1.947,0-3.539,1.594-3.539,3.539c0,0.409,0.056,0.799,0.139,1.176C20.656,11.722,21.953,11,23.5,11c1.682,0,3.084,0.848,3.421,1.977C26.959,12.983,28.368,17,28.368,17H37V8H23.593z"/><path fill="#606fc4" d="M28.368,17H37v-2h-9.338C28.018,16.002,28.368,17,28.368,17z"/></svg>