<svg xmlns="http://www.w3.org/2000/svg"  viewBox="0 0 48 48" width="50px" height="50px"><path fill="#f9a825" d="M35,16c-0.1,0-0.3,0-0.4,0l-9-2c-1.1-0.2-1.8-1.3-1.5-2.4s1.3-1.8,2.4-1.5l9,2 c1.1,0.2,1.8,1.3,1.5,2.4C36.7,15.4,35.9,16,35,16z"/><path fill="#ffb74d" d="M31 35c2.2 0 4 1.8 4 4s-1.8 4-4 4-4-1.8-4-4S28.8 35 31 35M20 19c-.5 0 2.4 6.4 2 6-.8-.8-5.2-6.4-3.4-9.3S25 9 25 9c.4-.4 1.6-.9 2-1l8.8-1c1.1-.1 2.1.7 2.2 1.8.1 1.1-.7 2.1-1.8 2.2L28 12l-6.6 9.4C21 21.8 20.5 19 20 19z"/><path fill="#2196f3" d="M25,36c-0.8,0-1.6-0.2-2.3-0.7c-0.4-0.3-8.6-8.9-4.6-18.6c0.8-2,1.8-3.1,4-2.5 c2.1,0.6,3.4,2.8,2.8,4.9c-1.6,5.5,2.1,9.3,2.5,9.7c1.8,1.3,2.2,3.7,1,5.6C27.5,35.4,26.3,36,25,36z"/><path fill="#5ec08f" d="M25,36c-0.8,0-1.6-0.2-2.3-0.7c-0.4-0.3-8.9-8.6-4.6-18.6c0.9-2,1.8-3.1,4-2.5 c2.1,0.6,3.4,2.8,2.8,4.9c-1.6,5.5,2.1,9.3,2.5,9.7c1.8,1.3,2.2,3.7,1,5.6C27.5,35.4,26.3,36,25,36z"/><path fill="#607d8b" d="M41,7h2v36h-2V7z"/><path fill="#e3d7c3" d="M12 19c0 0-.1 0-.1 0-.5-.1-.9-.6-.9-1.1 1.1-7.7 8.3-10.7 8.6-10.8.5-.2 1.1 0 1.3.6.2.5 0 1.1-.6 1.3-.1 0-6.5 2.7-7.4 9.2C12.9 18.6 12.5 19 12 19zM10 13c-.1 0-.3 0-.4-.1-.5-.2-.7-.8-.5-1.3 1.5-3.3 4.2-5.3 4.3-5.4.4-.3 1.1-.2 1.4.2.3.4.2 1.1-.2 1.4 0 0-2.4 1.8-3.7 4.6C10.7 12.8 10.4 13 10 13z"/><path fill="#41a571" d="M23,31c0,0-5-3.6-6-7.4c0.1,2.1,0.6,3.9,1.3,5.6c0,0,0,0,0,0L23,31z"/><path fill="#ffb74d" d="M27,34c0-1.1-0.9-2-2-2l-10.1-4.8c-0.5-0.3-1.1-0.3-1.7-0.1l-7,3c-1,0.4-1.5,1.6-1.1,2.6 c0.4,1,1.6,1.5,2.6,1.1l6.1-2.6l7.9,4c0.3,0.1,1.9,0.8,3.2,0.8c0,0,0,0,0,0c0,0,0,0,0,0c0,0,0,0,0,0c0.1,0,0.2,0,0.3,0 C26.2,35.8,27,35,27,34z"/><path fill="#9575cd" d="M24.7,19.6c0-0.2,0.1-0.4,0.1-0.5c0.2-0.8,0.2-1.7-0.1-2.4L28,12l-3-3c0,0-4.7,3.8-6.4,6.7 c-0.1,0.2-0.2,0.4-0.3,0.6c-0.1,0.1-0.1,0.2-0.2,0.4c0,0.1,0,0.1-0.1,0.2L24.7,19.6z"/></svg>