<svg xmlns="http://www.w3.org/2000/svg"  viewBox="0 0 48 48" width="50px" height="50px"><path fill="#2196f3" d="M24,41H4.062C2.923,41,2,40.077,2,38.938V9.062C2,7.923,2.923,7,4.062,7H24V41z"/><path fill="#2196f3" d="M43.938,41H24V7h19.938C45.077,7,46,7.923,46,9.062v29.877C46,40.077,45.077,41,43.938,41z"/><path fill="#e53935" d="M2,13h3v9H2c-0.6,0-1-0.4-1-1v-7C1,13.4,1.4,13,2,13z"/><path fill="#fdd835" d="M46,29h-3v-9h3c0.6,0,1,0.4,1,1v7C47,28.6,46.6,29,46,29z"/><path fill="#388e3c" d="M46,36h-3v-9h3c0.6,0,1,0.4,1,1v7C47,35.6,46.6,36,46,36z"/><path fill="#efebe9" d="M24,9H5c-0.552,0-1,0.448-1,1v28c0,0.552,0.448,1,1,1h19V9z"/><path fill="#efebe9" d="M43,9H24v30h19c0.552,0,1-0.448,1-1V10C44,9.448,43.552,9,43,9z"/><rect width="2" height="30" x="23" y="9" fill="#d7ccc8"/><path fill="#b0bec5" d="M27,37h-6c-0.6,0-1-0.4-1-1l0,0c0-0.6,0.4-1,1-1h6c0.6,0,1,0.4,1,1l0,0C28,36.6,27.6,37,27,37z M27,29h-6c-0.6,0-1-0.4-1-1l0,0c0-0.6,0.4-1,1-1h6c0.6,0,1,0.4,1,1l0,0C28,28.6,27.6,29,27,29z M27,21h-6c-0.6,0-1-0.4-1-1l0,0	c0-0.6,0.4-1,1-1h6c0.6,0,1,0.4,1,1l0,0C28,20.6,27.6,21,27,21z M27,13h-6c-0.6,0-1-0.4-1-1l0,0c0-0.6,0.4-1,1-1h6c0.6,0,1,0.4,1,1	l0,0C28,12.6,27.6,13,27,13z"/><path fill="#e57373" d="M44.617,44.952c0.331-0.154,0.47-0.559,0.308-0.906l-0.495-1.073l-3.378,1.563l0.496,1.072 c0.161,0.347,0.561,0.505,0.891,0.351L44.617,44.952"/><path fill="#ff9800" d="M40.35,43.013l-6.699-14.48l3.378-1.563l6.699,14.48L40.35,43.013z"/><path fill="#b0bec5" d="M43.677,41.344l0.781,1.689l-3.379,1.562l-0.781-1.689L43.677,41.344z"/><path fill="#ffc107" d="M37.028,26.971l-2.996-2.044l-0.382,3.606L37.028,26.971z"/><path fill="#37474f" d="M35.546,25.96l-1.514-1.033l-0.194,1.823L35.546,25.96z"/></svg>