<svg xmlns="http://www.w3.org/2000/svg"  viewBox="0 0 48 48" width="50px" height="50px"><path fill="#78909c" d="M24,46C14.626,46,7,35.381,7,22.327l0.006-0.336C7.011,21.442,7.457,21,8.006,21h2.903 c0.553,0,1,0.447,1,1s-0.447,1-1,1H9.007C9.254,34.64,15.885,44,24,44s14.746-9.36,14.993-21h-2.629c-0.553,0-1-0.447-1-1 s0.447-1,1-1h3.63c0.549,0,0.995,0.442,1,0.991L41,22.327C41,35.381,33.374,46,24,46z"/><path fill="#ffba57" d="M37.641,23.859L37.641,23.859c0.627-0.55,0.684-1.506,0.128-2.127l-7.238-8.071 C29.583,12.604,28.229,12,26.809,12H24v4h2.809c0.283,0,0.555,0.121,0.744,0.332l8.082,7.499 C36.197,24.353,37.064,24.365,37.641,23.859z"/><path fill="#ffba57" d="M10.359,23.859L10.359,23.859c-0.627-0.55-0.684-1.506-0.128-2.127l7.238-8.071 C18.417,12.604,19.771,12,21.191,12H24v4h-2.809c-0.283,0-0.555,0.121-0.744,0.332l-8.082,7.499 C11.803,24.353,10.936,24.365,10.359,23.859z"/><path fill="#ffb74d" d="M24,3c1.925,0,3.5,1.575,3.5,3.5S25.925,10,24,10s-3.5-1.575-3.5-3.5S22.075,3,24,3"/><path fill="#7e8ccf" d="M26.6,12h-5.2L19,17.75L19.5,26l4.5-1l4.5,1l0.448-8.25L26.6,12z"/><path fill="#ffb74d" d="M24.1,23.08L24,24.96L23.66,31l-0.578,10.517C23.036,42.349,22.348,43,21.515,43h0	c-0.845,0-1.538-0.669-1.568-1.514L19.58,31l-0.28-7.92H24.1z"/><path fill="#ffb74d" d="M28.64,23.08L28.28,31l-0.209,4.474C28.031,36.328,27.327,37,26.473,37h0	c-0.832,0-1.526-0.638-1.595-1.467L24.5,31L24,24.96l-0.16-1.88H28.64z"/><polygon fill="#ff754c" points="28.64,23.08 28.28,31 24.5,31 24,24.96 23.66,31 19.58,31 19.3,23.08"/></svg>