<svg xmlns="http://www.w3.org/2000/svg"  viewBox="0 0 48 48" width="50px" height="50px"><path fill="#5c6bc0" d="M45,25c0-11.598-9.402-21-21-21S3,13.402,3,25c0,3.6,0.909,6.986,2.505,9.947h36.991C44.091,31.986,45,28.6,45,25z"/><path fill="#3f51b5" d="M24,46c7.998,0,14.949-4.473,18.495-11.053H5.505C9.051,41.527,16.002,46,24,46z"/><path fill="#ffa726" d="M24,4c-0.372,0-0.735,0.036-1.103,0.056c0.179,6.89,0.615,21.381,1.498,24.768C27.141,30.062,30.021,21.309,30,19c-1.143-0.834-2-2.304-2-4.167c0-2.666,0.199-7.551,0.334-10.38C26.935,4.159,25.486,4,24,4z"/><path fill="#cfd8dc" d="M25.2 38c.129 0 .221 0 .366 0 3.107 0 1.009-4.149 4.588-9.939C31.805 25.391 33 25.257 33 22.614 33 20.322 30 19 30 19s-6 7.294-6 12.648C24 33.547 24.04 38 25.2 38zM28 14.833c0-.175.002-.346.002-.519l-4.662 3.153.248 2.269 4.61-3.429C28.074 15.849 28 15.359 28 14.833z"/><path fill="#eceff1" d="M20.453,38c0.067,0,0.336,0,0.418,0C24.317,38,25,32.396,25,27c0-3.412-7-3.294-7,0C18,33.376,18.494,38,20.453,38z"/><path fill="#ffb74d" d="M21.5,30c1.933,0,3.5-1.506,3.5-3.5s-1-7.41-1-8.969c0-0.952,0.543-8.946,0.872-13.487C24.581,4.032,24.295,4,24,4c-2.075,0-4.074,0.312-5.967,0.873C18.38,9.158,19,16.196,19,17.5c0,1.983-1,6.215-1,9C18,28.455,19.567,30,21.5,30z"/><path fill="#eceff1" d="M18.869,15c0.058,0.81,0.1,1.496,0.119,2h5.029c0.021-0.474,0.061-1.166,0.114-2H18.869z"/><path fill="#cfd8dc" d="M24.711,23.408L18.883,19c-0.057,0.482-0.127,0.996-0.209,1.549l6.251,4.701C24.872,24.698,24.797,24.07,24.711,23.408z"/><path fill="#eceff1" d="M24.311,20.488c-0.08-0.588-0.152-1.139-0.207-1.622l-5.893,4.903c-0.089,0.713-0.154,1.4-0.185,2.043L24.311,20.488z"/></svg>