<svg xmlns="http://www.w3.org/2000/svg"  viewBox="0 0 48 48" width="50px" height="50px"><path fill="#ffba57" d="M35.5 22.001c2.486 0 4.5 2.014 4.5 4.5s-2.014 4.5-4.5 4.5-4.5-2.014-4.5-4.5S33.014 22.001 35.5 22.001M9.827 27.821l9.452-4.297 2.593 5.753L9.002 37h24.288L21.664 19.892c-.543-.816-1.601-1.119-2.491-.711l-11 5c-1.006.457-1.45 1.643-.993 2.648C7.637 27.833 8.825 28.278 9.827 27.821z"/><path fill="#7e8ccf" d="M44,36.001c-3,0-4-2-4-2s-1,2-4,2s-4-2-4-2s-1,2-4,2s-4-2-4-2s-1,2-4,2s-4-2-4-2s-1,2-4,2s-4-2-4-2s-1,2-4,2v8h40V36.001z"/><path fill="#c5cae9" d="M44,38.001c-3,0-4-2-4-2s-1,2-4,2s-4-2-4-2s-1,2-4,2s-4-2-4-2s-1,2-4,2s-4-2-4-2s-1,2-4,2s-4-2-4-2s-1,2-4,2v6h40V38.001z"/></svg>