<svg xmlns="http://www.w3.org/2000/svg"  viewBox="0 0 48 48" width="50px" height="50px"><path fill="#90a4ae" d="M36.585,26.751L24,31l-12.585-4.249c-1.229-0.415-1.778-1.767-1.16-2.853L22.123,3.06c0.805-1.413,2.949-1.413,3.753,0l11.868,20.838C38.363,24.984,37.813,26.336,36.585,26.751z"/><path fill="#b0bec5" d="M24,2v29l-12.589-4.253c-1.228-0.416-1.777-1.759-1.152-2.852L22.126,3.063C22.525,2.348,23.268,2,24,2z"/><path fill="#78909c" d="M26 32L22 32 24 23z"/><path fill="#424242" d="M21 32H27V36H21z"/><path fill="#e64a19" d="M25,46h-2c-1.105,0-2-0.895-2-2v-8h6v8C27,45.105,26.105,46,25,46z"/></svg>