<svg xmlns="http://www.w3.org/2000/svg"  viewBox="0 0 48 48" width="50px" height="50px"><path fill="#bbdefb" d="M30,44v-4.6l2.6,0.5c2.9,0.6,5.6-1.5,5.8-4.4L39,29l2.9-1.2c1-0.4,1.4-1.6,0.8-2.6L39,19	c-0.6-7.6-4.9-15-16-15C11.6,4,6,12.4,6,21c0,3.6,1.3,6.9,3.3,9.6c1.8,2.5,2.7,5.5,2.7,8.5V44H30z"/><line x1="25.5" x2="20.4" y1="13.8" y2="29" fill="none" stroke="#3f51b5" stroke-miterlimit="10" stroke-width="2"/><polyline fill="none" stroke="#3f51b5" stroke-miterlimit="10" stroke-width="2" points="17.3,16.7 13.2,21.5 17.2,26.2"/><polyline fill="none" stroke="#3f51b5" stroke-miterlimit="10" stroke-width="2" points="28.7,26.2 32.8,21.5 28.8,16.7"/></svg>