<svg xmlns="http://www.w3.org/2000/svg"  viewBox="0 0 48 48" width="50px" height="50px" baseProfile="basic"><path fill="#607d8b" d="M45.375,8l-7.016,7.016c0,0-2.172,0.172-3.984-1.641s-1.641-3.984-1.641-3.984l7.016-7.016	c0,0-1.25-0.375-3.048-0.375c-3.182,0-6.464,1.322-8.69,3.486C26.379,7.149,25.75,8.871,25.75,10.5c0,2.5,1.011,4.091,1,5.125	c-0.002,0.18-8.29,8.547-13.008,13.296c-0.806-0.245-1.865-0.633-3.282-0.633c-1.35,0-2.779,0.522-4.159,1.877	C4.506,32.009,3.41,34.731,3.41,37.37c0,1.491,0.311,2.528,0.311,2.528l5.819-5.819c0,0,1.802-0.143,3.304,1.361	c1.503,1.504,1.361,3.304,1.361,3.304l-5.819,5.819c0,0,1.037,0.311,2.528,0.311c2.639,0,5.361-1.096,7.208-2.891	c1.354-1.379,1.876-2.808,1.876-4.159c0-1.868-0.675-3.12-0.803-3.978c4.948-4.846,12.742-12.846,12.93-12.848	c1.034-0.011,2.625,1,5.125,1c1.628,0,3.351-0.629,5.014-2.263c2.164-2.224,3.486-5.506,3.486-8.688C45.75,9.25,45.375,8,45.375,8z"/></svg>