<svg xmlns="http://www.w3.org/2000/svg"  viewBox="0 0 48 48" width="50px" height="50px"><path fill="#4db6ac" d="M0,16c0-2.209,1.791-4,4-4h40c2.209,0,4,1.791,4,4v16c0,2.209-1.791,4-4,4H4c-2.209,0-4-1.791-4-4V16z"/><path fill="#fff" d="M19.708 25.773c-.051 1.137-.369 1.996-.957 2.578-.588.581-1.418.875-2.488.875-1.126 0-1.988-.371-2.588-1.111-.599-.74-.898-1.795-.898-3.168v-1.674c0-1.367.31-2.422.93-3.162C14.325 19.371 15.186 19 16.29 19c1.084 0 1.908.303 2.471.91.563.605.883 1.477.961 2.609h-2.017c-.019-.701-.127-1.186-.325-1.451-.198-.268-.562-.4-1.09-.4-.538 0-.919.188-1.142.565-.224.375-.342.994-.355 1.855v1.881c0 .988.11 1.668.331 2.035.222.371.601.554 1.139.554.528 0 .893-.128 1.094-.386.2-.258.315-.723.342-1.398H19.708zM24.89 23.52h2.468v1.783H24.89v2.789h-1.88v-2.789h-2.475V23.52h2.475v-2.674h1.88V23.52zM32.532 23.52H35v1.783h-2.468v2.789h-1.88v-2.789h-2.475V23.52h2.475v-2.674h1.88V23.52z"/></svg>