<svg xmlns="http://www.w3.org/2000/svg"  viewBox="0 0 48 48" width="50px" height="50px"><circle cx="24" cy="24" r="20" fill="#1565c0"/><path fill="#fff" d="M18,39h-2v-3.324c0-0.698-0.175-1.373-0.584-2.255l1.814-0.842c0.358,0.772,0.77,1.822,0.77,3.097V39	z"/><path fill="#fff" d="M23,7c-4.457,0-12,2.316-12,11v1.457C10.016,20.159,8,21.969,8,25c0,6.143,8.32,9.074,8.675,9.195	l0.397,0.137l0.375-0.188c2.351-1.176,3.34-4.213,3.381-4.342l0.199-0.627l-0.497-0.432C20.515,28.731,19,27.366,19,25.5	c0-0.417,0.097-2.5,2-2.5c0.715,0,1.2,0.6,1.2,0.6l0.3,0.4h1.471l0.228-0.684C25.181,20.371,26.706,19,29,19h4c1.103,0,2-0.897,2-2	v-1C35,10.364,30.514,7,23,7z M11,28c-0.552,0-1-0.448-1-1s0.448-1,1-1s1,0.448,1,1S11.552,28,11,28z M11,24c-0.552,0-1-0.448-1-1	s0.448-1,1-1s1,0.448,1,1S11.552,24,11,24z M14,30c-0.552,0-1-0.448-1-1s0.448-1,1-1s1,0.448,1,1S14.552,30,14,30z M14,26	c-0.552,0-1-0.448-1-1s0.448-1,1-1s1,0.448,1,1S14.552,26,14,26z M14,22c-0.552,0-1-0.448-1-1s0.448-1,1-1s1,0.448,1,1	S14.552,22,14,22z M14,18c-0.552,0-1-0.448-1-1s0.448-1,1-1s1,0.448,1,1S14.552,18,14,18z M14,14c-0.552,0-1-0.448-1-1s0.448-1,1-1	s1,0.448,1,1S14.552,14,14,14z M17,32c-0.552,0-1-0.448-1-1s0.448-1,1-1s1,0.448,1,1S17.552,32,17,32z M17,28c-0.552,0-1-0.448-1-1	s0.448-1,1-1s1,0.448,1,1S17.552,28,17,28z M17,24c-0.552,0-1-0.448-1-1s0.448-1,1-1s1,0.448,1,1S17.552,24,17,24z M17,20	c-0.552,0-1-0.448-1-1s0.448-1,1-1s1,0.448,1,1S17.552,20,17,20z M17,16c-0.552,0-1-0.448-1-1s0.448-1,1-1s1,0.448,1,1	S17.552,16,17,16z M17,12c-0.552,0-1-0.448-1-1s0.448-1,1-1s1,0.448,1,1S17.552,12,17,12z M20,22c-0.552,0-1-0.448-1-1s0.448-1,1-1	s1,0.448,1,1S20.552,22,20,22z M20,18c-0.552,0-1-0.448-1-1s0.448-1,1-1s1,0.448,1,1S20.552,18,20,18z M20,14c-0.552,0-1-0.448-1-1	s0.448-1,1-1s1,0.448,1,1S20.552,14,20,14z M20,10c-0.552,0-1-0.448-1-1s0.448-1,1-1s1,0.448,1,1S20.552,10,20,10z M23,20	c-0.552,0-1-0.448-1-1s0.448-1,1-1s1,0.448,1,1S23.552,20,23,20z M23,16c-0.552,0-1-0.448-1-1s0.448-1,1-1s1,0.448,1,1	S23.552,16,23,16z M23,12c-0.552,0-1-0.448-1-1s0.448-1,1-1s1,0.448,1,1S23.552,12,23,12z M26,18c-0.552,0-1-0.448-1-1s0.448-1,1-1	s1,0.448,1,1S26.552,18,26,18z M26,14c-0.552,0-1-0.448-1-1s0.448-1,1-1s1,0.448,1,1S26.552,14,26,14z M26,10c-0.552,0-1-0.448-1-1	s0.448-1,1-1s1,0.448,1,1S26.552,10,26,10z M29,16c-0.552,0-1-0.448-1-1s0.448-1,1-1s1,0.448,1,1S29.552,16,29,16z M29,12	c-0.552,0-1-0.448-1-1s0.448-1,1-1s1,0.448,1,1S29.552,12,29,12z M32,18c-0.552,0-1-0.448-1-1s0.448-1,1-1c0.552,0,1,0.448,1,1	S32.552,18,32,18z M32,14c-0.552,0-1-0.448-1-1s0.448-1,1-1c0.552,0,1,0.448,1,1S32.552,14,32,14z"/><path fill="#fff" d="M36.675,25.994L35,22.874V22c0-1.525-0.283-2.999-0.814-4.399C33.853,17.849,33.445,18,33,18h-0.796	C32.729,19.263,33,20.607,33,22v1.376l1.936,3.606l0.09,0.101c-0.093,0.04-1.41,0.589-1.41,0.589L33,27.928v4.381	C33,33.793,31.771,35,30.262,35H27v4h2v-2h1.262C32.874,37,35,34.896,35,32.309v-3.048c0.401-0.168,0.85-0.355,0.851-0.356	c0.473-0.222,0.835-0.617,1.019-1.108C37.096,27.197,37.021,26.528,36.675,25.994z"/></svg>