<svg xmlns="http://www.w3.org/2000/svg"  viewBox="0 0 48 48" width="50px" height="50px"><path fill="#424242" d="M27,4h-6c-1.7,0-3,1.3-3,3v3h2V7c0-0.6,0.4-1,1-1h6c0.6,0,1,0.4,1,1v3h2V7C30,5.3,28.7,4,27,4z"/><path fill="#6d4c41" d="M40,40H8c-2.2,0-4-1.8-4-4V12c0-2.2,1.8-4,4-4h32c2.2,0,4,1.8,4,4v24C44,38.2,42.2,40,40,40z"/><path fill="#8d6e63" d="M40,25H8c-2.2,0-4-1.8-4-4v-9c0-2.2,1.8-4,4-4h32c2.2,0,4,1.8,4,4v9C44,23.2,42.2,25,40,25z"/><path fill="#fff3e0" d="M26,23h-4c-0.6,0-1-0.4-1-1v-2c0-0.6,0.4-1,1-1h4c0.6,0,1,0.4,1,1v2C27,22.6,26.6,23,26,23z"/><path fill="#fbc02d" d="M38.5,28l-2.469,2.391l-3.402-0.482l-0.594,3.388L29,34.909L30.509,38L29,41.09l3.036,1.612 l0.594,3.388l3.402-0.482L38.5,48l2.469-2.391l3.402,0.482l0.594-3.388L48,41.091L46.491,38L48,34.91l-3.036-1.612l-0.594-3.388 l-3.402,0.482L38.5,28L38.5,28z"/></svg>