<svg xmlns="http://www.w3.org/2000/svg"  viewBox="0 0 48 48" width="50px" height="50px"><path fill="#CFD8DC" d="M12 9H14V39H12z"/><path fill="#CFD8DC" d="M14,37h-2v-7.4c0-2.5,2-4.6,4.6-4.6h14.9c1.4,0,2.6-1.1,2.6-2.6V16h2v6.4c0,2.5-2,4.6-4.6,4.6H16.6c-1.4,0-2.6,1.1-2.6,2.6V37z"/><path fill="#00BCD4" d="M9,8c0-2.2,1.8-4,4-4c2.2,0,4,1.8,4,4s-1.8,4-4,4C10.8,12,9,10.2,9,8z M35,18c2.2,0,4-1.8,4-4s-1.8-4-4-4c-2.2,0-4,1.8-4,4S32.8,18,35,18z"/><path fill="#0097A7" d="M13 36A4 4 0 1 0 13 44A4 4 0 1 0 13 36Z"/></svg>