<svg xmlns="http://www.w3.org/2000/svg"  viewBox="0 0 48 48" width="50px" height="50px"><path fill="#2196f3" d="M37.329,19.614c-3.22,0.514-6.439,0.514-9.659,0c-1.679-0.268-3.017-1.606-3.285-3.285	c-0.514-3.22-0.514-6.439,0-9.659c0.268-1.679,1.606-3.017,3.285-3.285c3.22-0.514,6.439-0.514,9.659,0	c1.679,0.268,3.017,1.606,3.285,3.285c0.514,3.22,0.514,6.439,0,9.659C40.346,18.008,39.008,19.346,37.329,19.614z"/><path fill="none" stroke="#b3e5fc" stroke-linecap="round" stroke-linejoin="round" stroke-miterlimit="10" stroke-width="1.7" d="M34.421,6.2c1.094,1.361,1.773,3.254,1.773,5.347c0,2.063-0.659,3.931-1.724,5.287"/><path fill="none" stroke="#b3e5fc" stroke-linecap="round" stroke-linejoin="round" stroke-miterlimit="10" stroke-width="1.7" d="M31.678,8.302c0.56,0.793,0.946,1.918,0.946,3.245c0,1.364-0.409,2.516-0.995,3.312"/><path fill="none" stroke="#b3e5fc" stroke-linecap="round" stroke-linejoin="round" stroke-miterlimit="10" stroke-width="1.7" d="M28.826,10.239c0.229,0.325,0.387,0.786,0.387,1.329c0,0.559-0.167,1.03-0.407,1.356"/><path fill="#37474f" d="M27,12.5v28c0,1.925-1.575,3.5-3.5,3.5h-14C7.575,44,6,42.425,6,40.5v-28C6,10.575,7.575,9,9.5,9h14	C25.425,9,27,10.575,27,12.5z"/><path fill="#bbdefb" d="M23.3,11H9.7C8.761,11,8,11.771,8,12.722v27.556C8,41.229,8.761,42,9.7,42h13.6	c0.939,0,1.7-0.771,1.7-1.722V12.722C25,11.771,24.239,11,23.3,11z"/><path fill="#37474f" d="M19,15h-5c-0.552,0-1-0.448-1-1v0c0-0.552,0.448-1,1-1h5c0.552,0,1,0.448,1,1v0	C20,14.552,19.552,15,19,15z"/><path fill="none" stroke="#455a64" stroke-miterlimit="10" stroke-width="1.7" d="M11.5,26v-2.5c0-0.552,0.448-1,1-1H15"/><path fill="none" stroke="#455a64" stroke-miterlimit="10" stroke-width="1.7" d="M21.5,26v-2.5c0-0.552-0.448-1-1-1H18"/><path fill="none" stroke="#455a64" stroke-miterlimit="10" stroke-width="1.7" d="M11.5,29v2.5c0,0.552,0.448,1,1,1H15"/><path fill="none" stroke="#455a64" stroke-miterlimit="10" stroke-width="1.7" d="M21.5,29v2.5c0,0.552-0.448,1-1,1H18"/></svg>