<svg xmlns="http://www.w3.org/2000/svg"  viewBox="0 0 48 48" width="50px" height="50px"><path fill="#90a4ae" d="M35.663,34.268l7.25-26.275c0.487-1.764-1.135-3.386-2.9-2.899l-26.28,7.248c-1.742,0.481-2.318,2.662-1.04,3.939l19.031,19.026C33.001,36.586,35.182,36.01,35.663,34.268z"/><path fill="#b0bec5" d="M42.308,5.699L22.209,25.793l-9.517-9.515c-1.281-1.271-0.703-3.451,1.044-3.936l26.278-7.252C40.892,4.841,41.739,5.131,42.308,5.699z"/><path fill="#78909c" d="M14,36c-0.512,0-1.024-0.195-1.414-0.586c-0.781-0.781-0.781-2.047,0-2.828l11-11c0.78-0.781,2.047-0.781,2.828,0c0.781,0.781,0.781,2.047,0,2.828l-11,11C15.024,35.805,14.512,36,14,36z"/><path fill="#f9a825" d="M9,43c-1.024,0-2.047-0.391-2.829-1.171c-1.562-1.562-1.562-4.095,0-5.657l8-8l5.657,5.657l-8,8C11.047,42.609,10.024,43,9,43z"/></svg>