<svg xmlns="http://www.w3.org/2000/svg"  viewBox="0 0 48 48" width="50px" height="50px"><path fill="#1976d2" d="M15,39h15c1.215,0,2.176-1.083,1.973-2.336C31.813,35.681,30.889,35,29.893,35H15V39z"/><polygon fill="#1976d2" points="37,28 33,32.478 31,28 35,25 37,26"/><path fill="#1976d2" d="M33.219,24.75l9.513,9.503c0.976,0.976,2.559,0.976,3.536,0s0.976-2.559,0-3.536l-8.049-7.968	L33.219,24.75z"/><circle cx="5.5" cy="30.5" r="4.5" fill="#ffb74d"/><path fill="#2196f3" d="M12,35h15.19c1,0,1.81-0.811,1.81-1.81V26H12V35z"/><path fill="#2196f3" d="M43.384,19h-4.355H34.14c-0.689,0-1.33,0.355-1.695,0.94L28.035,27L27,26.841v8.156L27.035,35h1.075	c2.382,0,4.539-1.411,5.494-3.595l2.714-6.207C36.637,24.47,37.356,24,38.15,24h5.376c1.465,0,2.635-1.261,2.486-2.758	C45.881,19.941,44.691,19,43.384,19z"/><path fill="#03a9f4" d="M11.314,11.693h6.5v2l-4,4h4.5v2h-7v-2l4-4h-4V11.693z M23.314,6.693h6v2l-3.125,3h3.146v2h-6.021v-2	l3.281-3h-3.281V6.693z"/><polygon fill="#dce0e2" points="25,40 20,39 8,40 9,30 7,25 15,24 21,26 25,25 26,30.656"/><rect width="6" height="2" x="10" y="35" fill="#b8bbbc"/><rect width="6" height="2" x="18" y="35" fill="#b8bbbc"/><rect width="6" height="2" x="18" y="31" fill="#b8bbbc"/><rect width="6" height="6" x="10" y="27" fill="#b8bbbc"/><rect width="6" height="2" x="18" y="27" fill="#b8bbbc"/></svg>