<svg xmlns="http://www.w3.org/2000/svg"  viewBox="0 0 48 48" width="50px" height="50px"><path fill="#FFB74D" d="M14,22c2.209,0,4,1.792,4,4c0,2.209-1.791,4-4,4s-4-1.791-4-4C10,23.792,11.791,22,14,22"/><path fill="#E1BEE7" d="M20,35H8c-0.553,0-1-0.447-1-1v-3c0-0.553,0.447-1,1-1h12c0.553,0,1,0.447,1,1v3C21,34.553,20.553,35,20,35z"/><path fill="#9C27B0" d="M43,34H20c-0.553,0-1-0.447-1-1v-9h22.317C42.872,24,44,25.134,44,26.696V33C44,33.553,43.553,34,43,34z"/><path fill="#FF9800" d="M9,42H4V18h5v15h30l0,0h5v9h-5v-4H9V42z"/><path fill="#03A9F4" d="M19 11h6.5v2l-4 4H26v2h-7v-2l4-4h-4V11zM31 6h6v2l-3.125 3h3.146v2H31v-2l3.281-3H31V6z"/></svg>