<svg xmlns="http://www.w3.org/2000/svg"  viewBox="0 0 48 48" width="50px" height="50px"><path fill="#0078d4" d="M11.453,38.014c-0.918-0.918-2.412-0.912-3.338,0.014c-0.926,0.926-0.932,2.419-0.014,3.338 s2.412,0.912,3.338-0.014C12.364,40.425,12.371,38.932,11.453,38.014z"/><path fill="#0078d4" d="M18.474,18.3l-2.8,2.8l20.4,20.4c0.8,0.8,2,0.8,2.8,0l0,0c0.8-0.8,0.8-2,0-2.8L18.474,18.3z"/><path fill="#199be2" d="M15.374,26.5l5.7-5.7L7.174,7l-0.6,0.5c-2.8,2.8-2.8,7.4,0,10.2L15.374,26.5z"/><polygon fill="#0078d4" points="31.503,19.629 30.674,18.8 29.839,17.964 8.264,37.894 9.777,39.697 11.573,41.203"/><path fill="#199be2" d="M43.185,12.921c-0.458-0.458-1.203-0.454-1.665,0.007l-6.687,6.687 c-0.462,0.462-1.207,0.465-1.665,0.007s-0.455-1.203,0.007-1.665l6.687-6.687c0.461-0.461,0.465-1.207,0.007-1.665 s-1.203-0.454-1.665,0.007l-6.687,6.687c-0.462,0.462-1.207,0.465-1.665,0.007s-0.455-1.203,0.007-1.665l6.687-6.687 c0.461-0.461,0.465-1.207,0.007-1.665c-0.458-0.458-1.203-0.454-1.665,0.007l-9.195,9.195c-1.846,1.846-1.859,4.828-0.028,6.659 l1.658,1.658c1.831,1.831,4.813,1.819,6.659-0.028l9.195-9.195C43.639,14.124,43.642,13.378,43.185,12.921z"/></svg>