<svg xmlns="http://www.w3.org/2000/svg"  viewBox="0 0 48 48" width="50px" height="50px"><ellipse cx="24" cy="24" fill="#64b5f6" rx="19" ry="7"/><ellipse cx="24" cy="22.385" fill="#bbdefb" rx="24" ry="5.385"/><path fill="#90caf9" d="M24,21c9.743,0,14.543,1.908,15,3c0.09,0.214,0.132,0.302,0.172,0.528	c0.647-0.124,1.241-0.253,1.799-0.385C40.978,24.094,41,24.051,41,24c0-3.736-9.919-4.875-15.974-4.989	C24.683,19.007,24.351,19,24,19s-0.683,0.007-1.026,0.011C16.919,19.125,7,20.264,7,24c0,0.051,0.022,0.094,0.029,0.143	c0.558,0.132,1.152,0.261,1.799,0.385c0.041-0.216,0.06-0.459,0.247-0.726C9.746,22.844,14.93,21,24,21z"/></svg>