<svg xmlns="http://www.w3.org/2000/svg"  viewBox="0 0 48 48" width="50px" height="50px"><path fill="#43A047" d="M44,33.002c0,4.97-8.955,9-20,9c-11.045,0-20-4.03-20-9l3-11h34L44,33.002z"/><path fill="#1B5E20" d="M24,18c9.305,0,15,2.914,15,4.5S33.305,27,24,27c-9.305,0-15-2.914-15-4.5S14.695,18,24,18 M24,16c-9.389,0-17,2.91-17,6.5S14.611,29,24,29c9.389,0,17-2.91,17-6.5S33.389,16,24,16L24,16z"/><path fill="#FFEB3B" d="M20 34H28V36H20z"/><path fill="#FFEB3B" d="M28 31A2 2 0 1 0 28 35 2 2 0 1 0 28 31zM28 35A2 2 0 1 0 28 39 2 2 0 1 0 28 35zM20 31A2 2 0 1 0 20 35 2 2 0 1 0 20 31zM20 35A2 2 0 1 0 20 39 2 2 0 1 0 20 35z"/><path fill="#FF9800" d="M23.952,9.905C14.647,9.905,9,20.914,9,22.5S14.695,27,24,27c9.305,0,15-2.914,15-4.5S33.257,9.905,23.952,9.905z"/><path fill="#FF9800" d="M10.782 17.416h2.365c0 0 2.05-.215 1.024 1.58s-1.239 2.145-1.239 2.145-.303.619-1.232 2.135-1.834.002-1.834.002l-1.234-2.137-1.173-2.006c0 0-1.219-1.719.844-1.719S10.782 17.416 10.782 17.416zM35.146 17.438l2.047-1.185c0 0 1.666-1.214 1.678.854.012 2.066.003 2.477.003 2.477s.048.688.003 2.465-1.586.92-1.586.92l-2.139-1.23-2.021-1.147c0 0-1.916-.876-.131-1.91S35.146 17.438 35.146 17.438z"/><path fill="#FF9800" d="M11.23,13.021l2.046-1.185c0,0,1.666-1.214,1.678,0.854c0.012,2.066,0.003,2.478,0.003,2.478s0.048,0.687,0.003,2.464c-0.045,1.777-1.587,0.92-1.587,0.92l-2.139-1.23l-2.021-1.147c0,0-1.916-0.876-0.131-1.91C10.869,13.229,11.23,13.021,11.23,13.021z"/><path fill="#FF9800" d="M18.647,10.921l1.94,1.352c0,0,1.806,0.995-0.063,1.882c-1.867,0.887-2.242,1.053-2.242,1.053s-0.603,0.334-2.231,1.047c-1.629,0.712-1.505-1.048-1.505-1.048l0.208-2.458l0.184-2.316c0,0-0.018-2.107,1.675-0.928C18.305,10.682,18.647,10.921,18.647,10.921z"/><path fill="#FF9800" d="M18.9 8.622l1.433-1.881c0 0 1.072-1.76 1.877.145.806 1.902.956 2.285.956 2.285s.308.616.95 2.273c.642 1.659-1.111 1.46-1.111 1.46l-2.447-.314-2.307-.282c0 0-2.105-.072-.854-1.713C18.646 8.954 18.9 8.622 18.9 8.622zM32.643 16.622l1.433-1.881c0 0 1.072-1.76 1.878.145.806 1.902.955 2.285.955 2.285s.309.616.95 2.273c.642 1.659-1.11 1.46-1.11 1.46l-2.447-.314-2.307-.282c0 0-2.105-.072-.855-1.713S32.643 16.622 32.643 16.622z"/><path fill="#FF9800" d="M26.965 11.495l-1.52 1.811c0 0-1.155 1.707-1.869-.232-.715-1.939-.846-2.328-.846-2.328s-.278-.631-.841-2.316c-.563-1.688 1.179-1.406 1.179-1.406l2.43.432 2.29.391c0 0 2.099.172.772 1.752C27.234 11.176 26.965 11.495 26.965 11.495zM33.965 15.49l-1.52 1.811c0 0-1.155 1.707-1.869-.232-.715-1.939-.846-2.328-.846-2.328s-.279-.631-.842-2.316c-.563-1.688 1.18-1.406 1.18-1.406l2.43.432 2.29.391c0 0 2.099.172.772 1.752C34.234 15.171 33.965 15.49 33.965 15.49z"/><path fill="#FF9800" d="M27.51,13.965l-1.811-1.521c0,0-1.707-1.154,0.232-1.868c1.939-0.715,2.328-0.847,2.328-0.847s0.631-0.277,2.316-0.84c1.688-0.563,1.406,1.178,1.406,1.178l-0.432,2.43l-0.391,2.291c0,0-0.172,2.1-1.752,0.772C27.829,14.233,27.51,13.965,27.51,13.965z"/><path fill="#FFB74D" d="M29.773,17.168l-2.265,0.678c0,0-1.903,0.793-1.435-1.219c0.467-2.016,0.57-2.412,0.57-2.412s0.114-0.68,0.569-2.396c0.456-1.721,1.757-0.529,1.757-0.529l1.794,1.695l1.7,1.583c0,0,1.66,1.296-0.316,1.889C30.174,17.048,29.773,17.168,29.773,17.168z"/><g><path fill="#EF6C00" d="M12.874 23.42l-2.025-1.22c0 0-1.866-.875-.062-1.882 1.805-1.009 2.168-1.199 2.168-1.199s.58-.373 2.157-1.191c1.579-.819 1.573.944 1.573.944l-.047 2.468-.028 2.323c0 0 .158 2.1-1.61 1.036C13.231 23.636 12.874 23.42 12.874 23.42zM35.936 19.235l.85 2.206c0 0 .938 1.836-1.105 1.523-2.043-.311-2.447-.383-2.447-.383s-.687-.062-2.434-.383c-1.75-.322-.663-1.711-.663-1.711l1.552-1.92 1.447-1.816c0 0 1.164-1.755 1.908.17C35.785 18.846 35.936 19.235 35.936 19.235zM26.965 16.49l-1.52 1.811c0 0-1.155 1.707-1.869-.232-.715-1.939-.846-2.328-.846-2.328s-.278-.631-.841-2.316c-.563-1.688 1.179-1.406 1.179-1.406l2.43.432 2.29.391c0 0 2.099.172.772 1.752C27.234 16.171 26.965 16.49 26.965 16.49z"/></g><g><path fill="#FFCC80" d="M21.656 24.168l-2.265.678c0 0-1.903.793-1.435-1.219.467-2.016.571-2.412.571-2.412s.114-.68.569-2.396c.456-1.721 1.757-.529 1.757-.529l1.794 1.695 1.7 1.583c0 0 1.66 1.296-.316 1.889C22.056 24.048 21.656 24.168 21.656 24.168zM19.104 13.975l-1.066-2.109c0 0-1.116-1.734.948-1.627 2.065.104 2.474.137 2.474.137s.689-.008 2.459.138c1.775.146.831 1.636.831 1.636l-1.353 2.064-1.259 1.953c0 0-.983 1.862-1.915.021C19.292 14.348 19.104 13.975 19.104 13.975z"/></g><g><path fill="#E65100" d="M25.873 23.71l-2.025-1.22c0 0-1.866-.875-.062-1.882 1.805-1.009 2.168-1.199 2.168-1.199s.579-.373 2.157-1.191c1.578-.819 1.572.944 1.572.944l-.047 2.468-.029 2.323c0 0 .158 2.1-1.609 1.036S25.873 23.71 25.873 23.71zM14.634 15.988l-.265-2.35c0 0-.441-2.014 1.456-1.194 1.898.818 2.271.991 2.271.991s.649.232 2.258.986c1.611.755.208 1.822.208 1.822l-1.987 1.465L16.713 19.1c0 0-1.57 1.402-1.802-.647C14.68 16.403 14.634 15.988 14.634 15.988z"/></g></svg>