<svg xmlns="http://www.w3.org/2000/svg"  viewBox="0 0 48 48" width="50px" height="50px"><path fill="#03A9F4" d="M19.3 39c1.1-.1 1.9-1.1 1.7-2.2l-1.2-9.9-3.9.5 1.2 9.9C17.2 38.3 18.2 39.1 19.3 39zM28.7 39c1.1.1 2.1-.6 2.2-1.7l1.2-9.9-3.9-.5L27 36.8C26.9 37.9 27.7 38.9 28.7 39zM37 16L37 16c1.7 0 3 1.4 3 3v6c0 1.6-1.3 3-3 3l0 0c-1.7 0-3-1.4-3-3v-6C34 17.4 35.3 16 37 16z"/><path fill="#FFB74D" d="M32.5,22h-5c-0.8,0-1.5-0.7-1.5-1.5l0,0c0-0.8,0.7-1.5,1.5-1.5h5c0.8,0,1.5,0.7,1.5,1.5l0,0 C34,21.3,33.3,22,32.5,22z"/><path fill="#FFB74D" d="M38,18.5c0-0.8-0.7-1.5-1.5-1.5c-0.2,0-0.5,0.1-0.7,0.2l0,0L32.2,19l0,0c-0.7,0.2-1.2,0.7-1.2,1.5 c0,0.8,0.7,1.5,1.5,1.5c0.3,0,0.6-0.1,0.8-0.2l0,0l3.9-2l0,0C37.7,19.5,38,19.1,38,18.5z"/><path fill="#03A9F4" d="M28,29h9c1.7,0,3-1.3,3-3v-1H30c-1.1,0-2,0.9-2,2V29z"/><path fill="#FFB74D" d="M36,9c1.7,0,3,1.3,3,3c0,1.7-1.3,3-3,3s-3-1.3-3-3C33,10.3,34.3,9,36,9"/><path fill="#B0BEC5" d="M39.3,31H30c-0.6,0-1-0.4-1-1s0.4-1,1-1h9.3c0.5,0,0.9-0.4,1-0.8L42,17.8c0.1-0.5,0.6-0.9,1.2-0.8 c0.5,0.1,0.9,0.6,0.8,1.2l-1.7,10.3C42,29.9,40.8,31,39.3,31z"/><path fill="#B0BEC5" d="M39 39L41 39 39.9 29 32.5 29 32.5 31 38.1 31z"/><path fill="#B0BEC5" d="M31 30H33V39H31z"/><path fill="#03A9F4" d="M11,16L11,16c-1.6,0-3,1.4-3,3v6c0,1.6,1.4,3,3,3l0,0c1.6,0,3-1.4,3-3v-6C14,17.4,12.6,16,11,16z"/><path fill="#FFB74D" d="M15.5,22h5c0.8,0,1.5-0.7,1.5-1.5l0,0c0-0.8-0.7-1.5-1.5-1.5h-5c-0.8,0-1.5,0.7-1.5,1.5l0,0 C14,21.3,14.7,22,15.5,22z"/><path fill="#FFB74D" d="M15.8,19L15.8,19l-3.7-1.9l0,0C12,17.1,11.7,17,11.5,17c-0.8,0-1.5,0.7-1.5,1.5c0,0.6,0.3,1,0.8,1.3l0,0 l3.9,2l0,0c0.2,0.2,0.5,0.2,0.8,0.2c0.8,0,1.5-0.7,1.5-1.5C17,19.8,16.5,19.2,15.8,19z"/><path fill="#03A9F4" d="M20,29h-9c-1.7,0-3-1.3-3-3v-1h10c1.1,0,2,0.9,2,2V29z"/><path fill="#FFB74D" d="M12,9c1.7,0,3,1.3,3,3c0,1.7-1.3,3-3,3s-3-1.3-3-3C9,10.3,10.3,9,12,9"/><path fill="#B0BEC5" d="M18,31H8.7c-1.5,0-2.7-1.1-3-2.5L4,18.2c-0.1-0.5,0.3-1.1,0.8-1.2c0.5-0.1,1.1,0.3,1.2,0.8l1.7,10.3 c0.1,0.5,0.5,0.8,1,0.8H18c0.6,0,1,0.4,1,1S18.6,31,18,31z"/><path fill="#B0BEC5" d="M9 39L9.9 31 15.5 31 15.5 29 8.1 29 7 39z"/><path fill="#B0BEC5" d="M15 30H17V39H15z"/><path fill="#B3E5FC" d="M16 22H32V31H16z"/><path fill="#E1F5FE" d="M29 31L32 34 35 31 32 22zM13 31L16 34 19 31 16 22z"/></svg>