<svg xmlns="http://www.w3.org/2000/svg"  viewBox="0 0 48 48" width="50px" height="50px"><path fill="#64b5f6" d="M44,24c0,11.044-8.956,20-20,20S4,35.044,4,24S12.956,4,24,4S44,12.956,44,24z"/><path fill="#0d47a1" d="M31 25c0-.789-.578-1-1.5-1H30c-.922 0-2 .211-2 1v12.57c0 .789.746 1.43 1.668 1.43h.668C31.254 39 32 38.359 32 37.57L31 25zM21.332 21.645h-2.668L18 37.359c0 .789.598 1.43 1.332 1.43h1.332c.738 0 1.336-.641 1.336-1.43L21.332 21.645z"/><path fill="#e0f7fa" d="M31 25h-3V9C29.473 9 34.676 11.781 31 25zM22 9v9h-1V9h-2v9h-1V9h-1.332L16 19l2.668 2.645h2.668L24 19 23.336 9H22z"/></svg>