<svg xmlns="http://www.w3.org/2000/svg"  viewBox="0 0 48 48" width="50px" height="50px" baseProfile="basic"><path fill="#4fc3f7" d="M42.825,25.067l-1.611-1.185C43.011,21.439,44,18.245,44,14.889c0-3.303-0.964-6.46-2.713-8.89 L42.91,4.83C44.902,7.598,46,11.17,46,14.889C46,18.668,44.872,22.283,42.825,25.067z"/><path fill="#03a9f4" d="M38.797,21.847l-1.594-1.209C38.362,19.111,39,17.069,39,14.889c0-2.125-0.614-4.132-1.729-5.65 l1.611-1.185C40.248,9.914,41,12.341,41,14.889C41,17.503,40.218,19.974,38.797,21.847z"/><path fill="#4fc3f7" d="M5.09,25.059C3.098,22.292,2,18.719,2,15c0-3.779,1.128-7.394,3.175-10.178l1.611,1.185 C4.989,8.45,4,11.644,4,15c0,3.303,0.964,6.46,2.713,8.89L5.09,25.059z"/><path fill="#03a9f4" d="M9.118,21.834C7.752,19.976,7,17.548,7,15c0-2.614,0.782-5.085,2.203-6.958l1.594,1.209 C9.638,10.778,9,12.82,9,15c0,2.125,0.614,4.132,1.729,5.65L9.118,21.834z"/><path fill="#9fa8da" d="M27.033,31h-6.065C18.224,31,16,28.776,16,26.033V11.967C16,9.224,18.224,7,20.967,7h6.065	C29.776,7,32,9.224,32,11.967v14.065C32,28.776,29.776,31,27.033,31z"/><path fill="#3f51b5" d="M27,35h-6c-3.859,0-7-3.194-7-7.12V18h2v9.88c0,2.823,2.243,5.12,5,5.12h6c2.757,0,5-2.297,5-5.12 V18h2v9.88C34,31.806,30.859,35,27,35z"/><path fill="#3f51b5" d="M22,34h4v10h-4V34z"/><path fill="#303f9f" d="M33,42c0,0-4-1-9-1s-9,1-9,1v2h18V42z"/><rect width="6" height="2" x="16" y="14" fill="#5c6bc0"/><rect width="6" height="2" x="16" y="18" fill="#5c6bc0"/><rect width="6" height="2" x="16" y="22" fill="#5c6bc0"/><rect width="6" height="2" x="26" y="14" fill="#5c6bc0"/><rect width="6" height="2" x="26" y="18" fill="#5c6bc0"/><rect width="6" height="2" x="26" y="22" fill="#5c6bc0"/></svg>