<svg xmlns="http://www.w3.org/2000/svg"  viewBox="0 0 48 48" width="50px" height="50px"><path fill="#ff3d00" d="M44,24c0,11-9,20-20,20S4,35,4,24S13,4,24,4S44,13,44,24z"/><path fill="#37474f" d="M24,24l17.6-9.4c0.8,1.5,1.4,3.1,1.8,4.7L24,24z M43.3,29c0.4-1.6,0.7-3.3,0.7-5H24L43.3,29z M38.2,38c1.2-1.2,2.2-2.5,3.1-4L24,24L38.2,38z M28.8,43.4c1.6-0.4,3.2-1,4.7-1.8L24,24L28.8,43.4z M19,43.3 c1.6,0.4,3.3,0.7,5,0.7V24L19,43.3z M10,38.2c1.2,1.2,2.5,2.2,4,3.1L24,24L10,38.2z M4.6,28.9c0.4,1.6,1,3.2,1.8,4.7L24,24 L4.6,28.9z M4.7,19C4.2,20.6,4,22.3,4,24h20L4.7,19z M9.6,10.2c-1.1,1.2-2.2,2.5-3,4.1L24,24L9.6,10.2z M29,4.7 C27.4,4.2,25.7,4,24,4v20L29,4.7z M18.6,4.8C17,5.2,15.5,5.8,14,6.7L24,24L18.6,4.8z M38.1,9.8c-1.2-1.2-2.5-2.2-4-3.1L24,24 L38.1,9.8z"/><path fill="#388e3c" d="M38,24c0,7.7-6.3,14-14,14s-14-6.3-14-14s6.3-14,14-14S38,16.3,38,24z"/><path fill="#66bb6a" d="M37.8,26.5L28,24l9.8-2.6c-0.1-0.7-0.3-1.3-0.5-1.9l-9.9,2.6l7.3-7.3c-0.4-0.5-0.9-1-1.4-1.4 l-7.3,7.3l2.6-9.9c-0.6-0.2-1.3-0.4-1.9-0.5L24,20l-2.6-9.8c-0.7,0.1-1.3,0.3-1.9,0.5l2.6,9.9l-7.3-7.3c-0.5,0.4-1,0.9-1.4,1.4 l7.3,7.3l-10-2.6c-0.2,0.6-0.4,1.3-0.5,1.9L20,24l-9.8,2.6c0.1,0.7,0.3,1.3,0.5,1.9l9.9-2.6l-7.3,7.3c0.4,0.5,0.9,1,1.4,1.4 l7.3-7.3l-2.6,9.9c0.6,0.2,1.3,0.4,1.9,0.5L24,28l2.6,9.8c0.7-0.1,1.3-0.3,1.9-0.5l-2.6-9.9l7.3,7.3c0.5-0.4,1-0.9,1.4-1.4 l-7.3-7.3l9.9,2.6C37.5,27.8,37.6,27.2,37.8,26.5z"/><path fill="#5d4037" d="M34,24c0,5.5-4.5,10-10,10s-10-4.5-10-10s4.5-10,10-10S34,18.5,34,24z"/><path fill="#dd9f05" d="M28.3 29.7L24 25.4 19.7 29.7 18.3 28.3 22.6 24 18.3 19.7 19.7 18.3 24 22.6 28.3 18.3 29.7 19.7 25.4 24 29.7 28.3z"/><path fill="#ffc107" d="M24,8C15.2,8,8,15.2,8,24s7.2,16,16,16s16-7.2,16-16S32.8,8,24,8z M24,38c-7.7,0-14-6.3-14-14 s6.3-14,14-14s14,6.3,14,14S31.7,38,24,38z M22,24c0-1.1,0.9-2,2-2s2,0.9,2,2s-0.9,2-2,2S22,25.1,22,24z M18,19.5 c0-0.8,0.7-1.5,1.5-1.5s1.5,0.7,1.5,1.5S20.3,21,19.5,21S18,20.3,18,19.5z M27,19.5c0-0.8,0.7-1.5,1.5-1.5s1.5,0.7,1.5,1.5 S29.3,21,28.5,21S27,20.3,27,19.5z M18,28.5c0-0.8,0.7-1.5,1.5-1.5s1.5,0.7,1.5,1.5S20.3,30,19.5,30S18,29.3,18,28.5z M27,28.5 c0-0.8,0.7-1.5,1.5-1.5s1.5,0.7,1.5,1.5S29.3,30,28.5,30S27,29.3,27,28.5z"/></svg>