<svg xmlns="http://www.w3.org/2000/svg"  viewBox="0 0 48 48" width="50px" height="50px"><rect width="22" height="2" x="13" y="5" fill="#424242"/><path fill="#795548" d="M8,10h32c1.105,0,2,0.895,2,2v29c0,1.105-0.895,2-2,2H8c-1.105,0-2-0.895-2-2V12	C6,10.895,6.895,10,8,10z"/><path fill="#e0e0e0" d="M38,29H10c-1.105,0-2,0.895-2,2v8c0,1.105,0.895,2,2,2h28c1.105,0,2-0.895,2-2v-8	C40,29.895,39.105,29,38,29z"/><rect width="9" height="8" x="20" y="31" fill="#455a64"/><rect width="2" height="8" x="11" y="31" fill="#455a64"/><rect width="3" height="2" x="10.5" y="31" fill="#0097a7"/><rect width="2" height="8" x="15" y="31" fill="#455a64"/><rect width="3" height="2" x="14.5" y="35" fill="#0097a7"/><circle cx="32" cy="38" r="1" fill="#455a64"/><circle cx="37" cy="38" r="1" fill="#455a64"/><circle cx="34.5" cy="33.5" r="2.5" fill="#455a64"/><circle cx="35.002" cy="16" r="10" fill="#424242"/><circle cx="12.997" cy="16" r="10" fill="#424242"/><path fill="#e0e0e0" d="M36.81,5.15c-5.992-0.999-11.66,3.049-12.659,9.042c-0.999,5.992,3.049,11.66,9.042,12.659	c5.992,0.999,11.66-3.049,12.659-9.042C46.851,11.816,42.803,6.148,36.81,5.15z M26.124,17.442c-0.153-0.944-0.166-1.926,0-2.922	c0.133-0.795,0.375-1.543,0.693-2.244l3.651,1.661c-0.177,0.39-0.325,0.798-0.398,1.241c-0.092,0.554-0.068,1.095,0.018,1.62	L26.124,17.442z M38.193,7.586c1.695,0.641,3.119,1.765,4.132,3.183l-3.255,2.325c-0.563-0.788-1.354-1.411-2.296-1.767	L38.193,7.586z M35.869,24.95l-0.387-3.992c0.996-0.096,1.916-0.486,2.668-1.1l2.537,3.107	C39.332,24.071,37.663,24.777,35.869,24.95z"/><path fill="#e0e0e0" d="M7.339,6.568C2.129,9.693,0.44,16.45,3.566,21.659s9.882,6.899,15.092,3.773	s6.899-9.882,3.773-15.092S12.548,3.442,7.339,6.568z M11.384,24.845c-1.721-0.315-3.341-1.128-4.635-2.381l2.788-2.883	c0.719,0.695,1.612,1.143,2.568,1.318L11.384,24.845z M11.628,11.211c-0.412,0.118-0.818,0.27-1.203,0.501	c-0.481,0.289-0.878,0.659-1.222,1.064l-3.061-2.6c0.619-0.729,1.359-1.375,2.225-1.894c0.691-0.415,1.418-0.715,2.158-0.927	L11.628,11.211z M21.73,18.183l-3.881-0.97c0.235-0.94,0.196-1.946-0.144-2.894l3.768-1.346	C22.085,14.679,22.152,16.492,21.73,18.183z"/><circle cx="12.997" cy="16" r="3" fill="#bdbdbd"/><circle cx="35.002" cy="16" r="3" fill="#bdbdbd"/></svg>