<svg xmlns="http://www.w3.org/2000/svg"  viewBox="0 0 48 48" width="50px" height="50px"><path fill="#26a69a" d="M15,32l4,5v2h2l0.25-8.36L20,29V14l-2-2l-1.357,3.619C15.557,18.516,15,21.585,15,24.679V32z"/><path fill="#ffb74d" d="M15,24.679V29.6l3,2.4V19l-1.853-1.853C15.401,19.587,15,22.122,15,24.679z"/><polygon fill="#9e9e9e" points="31,24 40,20 41,18 43,20 39,25 31,30"/><polygon fill="#9e9e9e" points="25,27 21,28 11,23 6,18 6,16 4,20 7,26 19,35 25,35"/><polygon fill="#4db6ac" points="26,30 21,31 22,38 28,38"/><path fill="#4db6ac" d="M25,42c3.626-10.226,3.485-21.91,0-33l3-4c2.129,5.797,3.848,12.478,5,18v6 c-0.972,6.007-2.561,11.712-5,17L25,42z"/><polygon fill="#757575" points="26,41 24,41 22,46 23,48 27,48 28,46"/><polygon fill="#00897b" points="27,17 25,17 23,29 24,36 28,36 29,29"/><path fill="#4db6ac" d="M34,11v6l0,0c1.226,0.613,2,1.866,2,3.236V31l-1.368,4.103C34.255,36.236,33.194,37,32,37h0v3l2,1 c3-3,5.483-6.962,6-12v-5C40,19,37,13,34,11z"/><path fill="#4db6ac" d="M14,11v6l0,0c-1.226,0.613-2,1.866-2,3.236V31l1.368,4.103C13.745,36.236,14.806,37,16,37h0v3l-2,1 c-3-3-5.483-6.962-6-12v-5C8,19,11,13,14,11z"/><polygon fill="#757575" points="27,8 25,10 25,1 27,1"/><polygon fill="#757575" points="14,17 12,15 12,8 14,8"/><polygon fill="#757575" points="20,17 18,15 18,9 20,9"/><polygon fill="#757575" points="36,15 34,17 34,7 36,7"/><rect width="2" height="8" x="19" y="22" fill="#9e9e9e"/><rect width="2" height="4" x="24" y="4" fill="#757575"/><path fill="#ffb74d" d="M33,23c-0.207-0.993-0.446-1.995-0.693-3H29l1,5h3V23z"/><rect width="2" height="6" x="39" y="24" fill="#26a69a"/><rect width="2" height="6" x="16" y="29" fill="#00897b"/><rect width="2" height="2" x="24" y="46" fill="#ef5350"/><rect width="4" height="4" x="24" y="32" fill="#757575"/><rect width="2" height="2" x="25" y="17" fill="#757575"/><rect width="2" height="6" x="7" y="24" fill="#26a69a"/></svg>