<svg xmlns="http://www.w3.org/2000/svg"  viewBox="0 0 48 48" width="50px" height="50px"><path fill="#9e9e9e" d="M43 45L37 45 33 36 38 35zM11 45L5 45 10 35 15 36z"/><path fill="#c5cae9" d="M24 4A20 20 0 1 0 24 44A20 20 0 1 0 24 4Z"/><path fill="#9fa8da" d="M42.325,16h-1.911l1.289-1.289c-0.321-0.611-0.669-1.206-1.05-1.778L39,14.586V11h0.18 c-0.67-0.782-1.398-1.51-2.18-2.18V9h-3.586l1.654-1.654c-0.572-0.381-1.167-0.728-1.778-1.05L32,7.586V5.675 c-0.651-0.284-1.315-0.542-2-0.757v2.668l-3.398-3.398C25.749,4.077,24.884,4,24,4s-1.749,0.077-2.602,0.188L18,7.586V4.918 c-0.685,0.215-1.349,0.472-2,0.757v1.911l-1.289-1.289c-0.611,0.321-1.206,0.669-1.778,1.05L14.586,9H11V8.82 C10.218,9.49,9.49,10.218,8.82,11H9v3.586l-1.654-1.654c-0.381,0.572-0.728,1.167-1.05,1.778L7.586,16H5.675 c-0.284,0.651-0.542,1.315-0.757,2h2.668l-3.398,3.398C4.077,22.251,4,23.116,4,24c0,0.884,0.077,1.749,0.188,2.602L7.586,30H4.918 c0.215,0.685,0.472,1.349,0.757,2h1.911l-1.289,1.289c0.321,0.611,0.669,1.206,1.05,1.778L9,33.414V37H8.82 c0.67,0.782,1.398,1.51,2.18,2.18V39h3.586l-1.654,1.654c0.572,0.381,1.167,0.728,1.778,1.05L16,40.414v1.911 c0.651,0.284,1.315,0.542,2,0.757v-2.668l3.398,3.398C22.251,43.923,23.116,44,24,44s1.749-0.077,2.602-0.188L30,40.414v2.668 c0.685-0.215,1.349-0.472,2-0.757v-1.911l1.289,1.289c0.611-0.321,1.206-0.669,1.778-1.05L33.414,39H37v0.18 c0.782-0.67,1.51-1.398,2.18-2.18H39v-3.586l1.654,1.654c0.381-0.572,0.728-1.167,1.05-1.778L40.414,32h1.911 c0.284-0.651,0.542-1.315,0.757-2h-2.668l3.398-3.398C43.923,25.749,44,24.884,44,24c0-0.884-0.077-1.749-0.188-2.602L40.414,18 h2.668C42.867,17.315,42.609,16.651,42.325,16z M9,28.586L5.414,25H9V28.586z M9,23H5.414L9,19.414V23z M11,11h3.586L11,14.586V11z M11,19.414L14.586,23H11V19.414z M11,25h3.586L11,28.586V25z M11,37v-3.586L14.586,37H11z M16,35.586L12.414,32H16V35.586z M16,30 h-3.586L16,26.414V30z M16,21.586L12.414,18H16V21.586z M16,16h-3.586L16,12.414V16z M18,12.414L21.586,16H18V12.414z M18,18h3.586 L18,21.586V18z M18,26.414L21.586,30H18V26.414z M18,32h3.586L18,35.586V32z M23,42.586L19.414,39H23V42.586z M23,37h-3.586 L23,33.414V37z M23,28.586L19.414,25H23V28.586z M23,23h-3.586L23,19.414V23z M23,14.586L19.414,11H23V14.586z M23,9h-3.586 L23,5.414V9z M25,5.414L28.586,9H25V5.414z M25,11h3.586L25,14.586V11z M25,19.414L28.586,23H25V19.414z M25,25h3.586L25,28.586V25z M25,42.586V39h3.586L25,42.586z M25,37v-3.586L28.586,37H25z M30,35.586L26.414,32H30V35.586z M30,30h-3.586L30,26.414V30z M30,21.586L26.414,18H30V21.586z M30,16h-3.586L30,12.414V16z M32,12.414L35.586,16H32V12.414z M32,18h3.586L32,21.586V18z M32,26.414L35.586,30H32V26.414z M32,35.586V32h3.586L32,35.586z M37,37h-3.586L37,33.414V37z M37,28.586L33.414,25H37V28.586z M37,23h-3.586L37,19.414V23z M37,14.586L33.414,11H37V14.586z M39,28.586V25h3.586L39,28.586z M42.586,23H39v-3.586L42.586,23z"/></svg>