<svg xmlns="http://www.w3.org/2000/svg"  viewBox="0 0 48 48" width="50px" height="50px"><path fill="#EF6C00" d="M25 29L23 27 23 43 25 43zM31 35L29 33 29 43 31 43z"/><path fill="#009688" d="M5 24H7V43H5zM17 24H19V43H17z"/><path fill="#00796B" d="M8 28H17V30H8zM8 32H17V34H8zM8 36H17V38H8zM8 40H17V42H8z"/><g><path fill="#004D40" d="M7 28H8V30H7zM7 32H8V34H7zM7 36H8V38H7zM7 40H8V42H7z"/></g><path fill="#F44336" d="M19 12L5 12 12 5z"/><path fill="#2196F3" d="M5,12v14h14V12H5z"/><path fill="#0D47A1" d="M12,15c-2.2,0-4,1.8-4,4s1.8,4,4,4s4-1.8,4-4S14.2,15,12,15z"/><path fill="#FF9800" d="M43,43h-6L21,26h-2v-7h0.8c0.8,0,1.5,0.4,1.8,1.1L24,25l13,14h4c1.1,0,2,0.9,2,2V43z"/></svg>