<svg xmlns="http://www.w3.org/2000/svg"  viewBox="0 0 48 48" width="50px" height="50px"><path fill="#bdbdbd" d="M33.5,46c-1.03,0-1.995-0.642-2.357-1.668l-6-17c-0.46-1.302,0.224-2.73,1.525-3.189 c1.303-0.459,2.73,0.223,3.189,1.525l6,17c0.46,1.302-0.224,2.73-1.525,3.189C34.057,45.955,33.776,46,33.5,46z"/><circle cx="25" cy="26" r="3" fill="#e0e0e0"/><path fill="#e0e0e0" d="M18.499,46c-0.576,0-1.154-0.198-1.626-0.602c-1.048-0.898-1.17-2.477-0.271-3.525l5.656-6.598 l2.848-9.493c0.397-1.323,1.788-2.073,3.113-1.676c1.322,0.396,2.072,1.791,1.676,3.113l-3.152,10.507l-6.344,7.402 C19.903,45.704,19.203,46,18.499,46z"/><path fill="#546e7a" d="M14.251,11.008c3.058,2.792,8.117,6.018,8.117,6.018l-0.538,0.843c0,0-5.059-3.226-8.881-4.821 c-2.073-0.859-2.862-1.481-3.461-1.863c-2.529-1.613-3.794-2.42-3.794-2.42c-0.7-0.446-0.904-1.371-0.458-2.071 S6.608,5.79,7.307,6.236c0,0,1.265,0.807,3.794,2.42C11.7,9.037,12.597,9.491,14.251,11.008z"/><rect width="8" height="12" x="22" y="14" fill="#ff7043"/><path fill="#ffe0b2" d="M15.999,20c-0.852,0-1.641-0.548-1.908-1.404c-0.329-1.054,0.259-2.176,1.313-2.506l16-5 c1.052-0.328,2.176,0.258,2.506,1.313c0.329,1.054-0.259,2.176-1.313,2.506l-16,5C16.398,19.971,16.197,20,15.999,20z"/><path fill="#ffe0b2" d="M25,4c2.209,0,4,1.791,4,4s-1.791,4-4,4s-4-1.791-4-4S22.791,4,25,4"/><circle cx="40" cy="7" r="2" fill="#b0bec5"/><rect width="12.514" height="4" x="18.351" y="13.31" fill="#ff7043" transform="rotate(-17.355 24.607 15.31)"/><path fill="#ff7043" d="M27.819,6.974l2.819-1.026l-0.342-0.94l-2.588,0.071c-1.065-0.985-2.619-1.368-4.076-0.838 c-2.077,0.756-3.147,3.05-2.391,5.127l0,0c0,0,0.304,0.949,1.187,1.696l2.316-0.843c1.038-0.378,1.573-1.526,1.195-2.563 L27.819,6.974L27.819,6.974z"/></svg>