<svg xmlns="http://www.w3.org/2000/svg"  viewBox="0 0 48 48" width="50px" height="50px"><path fill="#FF1744" d="M31 15H45V25H31z"/><path fill="#D50000" d="M31 17H45V19H31z"/><path fill="#FF1744" d="M3 15H17V25H3z"/><path fill="#D50000" d="M3 17H17V19H3z"/><path fill="#37474F" d="M46,15v2h-4v4h-2v-4h-4v4h-2v-4h-4v-2H46z M30,26h16v-2H30V26z M2,17h4v4h2v-4h4v4h2v-4h4v-2H2V17z M2,26h16v-2H2V26z"/><path fill="#C5CAE9" d="M33,43c-0.2,0-0.5-0.1-0.7-0.3L24,35.3l-8.3,7.4c-0.4,0.4-1,0.3-1.4-0.1c-0.4-0.4-0.3-1,0.1-1.4l9.7-8.6l9.7,8.6c0.4,0.4,0.5,1,0.1,1.4C33.5,42.9,33.3,43,33,43z M39,26h-2v17h2V26z M11,26H9v17h2V26z"/><path fill="#9FA8DA" d="M39,15h-2V8h2V15z M11,8H9v7h2V8z"/><path fill="#263238" d="M24,19c-6.6,0-12,5.4-12,12s5.4,12,12,12s12-5.4,12-12S30.6,19,24,19L24,19z"/><path fill="#546E7A" d="M24,21c-5.5,0-10,4.5-10,10c0,5.5,4.5,10,10,10s10-4.5,10-10C34,25.5,29.5,21,24,21z"/><path fill="#FFC107" d="M43,12H33c-0.5,0-1-0.4-1-1v0c0-0.5,0.5-1,1-1h10c0.5,0,1,0.4,1,1v0C44,11.6,43.5,12,43,12z M43,7h-3c0,0-0.9-1-2-1s-2,1-2,1h-3c-0.5,0-1,0.5-1,1s0.5,1,1,1h10c0.5,0,1-0.5,1-1S43.5,7,43,7z M15.4,9.1l-3.5-1.4c-0.1-0.2-0.5-1.3-1.5-1.6c-1-0.4-2.1,0.1-2.2,0.2L5.4,5.1c-0.5-0.2-1.1,0-1.3,0.6c-0.2,0.5,0,1.1,0.6,1.3l10,4c0.1,0,0.2,0.1,0.4,0.1c0.4,0,0.8-0.2,0.9-0.6C16.1,9.9,15.9,9.3,15.4,9.1z"/></svg>