<svg xmlns="http://www.w3.org/2000/svg"  viewBox="0 0 48 48" width="50px" height="50px"><path fill="#ff6f00" d="M21.599,16.721c-3.786-4.753-9.937-6.15-13.739-3.121s-3.815,9.337-0.029,14.089c2.487,3.122,5.995,4.796,9.187,4.718c2.138-0.052,4.2,0.787,5.533,2.46l0.108,0.135c0.528,1.528,1.581,3.397,2.878,5.026c2.423,3.042,4.763,4.082,5.904,3.174s0.649-3.423-1.774-6.464c-1.298-1.629-2.884-3.073-4.255-3.929l-0.108-0.135c-1.333-1.673-1.689-3.87-1.161-5.943C24.934,23.637,24.087,19.844,21.599,16.721z"/><path fill="#ffc107" d="M5.83,24.219l12.834-10.224c-3.561-2.427-7.877-2.727-10.804-0.396S4.261,20.206,5.83,24.219z"/><path fill="#b71c1c" d="M8.708,28.678c2.397,2.48,5.476,3.798,8.31,3.729c0.358-0.009,0.712,0.017,1.062,0.058l5.882-4.686c0.038-0.351,0.093-0.701,0.181-1.048c0.701-2.747,0.105-6.043-1.777-8.933L8.708,28.678z"/><path fill="#ffb74d" d="M43.442,17.335c1.72-5.828-0.666-11.667-5.328-13.043s-9.836,2.233-11.555,8.061c-1.13,3.829-0.487,7.662,1.408,10.232c1.27,1.721,1.766,3.891,1.161,5.943l-0.049,0.166c-0.948,1.309-1.875,3.244-2.464,5.241c-1.101,3.73-0.61,6.244,0.789,6.656s3.176-1.432,4.276-5.162c0.589-1.998,0.862-4.126,0.776-5.74l0.049-0.166c0.605-2.052,2.2-3.604,4.201-4.361C39.691,24.035,42.312,21.164,43.442,17.335z"/><path fill="#f44336" d="M28.252,8.724l15.737,4.644c-0.056-4.308-2.286-8.016-5.876-9.075S30.638,5.136,28.252,8.724z"/><path fill="#009688" d="M26.252,13.64c-0.656,3.386,0.032,6.664,1.715,8.946c0.213,0.288,0.395,0.592,0.562,0.903l7.213,2.128c0.309-0.17,0.628-0.327,0.963-0.453c2.652-1.002,5.009-3.382,6.296-6.582L26.252,13.64z"/></svg>