<svg xmlns="http://www.w3.org/2000/svg"  viewBox="0 0 48 48" width="50px" height="50px"><path fill="#2196F3" d="M34.2,23.7c-0.4-0.9-4-9.3-6.6-12.3C24.8,8.4,21.6,7,17.4,7c-1.1,0-2,0.9-2,2s0.9,2,2,2c3.1,0,5.1,0.9,7.1,3.1c1.9,2.1,4.9,8.7,5.9,11.1c0.3,0.8,1.1,1.2,1.8,1.2c0.3,0,0.5-0.1,0.8-0.2C34.1,25.9,34.6,24.7,34.2,23.7z"/><path fill="#3F51B5" d="M37 22H41V40H37zM22 28.2H26V40H22zM9 24.2L5 19.2 5 40 9 40z"/><path fill="#2196F3" d="M43,18.3l-15.9,7.3c-2.6,1.2-6.1,1.9-9.1,1.9c-4.9,0-9-3.7-9-8.2c0-4.5,4-8.2,9-8.2c1.1,0,2-0.9,2-2s-0.9-2-2-2C10.8,7,5,12.5,5,19.2s5.8,12.2,13,12.2c3.6,0,7.7-0.8,10.8-2.2L43,22.7V18.3z"/><path fill="#B71C1C" d="M33.9 17H37.4V20.5H33.9z" transform="rotate(-24.605 35.655 18.788)"/><path fill="#FFB74D" d="M31.2 15.2A1.3 1.3 0 1 0 31.2 17.8 1.3 1.3 0 1 0 31.2 15.2zM27.2 17A1.3 1.3 0 1 0 27.2 19.6 1.3 1.3 0 1 0 27.2 17zM41.6 10.399999999999999A1.3 1.3 0 1 0 41.6 13 1.3 1.3 0 1 0 41.6 10.399999999999999zM37.6 12.2A1.3 1.3 0 1 0 37.6 14.8 1.3 1.3 0 1 0 37.6 12.2z"/><g><path fill="#F44336" d="M36 21.5l-8.8 4L25 25.2c-.5-.1-.9-.6-.9-1.1l.3-2.6c.1-1 .7-1.8 1.6-2.2l5.8-2.6c.9-.4 1.9 0 2.3.9L36 21.5zM43 11.6l-6.4 2.9c-.9.4-1.3 1.4-.9 2.3l1.8 4 5.4-2.5V11.6z"/></g></svg>