<svg xmlns="http://www.w3.org/2000/svg"  viewBox="0 0 48 48" width="50px" height="50px"><path fill="#78909c" d="M28,15.909c0-5.583-4.114-9.91-9.681-9.91C15.825,5.999,13.76,7.495,12,9 c-1.701-0.57-5.002-2-8.002-2L4,32v10h5.998c0,0,0.182-7.098,1-10C12.321,27.31,16,23,16,23c4.346,0,6.649,1.513,7.833,2.84 C24.605,26.706,25,27.84,25,29v0h3v-1.452V17.353V16.39h-0.029C27.984,16.231,28,16.074,28,15.909z"/><path fill="#37474f" d="M23,16c-0.552,0-1,0.447-1,1c0,0.552,0.447,1,1,1c0.552,0,1-0.447,1-1 C23.999,16.447,23.552,16,23,16z"/><path fill="#b0bec5" d="M6,13.273C6,17.58,8.281,21.069,13,23c0,0,2.017-7.687,2.773-10.333c0,0,1.222-0.872,1.222-2.222 c0-2.455-2.521-4.444-5.22-4.444S6,8.488,6,13.273z"/><path fill="#ffb74d" d="M41.5,18c-1.356,0-2.5,1.144-2.5,2.5c0,1.356,1.144,2.5,2.5,2.5s2.5-1.144,2.5-2.5 C44,19.144,42.856,18,41.5,18"/><path fill="#2196f3" d="M41.65,42L41.65,42c-0.618,0-1.124-0.558-1.147-1.264L40,26h4l-0.193,4.885 c0,0.77-0.157,1.529-0.458,2.217l-0.086,0.196l-0.468,7.483C42.753,41.468,42.253,42,41.65,42z"/><path fill="#2196f3" d="M42,24c-1.085,0-2,0.915-2,2c0,1.085,0.915,2,2,2s2-0.915,2-2C44,24.915,43.085,24,42,24"/><path fill="#e91e63" d="M33.711,40.953l-0.709-8.945L37,32l-0.177,2.917c0,0.49-0.144,0.974-0.42,1.413l-0.079,0.125 l-0.348,4.497C35.931,41.543,35.437,42,34.844,42l0,0C34.251,42,33.758,41.544,33.711,40.953z"/><path fill="#e91e63" d="M35,30c-1.085,0-2,0.915-2,2c0,1.085,0.915,2,2,2c1.085,0,2-0.915,2-2C37,30.915,36.085,30,35,30"/><path fill="#795548" d="M4,26h13v16H4V26z"/><path fill="#5d4037" d="M3.998,29v-3H19v3H3.998z"/><path fill="#78909c" d="M23,34v-2.946c1.166,0,2-0.819,2-1.964V28h3v1.089C28,31.953,25.916,34,23,34z"/><path fill="#ffb74d" d="M35,25c-1.085,0-2,0.915-2,2s0.915,2,2,2c1.085,0,2-0.915,2-2S36.085,25,35,25"/></svg>