<svg xmlns="http://www.w3.org/2000/svg"  viewBox="0 0 48 48" width="50px" height="50px"><path fill="#9FA8DA" d="M18,17c-0.3,0-0.5-0.1-0.7-0.3C17.1,16.5,17,16.3,17,16c0-0.3,0.1-0.5,0.3-0.7c0.4-0.4,1-0.4,1.4,0c0.2,0.2,0.3,0.4,0.3,0.7c0,0.3-0.1,0.5-0.3,0.7C18.5,16.9,18.3,17,18,17z M15.5,25.6L15.5,25.6c0.4,0,0.8-0.3,1-0.7l0,0c0.1-0.5-0.2-1.1-0.7-1.2l0,0c-0.5-0.2-1.1,0.1-1.2,0.7l0,0c-0.1,0.5,0.2,1.1,0.7,1.2C15.3,25.6,15.4,25.6,15.5,25.6z M16.3,22.8L16.3,22.8c0.4,0,0.8-0.3,1-0.7l0,0c0.1-0.5-0.2-1.1-0.7-1.2l0,0c-0.5-0.2-1.1,0.1-1.2,0.7l0,0c-0.1,0.5,0.2,1.1,0.7,1.2C16.2,22.7,16.3,22.8,16.3,22.8z M17.2,19.9L17.2,19.9c0.4,0,0.8-0.3,1-0.7l0,0c0.2-0.5-0.1-1.1-0.7-1.2l0,0c-0.5-0.1-1.1,0.2-1.2,0.7l0,0c-0.1,0.5,0.1,1.1,0.7,1.2C17,19.9,17.1,19.9,17.2,19.9z M15.4,28.2c0.2-0.2,0.3-0.5,0.3-0.7s-0.1-0.5-0.3-0.7c-0.4-0.4-1-0.4-1.4,0c-0.2,0.2-0.3,0.5-0.3,0.7s0.1,0.5,0.3,0.7c0.2,0.2,0.4,0.3,0.7,0.3C14.9,28.5,15.2,28.4,15.4,28.2z M6.6,24.9L6.6,24.9c0.4,0,0.7-0.2,0.9-0.5l0,0c0.3-0.5,0.1-1.1-0.4-1.4l0,0c-0.5-0.3-1.1-0.1-1.4,0.4l0,0c-0.3,0.5-0.1,1.1,0.4,1.4C6.3,24.8,6.5,24.9,6.6,24.9z M8.1,22.2L8.1,22.2c0.4,0,0.7-0.2,0.9-0.5l0,0c0.3-0.5,0.1-1.1-0.4-1.4l0,0c-0.5-0.3-1.1-0.1-1.4,0.4l0,0c-0.3,0.5-0.1,1.1,0.4,1.4C7.8,22.2,7.9,22.2,8.1,22.2z M9.5,19.6L9.5,19.6c0.3,0,0.7-0.2,0.9-0.5l0,0c0.3-0.5,0.1-1.1-0.4-1.4l0,0c-0.5-0.3-1.1-0.1-1.4,0.4l0,0c-0.3,0.5-0.1,1.1,0.4,1.4C9.2,19.6,9.4,19.6,9.5,19.6z M11,17L11,17c0.3,0,0.7-0.2,0.9-0.5l0,0c0.3-0.5,0.1-1.1-0.4-1.4l0,0c-0.5-0.3-1.1-0.1-1.4,0.4l0,0c-0.3,0.5-0.1,1.1,0.4,1.3C10.7,17,10.8,17,11,17z M30.7,16.7c0.2-0.2,0.3-0.5,0.3-0.7c0-0.3-0.1-0.5-0.3-0.7c-0.4-0.4-1-0.4-1.4,0C29.1,15.5,29,15.7,29,16c0,0.3,0.1,0.5,0.3,0.7c0.2,0.2,0.5,0.3,0.7,0.3S30.5,16.9,30.7,16.7z M32.5,25.6L32.5,25.6c0.1,0,0.2,0,0.3,0l0,0c0.5-0.2,0.8-0.7,0.7-1.2l0,0c-0.1-0.5-0.7-0.8-1.2-0.7l0,0c-0.5,0.2-0.8,0.7-0.7,1.2C31.6,25.3,32,25.6,32.5,25.6z M31.7,22.8L31.7,22.8c0.1,0,0.2,0,0.3,0l0,0c0.5-0.1,0.8-0.7,0.7-1.2l0,0c-0.2-0.5-0.7-0.8-1.2-0.7l0,0c-0.5,0.1-0.8,0.7-0.7,1.2C30.8,22.5,31.2,22.8,31.7,22.8z M30.8,19.9L30.8,19.9c0.1,0,0.2,0,0.3,0l0,0c0.5-0.2,0.8-0.7,0.7-1.2l0,0c-0.2-0.5-0.7-0.8-1.2-0.7l0,0c-0.5,0.1-0.8,0.7-0.7,1.2C30,19.6,30.4,19.9,30.8,19.9z M34,28.2c0.2-0.2,0.3-0.5,0.3-0.7S34.2,27,34,26.8c-0.4-0.4-1-0.4-1.4,0c-0.2,0.2-0.3,0.5-0.3,0.7s0.1,0.5,0.3,0.7c0.2,0.2,0.5,0.3,0.7,0.3S33.8,28.4,34,28.2z M41.4,24.9L41.4,24.9c0.2,0,0.3,0,0.5-0.1l0,0c0.5-0.3,0.7-0.9,0.4-1.4l0,0c-0.3-0.5-0.9-0.6-1.4-0.4l0,0c-0.5,0.3-0.7,0.9-0.4,1.4C40.7,24.7,41,24.9,41.4,24.9z M39.9,22.3L39.9,22.3c0.2,0,0.3,0,0.5-0.1l0,0c0.5-0.3,0.7-0.9,0.4-1.4l0,0c-0.3-0.5-0.9-0.7-1.4-0.4l0,0c-0.5,0.3-0.7,0.9-0.4,1.4C39.2,22.1,39.6,22.3,39.9,22.3z M38.5,19.6L38.5,19.6c0.2,0,0.3,0,0.5-0.1l0,0c0.5-0.3,0.7-0.9,0.4-1.4l0,0c-0.3-0.5-0.9-0.7-1.4-0.4l0,0c-0.5,0.3-0.7,0.9-0.4,1.4C37.8,19.4,38.1,19.6,38.5,19.6z M37,17L37,17c0.2,0,0.3,0,0.5-0.1l0,0c0.5-0.3,0.6-0.9,0.4-1.4l0,0c-0.3-0.5-0.9-0.6-1.4-0.4l0,0c-0.5,0.3-0.7,0.9-0.4,1.4C36.3,16.8,36.6,17,37,17z M13,35c1.7,0,3-1.3,3-3c0-1.7-1.3-3-3-3s-3,1.3-3,3C10,33.7,11.3,35,13,35z M4,31c1.7,0,3-1.3,3-3s-1.3-3-3-3s-3,1.3-3,3S2.3,31,4,31z M38,32c0-1.7-1.3-3-3-3s-3,1.3-3,3c0,1.7,1.3,3,3,3S38,33.7,38,32z M47,28c0-1.7-1.3-3-3-3s-3,1.3-3,3s1.3,3,3,3S47,29.7,47,28z"/><path fill="#FFC107" d="M21 16H27V39H21z"/><path fill="#FFA000" d="M21 16H27V18H21z"/><path fill="#2E7D32" d="M15,43v-2c0-1.6,1.3-3,3-3h12c1.7,0,3,1.4,3,3v2H15z M24,5l-13,5h27L24,5z"/><path fill="#4CAF50" d="M7,9l0.7,5.7C7.7,15.4,8.3,16,9,16h30c0.7,0,1.3-0.6,1.3-1.3L41,9H7z"/><path fill="#FDD835" d="M25,13c0,0.6-0.4,1-1,1s-1-0.4-1-1s0.4-1,1-1S25,12.4,25,13z M28,12c-0.6,0-1,0.4-1,1s0.4,1,1,1s1-0.4,1-1S28.6,12,28,12z M20,12c-0.6,0-1,0.4-1,1s0.4,1,1,1s1-0.4,1-1S20.6,12,20,12z M32,12c-0.6,0-1,0.4-1,1s0.4,1,1,1s1-0.4,1-1S32.6,12,32,12z M16,12c-0.6,0-1,0.4-1,1s0.4,1,1,1c0.6,0,1-0.4,1-1S16.6,12,16,12z M36,12c-0.6,0-1,0.4-1,1s0.4,1,1,1s1-0.4,1-1S36.6,12,36,12z M12,12c-0.6,0-1,0.4-1,1s0.4,1,1,1s1-0.4,1-1S12.6,12,12,12z"/></svg>