<svg xmlns="http://www.w3.org/2000/svg"  viewBox="0 0 48 48" width="50px" height="50px"><path fill="#b0bec5" d="M5,44c-0.3,0-0.5-0.1-0.7-0.3c-0.4-0.4-0.4-1,0-1.4l32-32c0.4-0.4,1-0.4,1.4,0s0.4,1,0,1.4l-32,32 C5.5,43.9,5.3,44,5,44z"/><path fill="#607d8b" d="M13.5,36c-0.4,0-0.8-0.1-1.1-0.4c-0.6-0.6-0.6-1.5,0-2.1l15-15c0.6-0.6,1.5-0.6,2.1,0 c0.6,0.6,0.6,1.5,0,2.1l-15,15C14.3,35.9,13.9,36,13.5,36z"/><path fill="#d84315" d="M29,20c-0.3,0-0.5-0.1-0.7-0.3c-0.4-0.4-0.4-1,0-1.4l9-9c0.4-0.4,1-0.4,1.4,0s0.4,1,0,1.4l-9,9 C29.5,19.9,29.3,20,29,20z"/><path fill="#ffc107" d="M28,36c-0.6,0-1-0.4-1-1V5c0-0.6,0.4-1,1-1s1,0.4,1,1v30C29,35.6,28.6,36,28,36z"/><path fill="#ffc107" d="M31.7 31c-.4 0-.8-.2-.9-.6l-6.4-17c-.2-.5.1-1.1.6-1.3.5-.2 1.1.1 1.3.6l6.4 17c.2.5-.1 1.1-.6 1.3C31.9 31 31.8 31 31.7 31zM24.1 11c-.4 0-.8-.2-.9-.6l-1.1-3c-.2-.5.1-1.1.6-1.3.5-.2 1.1.1 1.3.6l1.1 3c.2.5-.1 1.1-.6 1.3C24.4 11 24.3 11 24.1 11z"/><path fill="#ffc107" d="M43,21H13c-0.6,0-1-0.4-1-1s0.4-1,1-1h30c0.6,0,1,0.4,1,1S43.6,21,43,21z"/><path fill="#ffc107" d="M39,32c-0.3,0-0.5-0.1-0.7-0.3l-22-22c-0.4-0.4-0.4-1,0-1.4s1-0.4,1.4,0l22,22c0.4,0.4,0.4,1,0,1.4 C39.5,31.9,39.3,32,39,32z"/><path fill="#ffc107" d="M28 21c-.3 0-.5-.1-.7-.3-.4-.4-.4-1 0-1.4l11-11c.4-.4 1-.4 1.4 0s.4 1 0 1.4l-11 11C28.5 20.9 28.3 21 28 21zM33 32A1 1 0 1 0 33 34 1 1 0 1 0 33 32zM23 34c-.1 0-.2 0-.4-.1-.5-.2-.8-.8-.6-1.3l.8-2c.2-.5.8-.8 1.3-.6.5.2.8.8.6 1.3l-.8 2C23.8 33.8 23.4 34 23 34z"/><path fill="#ffc107" d="M24.9 29c-.1 0-.2 0-.4-.1-.5-.2-.8-.8-.6-1.3l7-18c.2-.5.8-.8 1.3-.6.5.2.8.8.6 1.3l-7 18C25.7 28.8 25.3 29 24.9 29zM33 6A1 1 0 1 0 33 8 1 1 0 1 0 33 6z"/><path fill="#ffc107" d="M15 26c-.4 0-.8-.2-.9-.6-.2-.5.1-1.1.6-1.3l26-10c.5-.2 1.1.1 1.3.6.2.5-.1 1.1-.6 1.3l-26 10C15.2 26 15.1 26 15 26zM41 26c-.1 0-.2 0-.4-.1l-2-.8c-.5-.2-.8-.8-.6-1.3.2-.5.8-.8 1.3-.6l2 .8c.5.2.8.8.6 1.3C41.8 25.8 41.4 26 41 26z"/><path fill="#ffc107" d="M36 24.1c-.1 0-.2 0-.4-.1l-15-5.8c-.5-.2-.8-.8-.6-1.3.2-.5.8-.8 1.3-.6l15 5.8c.5.2.8.8.6 1.3C36.8 23.9 36.4 24.1 36 24.1zM17 16.8c-.1 0-.2 0-.4-.1l-2-.8c-.5-.2-.8-.8-.6-1.3.2-.5.8-.8 1.3-.6l2 .8c.5.2.8.8.6 1.3C17.8 16.5 17.4 16.8 17 16.8z"/><path fill="#ffecb3" d="M28 18A2 2 0 1 0 28 22A2 2 0 1 0 28 18Z"/></svg>