<svg xmlns="http://www.w3.org/2000/svg"  viewBox="0 0 48 48" width="50px" height="50px"><path fill="#ffd600" d="M7,10.971l-3,8c0,0,1.633,0.124,3.233,0.575c2.077,0.982,1.97,3.073,1.249,5.039C8.33,24.712,8.175,24.839,8,24.971c-2.813,2.125-4.688,9-4.688,9L11,38.252c0,0-0.834-9.281,3-9.281h0.011c1.39,1.159,2.989,2,2.989,2c0.09,0,0.342,0,1,0c2.001,0,3.739-0.781,4.823-2h15.735l0.545,1.633c0.272,0.817,1.036,1.367,1.897,1.367c1.105,0,2-0.895,2-2v-19H7z M14,25.971c0-1.657,1.791-3,4-3c2.209,0,4,1.343,4,3s-1.791,3-4,3C15.791,28.971,14,27.628,14,25.971z"/><path fill="#455a64" d="M40,24.971H25v-10h15V24.971z M10,8.971v-1H8v3h13v-2H10z M9.836,39.883C10.342,40.2,11,39.835,11,39.238v-0.985l-7.688-4.281c0,0-0.123,0.467-0.282,1.128c-0.131,0.546,0.101,1.117,0.577,1.415L9.836,39.883z"/><path d="M40,18.971H28v-2h12V18.971z M40,20.971H28v2h12V20.971z"/><path fill="#ff6d00" d="M43,19.971h2v-5h-2V19.971z M40,24.971h-2v-10h2V24.971z M18,25.971c0,1.103,0.508,2.096,1.321,2.819c-0.415,0.11-0.855,0.181-1.321,0.181c-2.209,0-4-1.343-4-3s1.791-3,4-3c0.465,0,0.905,0.071,1.32,0.181C18.508,23.875,18,24.868,18,25.971z"/><path fill="#90a4ae" d="M22,10.971l-2,6H4.75l0.658-1.755l-1.041-0.347C3.551,14.596,3,13.832,3,12.971c0-1.105,0.895-2,2-2H22z M14,28.971c0,0-1.416-1.25-4-2c-3.371,1.908-4.225,6.279-4.547,8.192L11,38.252C11,38.252,10.583,28.971,14,28.971z"/></svg>