<svg xmlns="http://www.w3.org/2000/svg"  viewBox="0 0 48 48" width="50px" height="50px" fill-rule="evenodd" clip-rule="evenodd"><path fill="#bdbdbd" fill-rule="evenodd" d="M39 9L9 9 5 26 43 26z" clip-rule="evenodd"/><path fill="#e0e0e0" fill-rule="evenodd" d="M43 26L5 26 4 31 5 36 43 36 44 31z" clip-rule="evenodd"/><path fill="#e0e0e0" fill-rule="evenodd" d="M43 26L5 26 4 31 5 36 43 36 44 31z" clip-rule="evenodd"/><path fill="#bdbdbd" fill-rule="evenodd" d="M6 36H42V38H6z" clip-rule="evenodd"/><path fill="#ccc" fill-rule="evenodd" d="M12 20H21V26H12z" clip-rule="evenodd"/><path fill="#f5f5f5" fill-rule="evenodd" d="M12 26H21V36H12z" clip-rule="evenodd"/><path fill="#ccc" fill-rule="evenodd" d="M27 20.017L36 20 36 26 27 26z" clip-rule="evenodd"/><path fill="#e0e0e0" fill-rule="evenodd" d="M40.176 13.996L7.824 13.996 6.408 20 41.588 19.994z" clip-rule="evenodd"/><path fill="#f5f5f5" fill-rule="evenodd" d="M27 26H36V36H27z" clip-rule="evenodd"/><path fill="#9771cf" fill-rule="evenodd" d="M12 20H21V22H12zM27 20.017L36 20 36 22 27.002 22z" clip-rule="evenodd"/><path fill="#757575" fill-rule="evenodd" d="M13.869 32C13.389 31.996 13 31.55 13 31c0-.552.392-1 .875-1H20v2h-6.125H13.869zM28 30h6.126C34.609 30.001 35 30.449 35 31s-.391.999-.874 1H28V30zM35 8L31 8 31 7 17 7 17 8 13 8 13 18 35 18z" clip-rule="evenodd"/><path fill="#4db6ac" fill-rule="evenodd" d="M29,7H19c0,0,0,5.723,0,8.042c0,0.254,0.102,0.498,0.283,0.678 C19.464,15.899,19.71,16,19.966,16c2.266,0,5.802,0,8.068,0c0.256,0,0.502-0.101,0.683-0.281C28.898,15.54,29,15.296,29,15.042 C29,12.723,29,7,29,7z" clip-rule="evenodd"/></svg>