<svg xmlns="http://www.w3.org/2000/svg"  viewBox="0 0 48 48" width="50px" height="50px" baseProfile="basic"><path fill="#81c784" d="M21,29H6V3h15c1.105,0,2,0.895,2,2v22C23,28.105,22.105,29,21,29z"/><path fill="#43a047" d="M6,29H3c-1.105,0-2-0.895-2-2V5c0-1.105,0.895-2,2-2h3V29z"/><path fill="#3f51b5" d="M27,45h2h14h2h2V19H25v12v7v7H27z M43,21h2v2h-2V21z M43,25h2v2h-2V25z M43,29h2v2h-2V29z M43,33h2v2	h-2V33z M43,37h2v2h-2V37z M43,41h2v2h-2V41z M27,21h2v2h-2V21z M27,25h2v2h-2V25z M27,29h2v2h-2V29z M27,33h2v2h-2V33z M27,37h2v2	h-2V37z M27,41h2v2h-2V41z"/><polyline fill="none" stroke="#ff5252" stroke-miterlimit="10" stroke-width="2" points="12,31 12,38 19,38"/><polygon fill="#ff5252" points="23,38 18,34.536 18,41.464"/><rect width="10" height="10" x="31" y="21" fill="#1e88e5"/><rect width="10" height="10" x="31" y="33" fill="#1e88e5"/><rect width="11" height="2" x="9" y="9" fill="#43a047"/><rect width="11" height="2" x="9" y="13" fill="#43a047"/></svg>