<svg xmlns="http://www.w3.org/2000/svg"  viewBox="0 0 48 48" width="50px" height="50px" fill-rule="evenodd" clip-rule="evenodd"><path fill="#bdbdbd" fill-rule="evenodd" d="M11.901 29.768A1.784 1.784 0 1 0 11.901 33.336A1.784 1.784 0 1 0 11.901 29.768Z" clip-rule="evenodd"/><path fill="#757575" fill-rule="evenodd" d="M43.1,14.524c0-1.987-2.134-3.524-4.121-3.524H8.958 c-1.987,0-3.979,1.971-3.979,3.958l-1,16.104c0,1.987,1.734,3.861,3.721,3.861h32.8c1.987,0,3.6-1.613,3.6-3.6L43.1,14.524z" clip-rule="evenodd"/><path fill="#424242" d="M43.281,28.6l-7.053-0.426c-0.836-0.051-1.607-0.402-2.332-0.84C31.428,25.84,26.857,25,24,25 c-2.857,0-7.2,0.96-9.862,2.308c-0.757,0.383-1.504,0.784-2.342,0.838L4.719,28.6c-0.397,0-0.719,0.338-0.727,0.77v6.89 C4,36.662,4.322,37,4.719,37h38.562C43.678,37,44,36.662,44,36.245v-6.89C44,28.938,43.678,28.6,43.281,28.6z"/><path fill="#424242" fill-rule="evenodd" d="M2 30H12V37H2zM24 15.5A11 2.5 0 1 0 24 20.5 11 2.5 0 1 0 24 15.5z" clip-rule="evenodd"/><path fill="#e0e0e0" d="M13,18c7.782,0.032,17.271,0.079,22,0V8.008c0-0.56-0.348-1.057-0.863-1.229 C32.471,6.221,28.972,4.949,24,5c-5.002,0.051-8.307,1.212-10.159,1.875C13.337,7.056,13,7.546,13,8.097V18z"/><path fill="#757575" fill-rule="evenodd" d="M12,30.013C11.983,31.111,9.749,32,7,32c-2.76,0-5-0.896-5-2 h10L12,30.013z" clip-rule="evenodd"/><path fill="#757575" fill-rule="evenodd" d="M4.542,23.958l-0.397,6.081L2,30 C2,29.01,2.573,26.966,4.542,23.958z" clip-rule="evenodd"/><path fill="#424242" fill-rule="evenodd" d="M12 36.927c-.017 1.098-2.251 1.987-5 1.987-2.76 0-5-.896-5-2h10L12 36.927zM36 30H46V36.843H36z" clip-rule="evenodd"/><path fill="#757575" fill-rule="evenodd" d="M36,29.856c0.017,1.098,2.251,1.987,5,1.987 c2.76,0,5-0.896,5-2H36L36,29.856z" clip-rule="evenodd"/><path fill="#757575" fill-rule="evenodd" d="M43.583,23.875L44,30h2 C45.916,29.178,45.469,26.966,43.583,23.875z" clip-rule="evenodd"/><path fill="#424242" fill-rule="evenodd" d="M36,36.77c0.017,1.098,2.251,1.987,5,1.987c2.76,0,5-0.896,5-2 H36L36,36.77z" clip-rule="evenodd"/><path fill="#afbec5" fill-rule="evenodd" d="M15.5 31A1.5 1.5 0 1 0 15.5 34A1.5 1.5 0 1 0 15.5 31Z" clip-rule="evenodd"/><path fill="#78909c" fill-rule="evenodd" d="M15.5 32A0.5 0.5 0 1 0 15.5 33A0.5 0.5 0 1 0 15.5 32Z" clip-rule="evenodd"/><path fill="#afbec5" fill-rule="evenodd" d="M19.5 31A1.5 1.5 0 1 0 19.5 34 1.5 1.5 0 1 0 19.5 31zM32.5 31A1.5 1.5 0 1 0 32.5 34 1.5 1.5 0 1 0 32.5 31zM28.5 31A1.5 1.5 0 1 0 28.5 34 1.5 1.5 0 1 0 28.5 31z" clip-rule="evenodd"/><path fill="#424242" fill-rule="evenodd" d="M12 24.5c0-.276-.224-.5-.5-.5h-1c-.276 0-.5.224-.5.5v2c0 .276.224.5.5.5h1c.276 0 .5-.224.5-.5V24.5zM36.758 24.5c0-.276-.224-.5-.5-.5h-1c-.276 0-.5.224-.5.5v2c0 .276.224.5.5.5h1c.276 0 .5-.224.5-.5V24.5z" clip-rule="evenodd"/><path fill="#78909c" fill-rule="evenodd" d="M19.5 32A.5.5 0 1 0 19.5 33 .5.5 0 1 0 19.5 32zM28.5 32A.5.5 0 1 0 28.5 33 .5.5 0 1 0 28.5 32zM32.5 32A.5.5 0 1 0 32.5 33 .5.5 0 1 0 32.5 32z" clip-rule="evenodd"/><path fill="#4fc3f7" d="M29,5.403C27.558,5.152,25.886,4.981,24,5c-1.911,0.02-3.571,0.202-5,0.456v12.568 c3.48,0.013,6.972,0.022,10,0.018V5.403z"/></svg>