<svg xmlns="http://www.w3.org/2000/svg"  viewBox="0 0 48 48" width="50px" height="50px"><path fill="#B0BEC5" d="M27.2,20.9c-0.4-0.4-1-0.4-1.4,0l-4.1,3.9c0,0,0,0,0,0c0,0,0,0,0,0c-2.4,2.4-3,5.7-3.5,8.6C17.6,37.8,17,40,13.1,40C10,40,8,37.3,8,34.9c0-3.4,1.6-5.7,3.3-8.2c1.8-2.6,3.6-5.2,3.6-9c0-5.5-4-9.6-4.1-9.8c-0.4-0.4-1-0.4-1.4,0C9,8.2,9,8.9,9.4,9.2c0,0,3.6,3.7,3.6,8.4c0,3.2-1.6,5.5-3.3,7.9C7.9,28.2,6,30.9,6,34.9c0,3.4,2.8,7.1,7.1,7.1c5.8,0,6.5-4.4,7.2-8.2c0.5-2.7,0.9-5.6,2.9-7.6l4-3.9C27.6,21.9,27.6,21.3,27.2,20.9z"/><path fill="#D50000" d="M42 6L41 23 22 26 25 7z"/><path fill="#FF5252" d="M33,15l8,8l-19,3L33,15z M42,6L25,7l8,8L42,6z"/></svg>