<svg xmlns="http://www.w3.org/2000/svg"  viewBox="0 0 48 48" width="50px" height="50px" baseProfile="basic"><path fill="#bdbdbd" d="M7.586,32.586L9,34H5.27c-0.525,0-1.041-0.195-1.405-0.574C3.441,32.985,3.046,32.511,2.68,32h3.492	C6.702,32,7.211,32.211,7.586,32.586z"/><path fill="#bdbdbd" d="M6.172,15H2.68c0.366-0.511,0.761-0.985,1.185-1.426C4.228,13.195,4.744,13,5.27,13H9l-1.414,1.414	C7.211,14.789,6.702,15,6.172,15z"/><path fill="#bdbdbd" d="M41.828,15h3.492c-0.366-0.511-0.761-0.985-1.185-1.426C43.772,13.195,43.256,13,42.73,13H39	l1.414,1.414C40.789,14.789,41.298,15,41.828,15z"/><path fill="#616161" d="M45.32,15h-3.492c-0.53,0-1.039-0.211-1.414-0.586L39,13H24H9l-1.414,1.414	C7.211,14.789,6.702,15,6.172,15H2.68C1.01,17.31,0,20.28,0,23.5s1.01,6.19,2.68,8.5h3.492c0.53,0,1.039,0.211,1.414,0.586L9,34h15	h15l1.414-1.414C40.789,32.211,41.298,32,41.828,32h3.492c1.67-2.31,2.68-5.28,2.68-8.5S46.99,17.31,45.32,15z"/><rect width="24" height="17" x="12" y="15" fill="#212121"/><circle cx="7.5" cy="29.5" r="1.5" fill="#bdbdbd"/><circle cx="41.5" cy="22.5" r="3.5" fill="#757575"/><circle cx="6" cy="22.5" r="3.5" fill="#757575"/><circle cx="41.5" cy="19.625" r="1.375" fill="#bdbdbd"/><circle cx="38.625" cy="22.5" r="1.375" fill="#bdbdbd"/><circle cx="41.5" cy="25.375" r="1.375" fill="#bdbdbd"/><circle cx="44.375" cy="22.5" r="1.375" fill="#bdbdbd"/><path fill="#bdbdbd" d="M5,22.5l-1.29,1.29H2.595c-0.231,0-0.432-0.158-0.486-0.383C2.038,23.114,2,22.812,2,22.5	s0.038-0.614,0.109-0.907c0.054-0.225,0.255-0.383,0.486-0.383H3.71L5,22.5z"/><path fill="#bdbdbd" d="M6,23.5l1.29,1.29l0,1.115c0,0.231-0.158,0.432-0.383,0.486C6.614,26.462,6.312,26.5,6,26.5	s-0.614-0.038-0.907-0.109c-0.225-0.054-0.383-0.255-0.383-0.486l0-1.115L6,23.5z"/><path fill="#bdbdbd" d="M7,22.5l1.29-1.29l1.115,0c0.231,0,0.432,0.158,0.486,0.383C9.962,21.886,10,22.188,10,22.5	s-0.038,0.614-0.109,0.907c-0.054,0.225-0.255,0.383-0.486,0.383l-1.115,0L7,22.5z"/><path fill="#bdbdbd" d="M6,21.5l-1.29-1.29l0-1.115c0-0.231,0.158-0.432,0.383-0.486C5.386,18.538,5.688,18.5,6,18.5	s0.614,0.038,0.907,0.109c0.225,0.054,0.383,0.255,0.383,0.486l0,1.115L6,21.5z"/></svg>