<svg xmlns="http://www.w3.org/2000/svg"  viewBox="0 0 48 48" width="50px" height="50px"><circle cx="28" cy="28" r="2" fill="#ff9800"/><rect width="9" height="9" x="24" y="6" fill="#eceff1"/><rect width="9" height="9" x="15" y="33" fill="#eceff1"/><rect width="9" height="9" x="6" y="15" fill="#eceff1"/><rect width="9" height="9" x="33" y="24" fill="#eceff1"/><rect width="9" height="9" x="33" y="15" fill="#cfd8dc"/><rect width="9" height="9" x="6" y="24" fill="#cfd8dc"/><rect width="9" height="9" x="15" y="6" fill="#cfd8dc"/><rect width="9" height="9" x="24" y="33" fill="#cfd8dc"/><g><rect width="9" height="9" x="6" y="6" fill="#64b5f6"/><rect width="9" height="9" x="33" y="33" fill="#64b5f6"/><rect width="9" height="9" x="33" y="6" fill="#64b5f6"/><rect width="9" height="9" x="6" y="33" fill="#64b5f6"/></g><g><path fill="#d84315" d="M20,6.75h-1c0,0-1,2.25-1.95,4.938C16.823,12.33,17.32,13,18,13h3c0.68,0,1.177-0.67,0.95-1.312 C21,9,20,6.75,20,6.75z"/><circle cx="19.5" cy="5.5" r="1.5" fill="#d84315"/></g><polygon fill="#bf360c" points="19,25.5 18,18 29,19 30,24"/><rect width="12" height="7" x="18" y="17" fill="#d84315"/><circle cx="25" cy="29" r="2" fill="#ffc107"/></svg>