<svg xmlns="http://www.w3.org/2000/svg"  viewBox="0 0 48 48" width="50px" height="50px"><path fill="#546e7a" d="M6 6H42V28H6z"/><path fill="#e3f2fd" d="M8 8H40V26H8z"/><path fill="#e91e63" d="M38,27c-0.309-2.84-4.654-4-6-4c-1.922,0-5.156,0-8,0s-6.078,0-8,0c-1.346,0-5.691,1.16-6,4c-0.651,5.984-1,11.379-1,11.379C9,40.778,10.429,42,12.571,42c2.143,0,3.571-6,6.429-6c1.585,0,3.298,0,5,0s3.415,0,5,0c2.857,0,4.286,6,6.429,6C37.571,42,39,40.778,39,38.379C39,38.379,38.651,32.984,38,27z"/><path fill="#e91e63" d="M35 25h-3c-.55 0-1-.45-1-1v-3c0-.55.45-1 1-1h3c.55 0 1 .45 1 1v3C36 24.55 35.55 25 35 25zM13 25h3c.55 0 1-.45 1-1v-3c0-.55-.45-1-1-1h-3c-.55 0-1 .45-1 1v3C12 24.55 12.45 25 13 25z"/><path fill="#ff80ab" d="M33 22A5 5 0 1 0 33 32A5 5 0 1 0 33 22Z"/><path fill="#ff80ab" d="M29 30A4 4 0 1 0 29 38 4 4 0 1 0 29 30zM15 22A5 5 0 1 0 15 32 5 5 0 1 0 15 22z"/><path fill="#ff80ab" d="M19 30A4 4 0 1 0 19 38A4 4 0 1 0 19 30Z"/><path fill="#37474f" d="M33 24A1 1 0 1 0 33 26 1 1 0 1 0 33 24zM31 26A1 1 0 1 0 31 28 1 1 0 1 0 31 26zM33 28A1 1 0 1 0 33 30 1 1 0 1 0 33 28zM35 26A1 1 0 1 0 35 28 1 1 0 1 0 35 26zM31 34c0 1.105-.895 2-2 2s-2-.895-2-2 .895-2 2-2S31 32.895 31 34zM17 34c0 1.105.895 2 2 2s2-.895 2-2-.895-2-2-2S17 32.895 17 34zM18 26v2h-1l-1-1 1-1H18zM14 25l1 1 1-1v-1h-2V25zM13 28l1-1-1-1h-1v2H13zM16 29l-1-1-1 1v1h2V29z"/><g><path fill="#2196f3" d="M24 15L28.999 15 28.998 11 24 11.5zM24 19.5L29 20 29 16 24 16zM23 11.6L19 12 19 15 23 15zM23 16L19 16 19 19 23 19.4z"/></g></svg>