<svg xmlns="http://www.w3.org/2000/svg"  viewBox="0 0 48 48" width="50px" height="50px"><path fill="#ffc107" d="M4.619,25.376l3.395-3.368l2.29,3.01l0.513-4.443L16,19.508l-4.338-1.983l1.203-4.215l-3.698,1.549 L6.049,12l-0.736,4.951L2,18l3.368,2.318L4.619,25.376z"/><path fill="#fff" d="M6.792,21.794l1.415-1.404l0.955,1.255l0.214-1.852l2.16-0.445l-1.808-0.826l0.502-1.757 l-1.542,0.646l-1.299-1.192l-0.307,2.064L5.284,18.67l1.821,1.016L6.792,21.794z"/><path fill="#4e342e" d="M14.32,26.973l-0.36-2.754l-0.012,0.002c-0.296-1.777-1.562-2.592-2.518-3.153	c-1.108-0.763-1.445-1.021-1.264-1.953l-1.962-0.349c-0.409,2.272,1.036,3.294,2.131,3.957c0.963,0.566,1.514,0.996,1.646,1.852	l0.347,2.658L14.32,26.973z"/><path fill="#ff3d00" d="M5.316,29.816l7.442,10.303c24.878-21.842,24.244-21.251,26.085-22.711 c1.667-1.234,3.635-0.17,3.635-0.17l-7.064-9.743c0,0,0.387,2.184-1.28,3.418C32.453,12.047,5.316,29.816,5.316,29.816z"/><path fill="#ffb74d" d="M42.478,17.238l-7.064-9.743l0.834-0.617c0.46-0.365,1.086-0.243,1.451,0.217l5.943,8.163 c0.365,0.46,0.243,1.086-0.217,1.451L42.478,17.238z"/><path fill="#ffb74d" d="M5.316,29.816l7.442,10.303c0,0,0.547-0.478,3.009-2.628l-7.09-9.943 C5.963,29.325,5.316,29.816,5.316,29.816z"/><path fill="#ffb74d" d="M12.758,40.12c0,0-3.635,0.17-5.99-3.077s-1.452-7.226-1.452-7.226L12.758,40.12z"/><path fill="#ffb74d" d="M7.867,36.899c0.144,1.099-0.638,2.115-1.736,2.259s-2.115-0.638-2.259-1.736 c-0.144-1.099,0.638-2.115,1.736-2.259S7.724,35.8,7.867,36.899z"/><path fill="#ffb74d" d="M42.478,17.238l-7.064-9.743c0,0,0.387,2.184-1.28,3.418c-0.534,0.361-3.648,2.407-7.641,5.026 l0.311,2.545l2.966,0.572l0.37,3.002l2.636,0.511c4.757-4.151,5.007-4.32,6.066-5.16C40.51,16.175,42.478,17.238,42.478,17.238z"/><path fill="#ffb74d" d="M28.927,38.715l-1.4,1.4l-2.8-4.2L28.927,38.715z M20.527,30.315l-1.4,1.4l4.2,2.8L20.527,30.315z M25.027,41.215h-2l1-5L25.027,41.215z M25.027,29.215h-2l1,5L25.027,29.215z M20.527,40.115l-1.4-1.4l4.2-2.8L20.527,40.115z M28.927,31.715l-1.4-1.4l-2.8,4.2L28.927,31.715z M30.027,36.215v-2l-5,1L30.027,36.215z M18.027,36.215v-2l5,1L18.027,36.215z"/><path fill="#4e342e" d="M25.027,35.215c0,0.6-0.4,1-1,1s-1-0.4-1-1s0.4-1,1-1S25.027,34.615,25.027,35.215z"/><path fill="#4e342e" d="M24.027,43.215c-4.4,0-8-3.6-8-8s3.6-8,8-8s8,3.6,8,8S28.427,43.215,24.027,43.215z M24.027,29.215	c-3.3,0-6,2.7-6,6s2.7,6,6,6s6-2.7,6-6S27.327,29.215,24.027,29.215z"/></svg>