<svg xmlns="http://www.w3.org/2000/svg"  viewBox="0 0 48 48" width="50px" height="50px"><path fill="#bbdefb" d="M37.867,10.952C37.949,10.479,38,9.996,38,9.5C38,4.806,34.194,1,29.5,1	c-3.335,0-6.213,1.925-7.605,4.721C20.737,4.656,19.197,4,17.5,4C13.91,4,11,6.91,11,10.5c0,0.169,0.013,0.335,0.025,0.501	C11.017,11.001,11.009,11,11,11c-3.866,0-7,3.134-7,7c0,3.866,3.134,7,7,7c0,0,25.968,0,26,0c3.866,0,7-3.241,7-7.107	C44,14.321,41.323,11.38,37.867,10.952z"/><rect width="2" height="10" x="23" y="21" fill="#546e7a"/><path fill="#cfd8dc" d="M39,44.49c0,2.317-1.429,3.51-3.571,3.51c-2.143,0-4.571-5-7.429-5s-5.143,0-8,0s-5.286,5-7.429,5	S9,46.807,9,44.49c0,0,0-16.847,6.429-16.847C18.286,27.643,18.643,29,20,29c2.929,0,5.071,0,8,0c1.357,0,1.714-1.357,4.571-1.357	C39,27.643,39,44.49,39,44.49z"/><path fill="#fff" d="M35.571,34.5c0.571,0.571,0.571,1.429,0,2L31.5,40.571c-0.571,0.571-1.429,0.571-2,0L25.429,36.5	c-0.571-0.571-0.571-1.429,0-2l4.071-4.071c0.571-0.571,1.429-0.571,2,0L35.571,34.5z"/><rect width="3" height="3" x="13" y="34" fill="#78909c" transform="rotate(90 14.5 35.5)"/><rect width="3" height="3" x="16" y="31" fill="#78909c" transform="rotate(90 17.5 32.5)"/><rect width="3" height="3" x="16" y="37" fill="#78909c" transform="rotate(90 17.5 38.5)"/><rect width="3" height="3" x="19" y="34" fill="#78909c" transform="rotate(90 20.5 35.5)"/><path fill="#f44336" d="M32,35.5c0-0.825,0.675-1.5,1.5-1.5s1.5,0.675,1.5,1.5S34.325,37,33.5,37S32,36.325,32,35.5z"/><path fill="#2196f3" d="M26,35.5c0-0.825,0.675-1.5,1.5-1.5s1.5,0.675,1.5,1.5S28.325,37,27.5,37S26,36.325,26,35.5z"/><path fill="#ffc107" d="M29,32.5c0-0.825,0.675-1.5,1.5-1.5s1.5,0.675,1.5,1.5S31.325,34,30.5,34S29,33.325,29,32.5z"/><path fill="#8bc34a" d="M29,38.5c0-0.825,0.675-1.5,1.5-1.5s1.5,0.675,1.5,1.5S31.325,40,30.5,40S29,39.325,29,38.5z"/></svg>