<svg xmlns="http://www.w3.org/2000/svg"  viewBox="0 0 48 48" width="50px" height="50px"><path fill="#3f51b5" d="M3,8v32h42V8H3z M10,38H6v-4h4V38z M10,14H6v-4h4V14z M18,38h-4v-4h4V38z M18,14h-4v-4h4V14z M26,38h-4v-4h4V38	z M26,14h-4v-4h4V14z M34,38h-4v-4h4V38z M34,14h-4v-4h4V14z M42,38h-4v-4h4V38z M42,14h-4v-4h4V14z"/><path fill="#ff80ab" d="M31,23.5c0.6-0.7,0.9-1.6,0.9-2.5c0-2.2-1.8-4-4-4s-4,1.8-4,4l0,0l0,0l0,0c0-2.2-1.8-4-4-4s-4,1.8-4,4	c0,1,0.4,1.8,0.9,2.5l0,0l0.2,0.2l0.1,0.1l6.8,7.1l6.8-7.1l0.1-0.1L31,23.5L31,23.5z"/></svg>