<svg xmlns="http://www.w3.org/2000/svg"  viewBox="0 0 48 48" width="50px" height="50px"><path fill="#29b6f6" d="M41.5,29.7c-1-0.8-2.1-1.3-3.3-1.5c-0.2,0-0.4-0.1-0.6-0.1c-5.5-1.4-8.8-7.2-7-12.6c0,0,0-0.1,0-0.1	c0.4-1.1,0.5-2.3,0.3-3.6c-0.5-2.8-2.7-5-5.5-5.6C20.9,5.3,17,8.7,17,13c0,0.8,0.2,1.7,0.4,2.4c0.1,0.3,0.2,0.7,0.3,1.1	C19,21.7,15.9,27,10.6,28c-0.1,0-0.3,0-0.4,0.1c-1.2,0.1-2.5,0.6-3.6,1.5c-2.3,1.8-3.2,4.9-2.3,7.6c1.4,4.3,6.3,6.1,10.1,3.9	c0.7-0.4,1.4-0.9,1.9-1.6c0.1-0.1,0.2-0.2,0.3-0.3c4-4.2,10.8-4.2,14.7,0c0.1,0.1,0.2,0.2,0.3,0.3c0.5,0.6,1.2,1.1,1.9,1.6	c3.8,2.1,8.7,0.4,10.1-3.9C44.5,34.5,43.7,31.5,41.5,29.7z"/><circle cx="24" cy="27" r="5" fill="#0288d1"/><circle cx="24" cy="13" r="4" fill="#fff" stroke="#546e7a" stroke-width="2"/><circle cx="11" cy="35" r="4" fill="#fff" stroke="#546e7a" stroke-width="2"/><circle cx="37" cy="35" r="4" fill="#fff" stroke="#546e7a" stroke-width="2"/></svg>