<svg xmlns="http://www.w3.org/2000/svg"  viewBox="0 0 48 48" width="50px" height="50px"><path fill="#424242" d="M39,9v8h8C47,17,48,9,39,9z"/><path fill="#424242" d="M9,9v8H1C1,17,0,9,9,9z"/><path fill="#757575" d="M38,38H10c-2.209,0-4-1.791-4-4V15c0-2.209,1.791-4,4-4h28c2.209,0,4,1.791,4,4v19	C42,36.209,40.209,38,38,38z"/><circle cx="42.889" cy="24.741" r="2" fill="#1d1d1b"/><circle cx="4.889" cy="16.741" r="2" fill="#1d1d1b"/><circle cx="4.889" cy="21.741" r="1" fill="#1d1d1b"/><circle cx="2.889" cy="23.741" r="1" fill="#1d1d1b"/><circle cx="6.889" cy="23.741" r="1" fill="#1d1d1b"/><circle cx="4.889" cy="25.741" r="1" fill="#1d1d1b"/><circle cx="42.889" cy="15.741" r="1" fill="#1d1d1b"/><circle cx="40.889" cy="17.741" r="1" fill="#1d1d1b"/><circle cx="44.889" cy="17.741" r="1" fill="#1d1d1b"/><circle cx="42.889" cy="19.741" r="1" fill="#1d1d1b"/><path fill="#e57373" d="M38,38h2.7c3.479,0,6.3-2.564,6.3-5.727V16.727C47,13.564,44.179,11,40.7,11H38V38z"/><circle cx="42" cy="15" r="1" fill="#424242"/><circle cx="44" cy="17" r="1" fill="#424242"/><circle cx="40" cy="17" r="1" fill="#424242"/><circle cx="42" cy="19" r="1" fill="#424242"/><circle cx="42" cy="25" r="2" fill="#424242"/><circle cx="40" cy="31" r="1" fill="#424242"/><path fill="#4fc3f7" d="M10,38H7.3C3.821,38,1,35.436,1,32.273V16.727C1,13.564,3.821,11,7.3,11H10V38z"/><circle cx="8" cy="31" r="1" fill="#424242"/><rect width="24" height="21" x="12" y="14" fill="#ff3d00"/><path fill="#e0e0e0" d="M23,28h-1.333C20.193,28,19,26.807,19,25.333v-2.667C19,21.193,20.193,20,21.667,20H23V28z"/><path fill="#e0e0e0" d="M25,28h1.333C27.807,28,29,26.807,29,25.333v-2.667C29,21.193,27.807,20,26.333,20H25V28z"/><circle cx="6" cy="23" r="1" fill="#424242"/><circle cx="6" cy="17" r="2" fill="#424242"/><circle cx="8" cy="25" r="1" fill="#424242"/><circle cx="4" cy="25" r="1" fill="#424242"/><circle cx="6" cy="27" r="1" fill="#424242"/></svg>