<svg xmlns="http://www.w3.org/2000/svg"  viewBox="0 0 48 48" width="50px" height="50px"><polygon fill="#b0bec5" points="16.083,30.557 8,38 8,47 16,43"/><polygon fill="#8d6e63" points="12,39.436 12,34.288 10,36.146 10,40.844 15.038,43.003 15.712,41.12"/><polygon fill="#b0bec5" points="31.917,30.557 40,38 40,47 32,43"/><polygon fill="#8d6e63" points="36,39.436 36,34.288 38,36.146 38,40.844 32.962,43.003 32.288,41.12"/><path fill="#b0bec5" d="M25.769,32h-3.538l-2.147-3.642c-0.906-1.537-1.256-3.268-1.005-4.974L22.231,0h3.538l3.152,23.384 c0.251,1.706-0.098,3.436-1.005,4.974L25.769,32z"/><rect width="4" height="17" x="22" y="29" fill="#90a4ae"/><polygon fill="#b0bec5" points="22,48 18,48 18,38 20,30 22,30"/><polygon fill="#b0bec5" points="26,48 30,48 30,38 28,30 26,30"/><rect width="2" height="17" x="23" y="5" fill="#ef5350" transform="rotate(-180 24 13.5)"/><rect width="2" height="2" x="23" fill="#ef5350" transform="rotate(-180 24 1)"/><polygon fill="#cfd8dc" points="18,46 16,46 15,43 15,32.077 16,23 18,23"/><polygon fill="#cfd8dc" points="30,46 32,46 33,43 33,32.077 32,23 30,23"/><rect width="2" height="7" x="16" y="21" fill="#90a4ae"/><rect width="2" height="7" x="30" y="21" fill="#90a4ae"/><rect width="2" height="3" x="28" y="38" fill="#90a4ae"/><rect width="4" height="2" x="18" y="46" fill="#90a4ae"/><rect width="4" height="2" x="26" y="46" fill="#90a4ae"/><rect width="2" height="3" x="18" y="38" fill="#90a4ae"/><polygon fill="#78909c" points="25,28 23,28 22,26 23,21 25,21 26,26"/><rect width="18" height="2" x="15" y="41" fill="#ef5350"/><rect width="4" height="2" x="22" y="41" fill="#8d6e63"/></svg>