<svg xmlns="http://www.w3.org/2000/svg"  viewBox="0 0 40 41" width="50px" height="50px"><g data-name="Слой 2"><rect width="22.627" height="2" x="5.686" y="14" fill="#cfd8dc" transform="rotate(-45 17 15)"/><rect width="2" height="20.75" x="15.336" y="3.961" fill="#cfd8dc" transform="rotate(-45 16.336 14.335)"/><rect width="22" height="2" x="5" y="14" fill="#cfd8dc"/><rect width="2" height="24" x="16" y="3" fill="#cfd8dc"/><path fill="#2196f3" d="M17,28c.234,0,.462-.023.693-.035a13.848,13.848,0,0,0,2.155-2.352,10.994,10.994,0,1,1,7.681-13.785c.44-.69.907-1.351,1.4-1.99A13,13,0,1,0,17,28Z"/><rect width="40" height="2" y="37" fill="#2196f3"/><rect width="2" height="31" x="36" y="7" fill="#2196f3"/><rect width="2" height="7" x="11" y="32" fill="#2196f3"/><rect width="2" height="8" x="6" y="30" fill="#2196f3"/><rect width="2" height="13" x="1" y="25" fill="#2196f3"/><rect width="2" height="9" x="16" y="30" fill="#2196f3"/><rect width="2" height="14.84" x="20.953" y="24.16" fill="#2196f3" transform="rotate(-.366 21.972 31.536)"/><rect width="2" height="24.515" x="26" y="14.485" fill="#2196f3"/><rect width="2" height="31" x="31" y="8" fill="#2196f3"/><circle cx="17" cy="3" r="3" fill="#ff5722"/><circle cx="25" cy="7" r="3" fill="#ff5722"/><circle cx="9" cy="7" r="3" fill="#ff5722"/><circle cx="5" cy="15" r="3" fill="#ff5722"/><circle cx="9" cy="23" r="3" fill="#ff5722"/><circle cx="17" cy="27" r="3" fill="#ff5722"/><circle cx="17" cy="15" r="2" fill="#607d8b"/><polygon fill="#ff5722" points="36 33 29.51 28 23 33 23 41 36 41 36 33"/><polygon fill="#4e342e" points="27 41 29.486 35 32 41 27 41"/><path fill="#2196f3" d="M12,32.055c-8.594,0-11.8-8.3-11.937-8.648l1.873-.7C2.05,23,4.809,30.055,12,30.055c6.12,0,8.838-5.437,11.984-11.732A49.8,49.8,0,0,1,29.219,9.43c3.807-4.759,7.666-4.54,9.97-4.408.3.016.571.033.811.033v2c-.274,0-.584-.017-.924-.036-2.048-.121-5.134-.293-8.3,3.661a48.425,48.425,0,0,0-5.008,8.537C22.618,25.529,19.356,32.055,12,32.055Z"/></g></svg>