<svg xmlns="http://www.w3.org/2000/svg"  viewBox="0 0 48 48" width="50px" height="50px"><path fill="#66bb6a" d="M2,38V10h44v28H2z"/><path fill="#43a047" d="M6.625 11L22 11 21 13 8.625 13zM41.375 11L39.375 13 27 13 26 11zM6.625 37L22 37 21 35 8.625 35zM41.375 37L39.375 35 27 35 26 37zM44 34.375L42 32.375 42 15.625 44 13.625zM6 32.625L4 34.625 4 13.625 6 15.625z"/><path fill="#4e342e" d="M11.178 14.216999999999999A0.25 0.255 0 1 0 11.178 14.727A0.25 0.255 0 1 0 11.178 14.216999999999999Z" transform="rotate(-54.927 11.178 14.472)"/><path fill="#4e342e" d="M37.25 32.267A0.5 0.51 0 1 0 37.25 33.287A0.5 0.51 0 1 0 37.25 32.267Z" transform="rotate(-54.927 37.25 32.778)"/><path fill="#ffe0b2" d="M11.322 14.267L11.035 14.676 27.726 26.606 28.211 25.915z"/><path fill="#8d6e63" d="M47 11H1l4-3h37L47 11zM43 40H5l-4-3h46L43 40zM47 37h-3V11h3V37zM4 37H1V11h3V37zM37.537 32.368L36.962 33.186 27.414 26.384 27.897 25.697z"/><path fill="#3949ab" d="M9.5 22.5A1.5 1.5 0 1 0 9.5 25.5A1.5 1.5 0 1 0 9.5 22.5Z"/><path fill="#212121" d="M9.5 26A1.5 1.5 0 1 0 9.5 29A1.5 1.5 0 1 0 9.5 26Z"/><path fill="#bf360c" d="M9.5 19A1.5 1.5 0 1 0 9.5 22A1.5 1.5 0 1 0 9.5 19Z"/><path fill="#ffca28" d="M12.5 20.75A1.5 1.5 0 1 0 12.5 23.75A1.5 1.5 0 1 0 12.5 20.75Z"/><path fill="#8e24aa" d="M12.5 24.25A1.5 1.5 0 1 0 12.5 27.25A1.5 1.5 0 1 0 12.5 24.25Z"/><path fill="#ef6c00" d="M15.5 22.5A1.5 1.5 0 1 0 15.5 25.5A1.5 1.5 0 1 0 15.5 22.5Z"/><path fill="#fafafa" d="M36.5 17A1.5 1.5 0 1 0 36.5 20A1.5 1.5 0 1 0 36.5 17Z"/><g><path fill="#5d4037" d="M21 8H27V11H21zM21 37H27V40H21zM6 8H4c-1.657 0-3 1.343-3 3v2h3v-2h2V8zM4 37v-2H1v2c0 1.657 1.343 3 3 3h2v-3H4zM44 35v2h-2v3h2c1.657 0 3-1.343 3-3v-2H44zM42 8v3h2v2h3v-2c0-1.657-1.343-3-3-3H42z"/></g><g><path fill="#4e342e" d="M43 10A2 2 0 1 0 43 14 2 2 0 1 0 43 10zM5 34A2 2 0 1 0 5 38 2 2 0 1 0 5 34zM43 34A2 2 0 1 0 43 38 2 2 0 1 0 43 34zM5 10A2 2 0 1 0 5 14 2 2 0 1 0 5 10zM24 9A2 2 0 1 0 24 13 2 2 0 1 0 24 9zM24 35A2 2 0 1 0 24 39 2 2 0 1 0 24 35z"/></g></svg>