<svg xmlns="http://www.w3.org/2000/svg"  viewBox="0 0 48 48" width="50px" height="50px"><path fill="#ff9800" d="M27,9.6l-5.3-5.3L21,5v1.4l4.6,4.6L21,15.6v2.8l4.6,4.6L21,27.6v2.8l4.6,4.6L21,39.6V41l0.7,0.7 l5.3-5.3v-2.8L22.4,29l4.6-4.6v-2.8L22.4,17l4.6-4.6V9.6z"/><path fill="#ffc107" d="M28,45h-8V3.5l4-2.7l4,2.7V45z M22,43h4V4.5l-2-1.3l-2,1.3V43z"/><path fill="#dd2c00" d="M11,7h26v8H11V7z"/><path fill="#bf360c" d="M17,15h-4V9h4V15z M23,9h-4v6h4V9z M29,9h-4v6h4V9z M35,9h-4v6h4V9z"/><path fill="#ff5722" d="M9,13h30v5H9V13z"/><path fill="#e64a19" d="M17,16h-4v-3h4V16z M23,13h-4v3h4V13z M29,13h-4v3h4V13z M35,13h-4v3h4V13z"/><path fill="#bf360c" d="M35,47v-2c0-1.6-1.3-3-3-3H16c-1.7,0-3,1.4-3,3v2H35z"/></svg>