<svg xmlns="http://www.w3.org/2000/svg"  viewBox="0 0 48 48" width="50px" height="50px"><path fill="#4caf50" d="M27,44H9c0-4.57-0.198-8.493,0-12c0.34-6.016,1.287-10.808,2.36-15.539 c1.571-6.93,8.311-11.411,15.327-10.289c4.194,0.671,9.502,1.36,12.041,1.767C40.041,8.149,41,9.28,41,10.61v0 c0,1.337-0.974,2.48-2.296,2.675C35.48,13.761,29,14.883,29,17c0,1.328,4.526,1.774,6.897,1.924C37.08,18.999,38,19.975,38,21.162v0 c0,1.069-0.755,1.989-1.803,2.199l-6.555,1.111C28.516,24.697,25,24,25,26c0,1,1.088,1.461,1,2c-0.064,0.392,0.326,0.604,0.275,1 C26.102,30.319,26,31.658,26,33C26,37,27,40.525,27,44z"/><path fill="#2e7d32" d="M30.964,6.856C30.783,8.619,29.311,10,27.5,10c-0.035,0-0.067-0.009-0.102-0.01 C27.78,9.241,28,8.397,28,7.5c0-0.391-0.045-0.77-0.123-1.138c-0.397-0.063-0.794-0.127-1.19-0.19 c-0.341-0.055-0.681-0.085-1.02-0.113C25.871,6.5,26,6.982,26,7.5c0,0.677-0.201,1.303-0.534,1.839C24.582,8.704,24,7.672,24,6.5 c0-0.166,0.013-0.329,0.036-0.489c-0.685,0.025-1.358,0.113-2.021,0.239C22.011,6.334,22,6.415,22,6.5 c0,1.674,0.755,3.174,1.939,4.184C23.499,10.883,23.014,11,22.5,11C20.567,11,19,9.433,19,7.5c0-0.112,0.023-0.218,0.033-0.327 c-0.688,0.305-1.349,0.665-1.976,1.078C17.425,10.929,19.723,13,22.5,13c1.307,0,2.508-0.46,3.453-1.225 C26.445,11.919,26.963,12,27.5,12C30.304,12,32,9,30.964,6.856C30.322,6.754,31.645,6.965,30.964,6.856z"/><path fill="#4caf50" d="M11 30l3 3 2 11H9c-1 0-2-.124-2-1 0-1 2-2 2-3s-2-1.5-2-3c0-1.313 2-2.25 2-5L11 30zM25 30l-3 3-2 11h6c1 0 2-.124 2-1 0-1-1-2-1-3s1-1.5 1-3c0-1.313-2-2.25-2-5L25 30z"/><path fill="#2e7d32" d="M27.794,38.079c-1.376,0.395-2.951,0.43-4.501,0.172c-5.886-0.98-9.669-3.551-14.233-7.114 C9.041,31.426,9.017,31.705,9,32c0,2.75-2,3.688-2,5c0,1.41,1.747,1.941,1.959,2.83c0.002,0.109,0.003,0.218,0.005,0.328 C8.775,41.105,7,42.053,7,43c0,0.876,1,1,2,1h18c0-0.025-0.002-0.049-0.002-0.074C27.571,43.82,28,43.572,28,43c0-1-1-2-1-3 C27,39.288,27.502,38.825,27.794,38.079z"/><path fill="#ffd600" d="M12.631 13.091c-.56 1.04-.998 2.165-1.271 3.369-.264 1.164-.52 2.332-.761 3.521 3.27 3.39 8.283 7.02 15.674 9.043C26.507 28.614 27 28.289 27 28c0-1-2-1.136-2-2 0-1 2-1 4.642-1.529C29.642 24.472 17.875 21.625 12.631 13.091zM9 32c0 .524-.087.967-.205 1.374 4.169 2.96 10.353 6.095 18.213 6.56C27.052 38.979 28 38.465 28 37c0-.957-1.054-1.722-1.627-3.131-7.974-.78-13.849-4.94-16.836-7.576C9.303 28.088 9.115 29.97 9 32z"/><path fill="#2e7d32" d="M35.897,18.924C33.526,18.774,29,18.328,29,17c0-1.378,3.322-2.332,5.831-2.963C26,15,27,18,27,18 c0,2,6.916,2.925,11,3.161C38,19.976,37.08,18.999,35.897,18.924z"/><path fill="#cfd8dc" d="M27.5 3A3.5 3.5 0 1 0 27.5 10A3.5 3.5 0 1 0 27.5 3Z"/><path fill="#cfd8dc" d="M22.5 4A3.5 3.5 0 1 0 22.5 11A3.5 3.5 0 1 0 22.5 4Z"/><path fill="#b0bec5" d="M25.045,4.009c-0.197,0.194-0.364,0.416-0.511,0.652C25.418,5.296,26,6.328,26,7.5 c0,0.677-0.201,1.303-0.534,1.839c0.098,0.07,0.203,0.129,0.308,0.189c0.065,0.037,0.13,0.074,0.198,0.107 c0.107,0.052,0.217,0.1,0.33,0.141c0.07,0.026,0.142,0.045,0.215,0.067c0.281,0.082,0.574,0.138,0.881,0.147 C27.78,9.241,28,8.397,28,7.5C28,5.848,26.057,4.057,25.045,4.009z"/><path fill="#212121" d="M23.5 6A1.5 1.5 0 1 0 23.5 9 1.5 1.5 0 1 0 23.5 6zM28.5 5A1.5 1.5 0 1 0 28.5 8 1.5 1.5 0 1 0 28.5 5z"/></svg>