<svg xmlns="http://www.w3.org/2000/svg"  viewBox="0 0 48 48" width="50px" height="50px"><rect width="6.403" height="2" x="18.798" y="17.5" fill="#cfa05b" transform="rotate(-51.362 22 18.5)"/><path fill="#78909c" d="M28,20c-4.49,0-8,5.27-8,12s3.51,12,8,12s8-5.27,8-12S32.49,20,28,20z M25.47,37.43 c-0.08-0.12-0.15-0.23-0.23-0.35c-0.27-0.46-0.51-0.98-0.7-1.57c-0.08-0.23-0.14-0.47-0.21-0.71c0-0.03-0.01-0.06-0.02-0.09 c-0.06-0.28-0.12-0.57-0.17-0.86C24.05,33.26,24,32.64,24,32c0-0.32,0.01-0.63,0.04-0.94c0-0.01,0-0.01,0-0.01 c0.02-0.3,0.06-0.6,0.1-0.88c0.04-0.3,0.1-0.59,0.17-0.87c0.07-0.27,0.14-0.54,0.23-0.79c0.03-0.1,0.06-0.2,0.1-0.29 c0.05-0.16,0.12-0.31,0.18-0.46c0.1-0.23,0.21-0.46,0.34-0.68c0.06-0.1,0.12-0.2,0.18-0.3c0.19-0.3,0.4-0.56,0.62-0.79 C26.63,27.74,27,29.79,27,32c0,2.21-0.38,4.26-1.05,6.02C25.78,37.84,25.62,37.65,25.47,37.43z"/><path fill="#455a64" d="M28,44c-4.485,0-8-5.271-8-12s3.515-12,8-12h-7c-4.485,0-8,5.271-8,12s3.515,12,8,12H28z"/><path fill="#37474f" d="M32,32c0,3.86-1.79,7-4,7c-0.39,0-0.77-0.09-1.12-0.28c-0.33-0.16-0.64-0.4-0.93-0.7 C26.62,36.26,27,34.21,27,32c0-2.21-0.37-4.26-1.04-6.01c0.28-0.31,0.6-0.54,0.93-0.71C27.24,25.09,27.61,25,28,25 C30.21,25,32,28.14,32,32z"/><path fill="#cfa05b" d="M28,25h-2l-1,2h3c0.553,0,1-0.448,1-1S28.553,25,28,25z"/><path fill="#546e7a" d="M28,25c2.213,0,4,3.138,4,7s-1.787,7-4,7c-0.387,0-0.773-0.093-1.12-0.28 C25.213,37.868,24,35.185,24,32s1.213-5.88,2.893-6.72C27.24,25.093,27.613,25,28,25 M28,24c-0.557,0-1.088,0.134-1.581,0.399 C24.385,25.416,23,28.476,23,32c0,3.505,1.376,6.564,3.425,7.61C26.891,39.862,27.443,40,28,40c2.804,0,5-3.514,5-8 S30.804,24,28,24L28,24z"/><path fill="#cfa05b" d="M28,27c-0.553,0-1-0.448-1-1v-5.586l-3.707-3.707C23.105,16.52,23,16.265,23,16V8.69 c0-0.552,0.447-1,1-1s1,0.448,1,1v6.896l3.707,3.707C28.895,19.48,29,19.735,29,20v6C29,26.552,28.553,27,28,27z"/><path fill="#795548" d="M5,9c0,0,11.051-3.779,23,1c5,2,15.263-0.149,15.263-0.149V5.265c0,0-7.338,2.752-13.759,0.917 C18.594,3.065,4.737,7.099,4.737,7.099L5,9z"/><path fill="#cfa05b" d="M25,9c-0.56-0.17-0.45,1.13-1,1l-0.962-1.543c0.98-0.97,0.802-2.547,0.442-3.327 c0.74,0.06,1.48,0.14,2.21,0.25C25.99,6.52,25.76,7.83,25,9z"/></svg>