<svg xmlns="http://www.w3.org/2000/svg"  viewBox="0 0 48 48" width="50px" height="50px"><circle cx="24" cy="39" r="8" fill="#616161"/><circle cx="9" cy="24" r="8" fill="#616161"/><circle cx="24" cy="9" r="8" fill="#616161"/><circle cx="39" cy="24" r="8" fill="#616161"/><path fill="#69f0ae" d="M24,5.742l3.338,5.511h-6.676L24,5.742 M24,2.847l-6,9.907h12L24,2.847L24,2.847z"/><path fill="#ff80ab" d="M13.75,28.75h-9.5v-9.5h9.5V28.75z M5.75,27.25h6.5v-6.5h-6.5V27.25z"/><path fill="#ff5252" d="M39,29.75c-3.171,0-5.75-2.58-5.75-5.75s2.579-5.75,5.75-5.75s5.75,2.58,5.75,5.75	S42.171,29.75,39,29.75z M39,19.75c-2.344,0-4.25,1.907-4.25,4.25s1.906,4.25,4.25,4.25s4.25-1.907,4.25-4.25S41.344,19.75,39,19.75	z"/><polygon fill="#80d8ff" points="29.03,35.03 27.97,33.97 24,37.939 20.03,33.97 18.97,35.03 22.939,39 18.97,42.97 20.03,44.03 24,40.061 27.97,44.03 29.03,42.97 25.061,39"/></svg>