<svg xmlns="http://www.w3.org/2000/svg"  viewBox="0 0 48 48" width="50px" height="50px"><path fill="#b0bec5" d="M24.064,39.111c-8.635,0-10.707-5.872-10.707-10.707s3.799-6.908,4.49-8.98	c0.691-2.072,0.691-2.418-0.691-4.836c-0.79-1.383-0.676-2.764-0.434-3.694c-0.082-0.044-0.17-0.079-0.265-0.093	c-0.234-0.032-0.471,0.034-0.65,0.189c-1.029,0.887-1.832,1.846-1.248,4.589c0.137,0.641,0.554,2.593-3.121,5.144	C7.905,23.175,5.71,27.097,5.71,30.958c0,2.179,0,5.426,3.608,8.584c1.621,1.641,3.429,2.712,4.73,3.368	c2.677,1.349,5.82,1.794,9.202,1.794c9.787,0,15.709-7.811,17.185-14.213C39.128,31.159,32.04,39.111,24.064,39.111z"/><path fill="#78909c" d="M39.607,22.532c-1.382,1.036-1.727,2.072-1.727,2.072s-0.345-1.036-1.727-2.072	c-1.769-1.327-5.872-1.382-5.872-1.382c0,3.454,0.691,5.526,2.763,7.599c0.617,0.617,1.411,1.012,2.177,1.266	c-3.792,3.562-9.239,3.449-12.193,2.188c-1.774-0.756-2.86-2.106-3.265-3.723c-0.637-2.546,0.099-4.314,1.4-6.186	c0.166-0.24,0.336-0.47,0.502-0.696c0.877-1.193,1.785-2.426,1.781-4.41c0.002-0.02,0.004-0.069,0.004-0.089	c0-0.157-0.012-0.312-0.028-0.441c-0.097-1.039-0.485-1.806-1.185-2.341c-0.511-0.471-1.135-0.683-1.687-0.87l-0.219-0.075	c-1.317-0.459-2.62-1.027-3.246-2.106l-0.059-0.097c-0.126-0.2-0.333-0.335-0.567-0.37c-0.234-0.032-0.471,0.034-0.65,0.189	c-0.121,0.105-0.239,0.21-0.352,0.32c-0.246,1.372,0.207,2.595,0.665,3.969c0.691,2.072,1.202,2.702,0.691,4.49	c-0.691,2.418-5.526,3.454-5.872,10.362c-0.104,2.076,0.462,4.216,1.847,6.011c-0.107,0.419-0.271,0.858-0.554,1.348	c-1.335,2.314-3.292,2.701-4.457,2.825c-1.671,0.178-4.025,1.125-5.471,3.632c0,0,6.562,2.072,10.471,0.404	c0.499-0.213,1.189-0.798,1.618-1.441c0.966-1.45,1.479-2.895,1.754-4.029c1.777,0.91,4.047,1.503,6.881,1.612	c6.964,0.268,13.096-6.259,16.607-7.452c0.407-1.025,0.71-2.045,0.905-3.026c0.765-0.255,1.559-0.649,2.176-1.266	c2.072-2.072,2.763-4.145,2.763-7.599C45.478,21.15,41.376,21.205,39.607,22.532z"/><path fill="#546e7a" d="M24.064,32.721c0-0.053-0.004-0.105-0.008-0.157c-0.367-0.105-0.713-0.226-1.028-0.361	c-0.698-0.298-1.286-0.69-1.771-1.151c-0.591,0.322-0.992,0.949-0.992,1.669c0,1.049,0.851,1.9,1.9,1.9	C23.213,34.621,24.064,33.77,24.064,32.721z"/><circle cx="25.273" cy="37.557" r="1.209" fill="#546e7a"/><path fill="#546e7a" d="M19.056,23.223c-1.431,0-2.59,1.16-2.59,2.59s1.16,2.59,2.59,2.59c0.232,0,0.456-0.033,0.67-0.091	c-0.43-1.878-0.106-3.333,0.64-4.732C19.981,23.355,19.534,23.223,19.056,23.223z"/><ellipse cx="14.911" cy="32.03" fill="#546e7a" rx="1.554" ry="1.209"/><circle cx="20" cy="16" r="1" fill="#212121"/><path fill="#546e7a" d="M30.799,35.311c1.431,0,2.59-1.16,2.59-2.59c0-0.421-0.102-0.816-0.28-1.167	c-1.572,0.874-3.271,1.304-4.888,1.418C28.347,34.285,29.453,35.311,30.799,35.311z"/><path fill="#cfd8dc" d="M33.582,2.962c-3.314,0-6,2.686-6,6s2.686,6,6,6s6-2.686,6-6S36.896,2.962,33.582,2.962z"/><path fill="#ff3d00" d="M31.527,14.593c0.79-0.896,2.689-3.651,2.956-6.831c0,0-3.3-0.3-6.777,2.413 C28.126,12.226,29.596,13.888,31.527,14.593z"/><path fill="#43a047" d="M39.518,9.793c-0.771-0.762-2.311-2.031-5.336-2.031c0,0,2.231,2.79,2.659,6.233 C38.269,13.069,39.273,11.555,39.518,9.793z"/><path fill="#ffc107" d="M34.482,8.362c0,0,1.248-1.775,1.646-4.827c-0.774-0.364-1.635-0.573-2.546-0.573 c-1.073,0-2.079,0.285-2.951,0.779C31.331,4.163,33.182,5.762,34.482,8.362z"/><path fill="#bf1600" d="M34.482,7.062c-0.552,0-1,0.448-1,1s0.448,1,1,1s1-0.448,1-1S35.034,7.062,34.482,7.062z"/></svg>