<svg xmlns="http://www.w3.org/2000/svg"  viewBox="0 0 48 48" width="50px" height="50px"><path fill="#ffb74d" d="M31.5,14c-1.93,0-3.5-1.57-3.5-3.5S29.57,7,31.5,7S35,8.57,35,10.5S33.43,14,31.5,14"/><path fill="#2196f3" d="M38,19l-0.816,8.158l2.605,6.947c0.096,0.192,0.16,0.398,0.19,0.611l1,7 c0.373,2.618-3.58,3.188-3.959,0.567l-0.954-6.679L33,30l-4.149,5.803l-1.928,6.747c-0.731,2.558-4.575,1.448-3.846-1.1l2-7 c0.048-0.168,0.118-0.329,0.208-0.479l4.02-7.717L30,20l-4.1,3.221l-0.921,5.526c-0.329,1.977-3.286,1.461-2.958-0.495l1-6 c0.052-0.308,0.198-0.593,0.419-0.813l5-5c0.235-0.236,0.544-0.387,0.874-0.428l6.276-0.909l2.595-4.325l2.974-5.948 c0.889-1.773,3.571-0.436,2.684,1.342l-3,6C40.75,12.347,39.369,15.668,38,19z"/><g><path fill="#ffb74d" d="M13.5,15c1.93,0,3.5-1.57,3.5-3.5S15.43,8,13.5,8S10,9.57,10,11.5S11.57,15,13.5,15"/><path fill="#2196f3" d="M22.748,12.332c0.257-0.385,0.321-0.867,0.175-1.307l-2-6c-0.625-1.881-3.473-0.935-2.845,0.949 l1.768,5.304l-3.221,4.832l-5.594,0.799l-3.924-3.924L7.98,7.747C8.307,5.785,5.344,5.3,5.021,7.253l-1,6 c-0.08,0.479,0.076,0.965,0.419,1.308l4.969,6.649c-2.341,4.668-3.224,4.801-3.38,6.969c-0.022,0.58,0.027,1.252,0.046,1.315 L8.02,42.283c0.374,2.622,4.335,2.05,3.959-0.567L11,30c0.305-0.199,0.814-0.585,1.192-0.734l3.662,5.074l-1.794,7.175 c-0.639,2.556,3.232,3.567,3.88,0.971l2-8c0.132-0.527,0.043-1.085-0.244-1.545L17,27l1-6L22.748,12.332z"/></g></svg>