<svg xmlns="http://www.w3.org/2000/svg"  viewBox="0 0 48 48" width="50px" height="50px"><path fill="#455a64" d="M31,15H6v24c0,2.2,1.8,4,4,4h17c2.2,0,4-1.8,4-4V15z"/><path fill="#263238" d="M27,3H10C7.8,3,6,4.8,6,7v9h25V7C31,4.8,29.2,3,27,3z"/><path fill="#9ccc65" d="M27,13H10c-0.6,0-1-0.4-1-1V7c0-0.6,0.4-1,1-1h17c0.6,0,1,0.4,1,1v5C28,12.6,27.6,13,27,13z"/><rect width="2" height="2" x="24" y="9" fill="#33691e"/><rect width="2" height="2" x="20" y="9" fill="#33691e"/><path fill="#78909c" d="M13,22h-3c-0.6,0-1-0.4-1-1v-2c0-0.6,0.4-1,1-1h3c0.6,0,1,0.4,1,1v2C14,21.6,13.6,22,13,22z"/><path fill="#78909c" d="M20,22h-3c-0.6,0-1-0.4-1-1v-2c0-0.6,0.4-1,1-1h3c0.6,0,1,0.4,1,1v2C21,21.6,20.6,22,20,22z"/><path fill="#78909c" d="M13,28h-3c-0.6,0-1-0.4-1-1v-2c0-0.6,0.4-1,1-1h3c0.6,0,1,0.4,1,1v2C14,27.6,13.6,28,13,28z"/><path fill="#78909c" d="M20,28h-3c-0.6,0-1-0.4-1-1v-2c0-0.6,0.4-1,1-1h3c0.6,0,1,0.4,1,1v2C21,27.6,20.6,28,20,28z"/><path fill="#78909c" d="M13,34h-3c-0.6,0-1-0.4-1-1v-2c0-0.6,0.4-1,1-1h3c0.6,0,1,0.4,1,1v2C14,33.6,13.6,34,13,34z"/><path fill="#78909c" d="M20,34h-3c-0.6,0-1-0.4-1-1v-2c0-0.6,0.4-1,1-1h3c0.6,0,1,0.4,1,1v2C21,33.6,20.6,34,20,34z"/><path fill="#78909c" d="M13,40h-3c-0.6,0-1-0.4-1-1v-2c0-0.6,0.4-1,1-1h3c0.6,0,1,0.4,1,1v2C14,39.6,13.6,40,13,40z"/><path fill="#78909c" d="M20,40h-3c-0.6,0-1-0.4-1-1v-2c0-0.6,0.4-1,1-1h3c0.6,0,1,0.4,1,1v2C21,39.6,20.6,40,20,40z"/><path fill="#ffcc80" d="M23,32v-1c0,0-2.268,1.422-3.286,2.67c-0.906,1.021-1.021,2.303,0,3.666C19.714,37.336,24,47,29,47 h7.128C39.871,47,43,43.965,43,40.225c0,0,0-3.811,0-8.225L23,32z"/><path fill="#ffcc80" d="M23,36.552c0,1.337,1.127,2.431,2.5,2.431c1.378,0,2.5-1.094,2.5-2.431V20.427 C28,19.093,26.878,18,25.5,18c-1.373,0-2.5,1.093-2.5,2.427V36.552z"/><path fill="#ffcc80" d="M28,36.572c0,1.337,1.127,2.43,2.5,2.43c1.378,0,2.5-1.093,2.5-2.43v-7.179 c0-1.334-1.122-2.427-2.5-2.427c-1.373,0-2.5,1.093-2.5,2.427V36.572z"/><path fill="#ffcc80" d="M33,36.552c0,1.337,1.127,2.431,2.5,2.431c1.378,0,2.5-1.094,2.5-2.431v-7.125 C38,28.093,36.878,27,35.5,27c-1.373,0-2.5,1.093-2.5,2.427V36.552z"/><path fill="#ffcc80" d="M38,36.572c0,1.337,1.127,2.43,2.5,2.43c1.378,0,2.5-1.093,2.5-2.43v-6.146 C43,29.093,41.878,28,40.5,28c-1.373,0-2.5,1.093-2.5,2.427V36.572z"/><path fill="#ffebee" d="M24,20.578c0.01-0.781,0.686-1.408,1.516-1.398c0.827,0.008,1.492,0.65,1.484,1.428 C26.988,21.391,23.991,21.359,24,20.578"/><path fill="#f2a25a" d="M20.977,32.463C21.963,31.654,23,31,23,31v6.18L20.977,32.463z"/></svg>