<svg xmlns="http://www.w3.org/2000/svg"  viewBox="0 0 48 48" width="50px" height="50px"><path fill="#455A64" d="M40,32H8V10c0-0.6,0.4-1,1-1h30c0.6,0,1,0.4,1,1V32z"/><path fill="#BBDEFB" d="M10 11H38V29H10z"/><path fill="#CFD8DC" d="M40 31L8 31 3 37 3 39 45 39 45 37z"/><path fill="#546E7A" d="M10 32L38 32 40 35 8 35z"/><path fill="#90A4AE" d="M28 35L20 35 19 37 29 37z"/><path fill="#42A5F5" d="M12,15h10v2H12V15z M22,19H12v2h10V19z M12,25h10v-2H12V25z M26,17h10v-2H26V17z M36,19H26v2h10V19z M26,25h7v-2h-7V25z"/></svg>