<svg xmlns="http://www.w3.org/2000/svg"  viewBox="0 0 48 48" width="50px" height="50px" baseProfile="basic"><rect width="42" height="29" x="3" y="11" fill="#d32f2f"/><circle cx="24" cy="37" r="5" fill="#d32f2f"/><circle cx="24" cy="37" r="3" fill="#4c0808"/><polygon fill="#d7ccc8" points="40,8 25,11 23,11 8,8 6,13 6,37 42,37 42,13"/><polygon fill="#bcaaa4" points="8,34.001 23,34.001 23,37 25,37 25,34.001 40,34 42,37 6,37"/><path fill="#efebe9" d="M40,8c0,0-15,0-15,3s0,26,0,26c0-3,15-3,15-3V8z"/><path fill="#efebe9" d="M8,8c0,0,15,0,15,3s0,26,0,26c0-3-15-3-15-3V8z"/><rect width="2" height="26" x="23" y="11" fill="#bcaaa4"/><rect width="2.5" height="13.17" x="28.219" y="16.884" fill="#616161" transform="rotate(-45.001 29.468 23.47)"/><circle cx="22" cy="16" r="9" fill="#616161"/><circle cx="22" cy="16" r="7" fill="#64b5f6"/><path fill="#bbdefb" d="M24.62,13.98c-0.232,0-0.466-0.081-0.655-0.244c-1.119-0.971-2.811-0.971-3.93,0	c-0.417,0.36-1.048,0.318-1.411-0.101c-0.361-0.417-0.316-1.049,0.101-1.411c1.867-1.617,4.684-1.617,6.551,0	c0.417,0.362,0.462,0.993,0.101,1.411C25.178,13.863,24.899,13.98,24.62,13.98z"/></svg>