<svg xmlns="http://www.w3.org/2000/svg"  viewBox="0 0 48 48" width="50px" height="50px"><path fill="#d7ccc8" d="M10,42h28c2.2,0,4-1.8,4-4V15.7c0-1.6-1-3.1-2.6-3.7L24,6L8.6,12C7,12.6,6,14.1,6,15.7V38 C6,40.2,7.8,42,10,42z"/><path fill="#37474f" d="M30,21l-6-0.133L18,21c0,0-2,4-2,11l8,0.718L32,32C32,25,30,21,30,21z"/><path fill="#37474f" d="M24,26c-4.832,0-8,4.108-8,6c5,1,8,4,8,4s3-3,8-4C32,30.108,28.832,26,24,26z"/><path fill="#78909c" d="M23.475,14.143L10.35,20.421c-0.467,0.254-0.467,0.951,0,1.205l13.125,6.279 c0.35,0.127,0.7,0.127,1.05,0l13.125-6.279c0.467-0.254,0.467-0.951,0-1.205l-13.125-6.279 C24.175,13.953,23.825,13.953,23.475,14.143z"/><path fill="#37474f" d="M13,36c-0.553,0-1-0.447-1-1V23c0-0.451,0.302-0.846,0.737-0.965l11-3 c0.528-0.146,1.082,0.168,1.228,0.702c0.146,0.532-0.169,1.082-0.702,1.228L14,23.764V35C14,35.553,13.553,36,13,36z"/><path fill="#37474f" d="M13,33.126c1.133,0,2,0.848,2,1.958S13,39,13,39s-2-2.806-2-3.916S11.867,33.126,13,33.126z"/></svg>