<svg xmlns="http://www.w3.org/2000/svg"  viewBox="0 0 48 48" width="50px" height="50px"><polygon fill="#1565c0" points="23,44 18,32 28,32"/><path fill="#fc8f00" d="M23,36c-4,0-5-4-5-4v-6h10v6C28,32,27,36,23,36z"/><path fill="#fc8f00" d="M34,20c0,1.1-0.9,2-2,2c-1.1,0-2-0.9-2-2s0.9-2,2-2C33.1,18,34,18.9,34,20"/><path fill="#fc8f00" d="M16,20c0-1.1-0.9-2-2-2s-2,0.9-2,2s0.9,2,2,2S16,21.1,16,20"/><path fill="#ffaa45" d="M32,14c0-7.6-18-5-18,0v7c0,5,4,9,9,9s9-4,9-9V14z"/><path fill="#795548" d="M23,5c-6.1,0-10,4.9-10,11v2.3l2,1.7v-5l12-4l4,4v5l2-1.7V16c0-4-1-8-6-9l-1-2H23z"/><path fill="#784719" d="M26,20c0-0.6,0.4-1,1-1s1,0.4,1,1s-0.4,1-1,1S26,20.6,26,20"/><path fill="#784719" d="M18,20c0,0.6,0.4,1,1,1s1-0.4,1-1s-0.4-1-1-1S18,19.4,18,20"/><path fill="#cfd8dc" d="M28,32l-5,12l-5-12c0,0-11,2-11,13h32C39,34,28,32,28,32z"/><path fill="#eceff1" d="M28,32L28,32l3,3l-2,2l1,2l-7,6v-1L28,32z"/><path fill="#eceff1" d="M18,32L18,32l-3,3l2,2l-1,2l7,6v-1L18,32z"/><path fill="#90caf9" d="M46.6,44.8L41,38.1V32c0.6-0.1,1-0.5,1-1c0-0.6-0.5-1-1.1-1h-5.7c-0.6,0-1.1,0.4-1.1,1 c0,0.5,0.4,0.9,1,1v6.1l-5.6,6.7C29.2,45.1,29,45.5,29,46c0,1.1,0.9,2,2,2h14c1.1,0,2-0.9,2-2C47,45.6,46.8,45.1,46.6,44.8z"/><path fill="#f50057" d="M32.4,44.4l2.8-3.4h5.6l2.8,3.4c0.5,0.7,0.1,1.6-0.8,1.6h-9.7C32.3,46,31.8,45,32.4,44.4z"/></svg>