<svg xmlns="http://www.w3.org/2000/svg"  viewBox="0 0 48 48" width="50px" height="50px"><path fill="#90CAF9" d="M38,44H12V4h26c2.2,0,4,1.8,4,4v32C42,42.2,40.2,44,38,44"/><path fill="#1E88E5" d="M10,4h2v40h-2c-2.2,0-4-1.8-4-4V8C6,5.8,7.8,4,10,4"/><path fill="#1565C0" d="M22,28h-2c-1.6,0-3-1.4-3-3v-2c0-1.6,1.4-3,3-3h2V28z"/><path fill="#1976D2" d="M22 20L28 15 28 33 22 28z"/><path fill="#E1F5FE" d="M32,24c0,1.1-0.9,2-2,2v-4C31.1,22,32,22.9,32,24z M36,24c0-3.3-2.7-6-6-6v2c2.2,0,4,1.8,4,4c0,2.2-1.8,4-4,4v2C33.3,30,36,27.3,36,24z"/></svg>