<svg xmlns="http://www.w3.org/2000/svg"  viewBox="0 0 48 48" width="50px" height="50px"><path fill="#3F51B5" d="M0,16c0-2.209,1.791-4,4-4h40c2.209,0,4,1.791,4,4v16c0,2.209-1.791,4-4,4H4c-2.209,0-4-1.791-4-4V16z"/><path fill="#E8EAF6" d="M24 24.782c0 1.335-.308 2.372-.923 3.11C22.461 28.631 21.607 29 20.513 29c-1.089 0-1.944-.366-2.566-1.097-.622-.732-.938-1.756-.947-3.073v-1.476c0-1.367.31-2.435.927-3.203C18.544 19.384 19.403 19 20.5 19c1.08 0 1.931.377 2.553 1.132.622.754.938 1.813.947 3.175V24.782zM22.034 23.341c0-.897-.125-1.565-.374-2.003s-.636-.656-1.16-.656c-.52 0-.905.211-1.153.632-.249.422-.378 1.063-.387 1.925v1.544c0 .87.127 1.512.38 1.924.253.413.644.619 1.173.619.511 0 .892-.201 1.14-.605.249-.402.376-1.028.38-1.876V23.341zM16 29h-2.01l-2.939-6.528V29h-2.01v-9.953h2.01l2.946 6.535v-6.535H16V29zM39 29h-2.01l-2.939-6.528V29h-2.01v-9.953h2.01l2.946 6.535v-6.535H39V29zM29 19v6.705c0 1.085-.417 1.627-1 1.627-.579 0-1-.394-1-1.332v-7h-2v7c0 .966.236 1.645.742 2.187S27.089 29 28 29c.848 0 1.655-.292 2.193-.875S31 26.767 31 25.801V19H29z"/></svg>