<svg xmlns="http://www.w3.org/2000/svg"  viewBox="0 0 48 48" width="50px" height="50px"><rect width="42" height="31" x="3" y="8" fill="#004d40"/><rect width="38" height="27" x="5" y="10" fill="#00695b"/><path fill="#fff" d="M18.4,15.966H10c-0.533,0-0.966-0.433-0.966-0.966S9.467,14.034,10,14.034h8.4	c0.533,0,0.966,0.433,0.966,0.966S18.934,15.966,18.4,15.966z"/><path fill="#fff" d="M38,15.966H24c-0.533,0-0.966-0.433-0.966-0.966s0.433-0.966,0.966-0.966h14	c0.533,0,0.966,0.433,0.966,0.966S38.533,15.966,38,15.966z"/><path fill="#fff" d="M15.6,20.966H10c-0.533,0-0.966-0.433-0.966-0.966S9.467,19.034,10,19.034h5.6	c0.533,0,0.966,0.433,0.966,0.966S16.133,20.966,15.6,20.966z"/><path fill="#fff" d="M37.066,20.966H19.333c-0.533,0-0.966-0.433-0.966-0.966s0.433-0.966,0.966-0.966h17.733	c0.533,0,0.966,0.433,0.966,0.966S37.6,20.966,37.066,20.966z"/><path fill="#fff" d="M38,25.966H10c-0.533,0-0.966-0.433-0.966-0.966S9.467,24.034,10,24.034h28	c0.533,0,0.966,0.433,0.966,0.966S38.533,25.966,38,25.966z"/><path fill="#fff" d="M38,30.966H10c-0.533,0-0.966-0.433-0.966-0.966S9.467,29.034,10,29.034h28	c0.533,0,0.966,0.433,0.966,0.966S38.533,30.966,38,30.966z"/><path fill="#004d40" d="M24.681,37.153l-8.325-3.292c-0.533-0.211-0.798-0.822-0.576-1.351	c2.112-5.034,5.008-9.629,8.617-13.672c2.429-2.722,5.169-5.172,8.158-7.294c0.468-0.332,1.122-0.206,1.444,0.268l5.026,7.406	c0.313,0.462,0.194,1.081-0.26,1.407c-2.255,1.619-4.323,3.478-6.16,5.536c-2.754,3.086-4.974,6.59-6.608,10.431	C25.777,37.106,25.2,37.358,24.681,37.153z"/><path fill="#ffa100" d="M29.176,34.382l-3.169,6.012c-0.245,0.465-0.82,0.643-1.285,0.398l-10.628-5.603	c-0.465-0.245-0.643-0.82-0.398-1.285l3.169-6.012c0.245-0.465,0.82-0.643,1.285-0.398l10.628,5.603	C29.243,33.342,29.421,33.917,29.176,34.382z"/></svg>