<svg xmlns="http://www.w3.org/2000/svg"  viewBox="0 0 48 48" width="50px" height="50px"><path fill="#3F51B5" d="M0,16c0-2.209,1.791-4,4-4h40c2.209,0,4,1.791,4,4v16c0,2.209-1.791,4-4,4H4c-2.209,0-4-1.791-4-4V16z"/><path fill="#E8EAF6" d="M18.32 26.963h-2.741L15.046 29H12.92l3.11-9.953h1.839L21 29h-2.146L18.32 26.963zM16.017 25.288h1.859l-.93-3.548L16.017 25.288zM22 29v-9.953h2.632c1.162 0 2.089.369 2.778 1.107.691.738 1.043 1.75 1.057 3.035v1.613c0 1.308-.346 2.335-1.035 3.079C26.74 28.628 25.789 29 24.577 29H22zM24.01 20.722v6.61h.602c.67 0 1.142-.177 1.415-.53.273-.353.417-.962.431-1.828v-1.729c0-.93-.13-1.578-.39-1.944-.26-.367-.702-.56-1.326-.578H24.01zM32.896 26.219L34.571 19h2.242l-2.871 9.953h-2.092L29 19h2.229L32.896 26.219z"/></svg>