<svg xmlns="http://www.w3.org/2000/svg"  viewBox="0 0 48 48" width="50px" height="50px"><path fill="#ffb74d" d="M31,44v-4.6l2.6,0.5c2.9,0.6,5.6-1.5,5.8-4.4L40,29l2.9-1.2c1-0.4,1.4-1.6,0.8-2.6L40,19 c-0.6-7.6-4.9-15-16-15C12.6,4,7,12.4,7,21c0,3.7,1.3,6.9,3.3,9.6c1.8,2.5,2.7,5.5,2.7,8.5V44H31z"/><path fill="#546e7a" d="M31.455,21c0.091-0.364,0.091-0.727,0.091-1s0-0.727-0.091-1l2.091-1.545 c0.182-0.182,0.273-0.455,0.182-0.636l-2.091-3.545C31.545,13.091,31.273,13,31,13.091l-2.364,1.091 c-0.545-0.455-1.182-0.818-1.818-1.091l-0.273-2.636c0-0.273-0.273-0.455-0.455-0.455h-4.182c-0.182,0-0.455,0.182-0.455,0.455 l-0.273,2.636c-0.636,0.182-1.273,0.545-1.818,1L17,13c-0.273-0.091-0.545,0-0.636,0.182l-2.091,3.636 c-0.091,0.182,0,0.455,0.182,0.636L16.545,19c-0.091,0.364-0.091,0.727-0.091,1s0,0.727,0.091,1l-2.091,1.545 c-0.182,0.182-0.273,0.455-0.182,0.636l2.091,3.545C16.455,26.909,16.727,27,17,26.909l2.364-1.091 c0.545,0.455,1.182,0.818,1.818,1.091l0.273,2.636c0,0.273,0.273,0.455,0.455,0.455H26c0.273,0,0.455-0.182,0.455-0.455l0.273-2.636 c0.636-0.273,1.273-0.636,1.818-1.091l2.364,1.091c0.273,0.091,0.545,0,0.636-0.182l2.091-3.545 c0.091-0.182,0.091-0.545-0.182-0.636L31.455,21z M24,24c-2.231,0-4-1.769-4-4s1.769-4,4-4s4,1.769,4,4S26.231,24,24,24"/><path fill="#455a64" d="M24,15c-2.75,0-5,2.25-5,5s2.25,5,5,5s5-2.25,5-5S26.75,15,24,15 M24,23c-1.7,0-3-1.3-3-3s1.3-3,3-3 s3,1.3,3,3S25.7,23,24,23"/></svg>