<svg xmlns="http://www.w3.org/2000/svg"  viewBox="0 0 48 48" width="50px" height="50px"><path fill="#e53935" d="M42,20l-18-9.048L6,20v-5.048l18-9l0,0l18,9V20z"/><path fill="#673ab7" d="M9,21h6v21H9V21z"/><path fill="#4527a0" d="M9,21h2v21H9V21z"/><path fill="#4caf50" d="M17,17h6v25h-6V17z"/><path fill="#388e3c" d="M17,17h2v25h-2V17z"/><path fill="#f44336" d="M25,24h6v18h-6V24z"/><path fill="#d32f2f" d="M25,24h2v18h-2V24z"/><rect width="6" height="2" x="9" y="24" fill="#9575cd"/><rect width="6" height="2" x="9" y="37" fill="#9575cd"/><rect width="2" height="2" x="9" y="24" fill="#7e57c2"/><rect width="2" height="2" x="9" y="37" fill="#7e57c2"/><rect width="6" height="2" x="17" y="20" fill="#81c784"/><rect width="6" height="2" x="17" y="37" fill="#81c784"/><rect width="2" height="2" x="17" y="20" fill="#4caf50"/><rect width="2" height="2" x="17" y="37" fill="#4caf50"/><rect width="6" height="2" x="25" y="27" fill="#ff8a80"/><rect width="6" height="2" x="25" y="37" fill="#ff8a80"/><rect width="2" height="2" x="25" y="27" fill="#ff5252"/><rect width="2" height="2" x="25" y="37" fill="#ff5252"/><path fill="#00bcd4" d="M33,21h6v21h-6V21z"/><path fill="#0097a7" d="M33,21h2v21h-2V21z"/><rect width="6" height="2" x="33" y="24" fill="#4dd0e1"/><rect width="6" height="2" x="33" y="37" fill="#4dd0e1"/><rect width="2" height="2" x="33" y="24" fill="#00bcd4"/><rect width="2" height="2" x="33" y="37" fill="#00bcd4"/></svg>