<svg xmlns="http://www.w3.org/2000/svg"  viewBox="0 0 48 48" width="50px" height="50px"><path fill="#42a5f5" d="M8,39V9c0-2.2,1.8-4,4-4h24c2.2,0,4,1.8,4,4v30c0,2.2-1.8,4-4,4H12C9.8,43,8,41.2,8,39z"/><path fill="#1e88e5" d="M11 34A2 2 0 1 0 11 38 2 2 0 1 0 11 34zM11 26A2 2 0 1 0 11 30 2 2 0 1 0 11 26zM11 18A2 2 0 1 0 11 22 2 2 0 1 0 11 18zM11 10A2 2 0 1 0 11 14 2 2 0 1 0 11 10z"/><path fill="#cfd8dc" d="M11 37H7c-.6 0-1-.4-1-1l0 0c0-.6.4-1 1-1h4c.6 0 1 .4 1 1l0 0C12 36.6 11.6 37 11 37zM11 29H7c-.6 0-1-.4-1-1l0 0c0-.6.4-1 1-1h4c.6 0 1 .4 1 1l0 0C12 28.6 11.6 29 11 29zM11 21H7c-.6 0-1-.4-1-1l0 0c0-.6.4-1 1-1h4c.6 0 1 .4 1 1l0 0C12 20.6 11.6 21 11 21zM11 13H7c-.6 0-1-.4-1-1l0 0c0-.6.4-1 1-1h4c.6 0 1 .4 1 1l0 0C12 12.6 11.6 13 11 13z"/><path fill="#fafafa" d="M16 12H34V22H16z"/><path fill="#1565c0" d="M16 30h18v2H16V30zM16 34h15v2H16V34zM16 26h6v2h-6V26zM24 26h10v2H24V26z"/></svg>