<svg xmlns="http://www.w3.org/2000/svg"  viewBox="0 0 48 48" width="50px" height="50px"><path fill="#009688" d="M4 12.001H44V37.001H4z"/><path fill="#00796B" d="M4,14v23h3v-8.945C8.383,28.651,9.896,29,11.5,29C17.852,29,23,23.852,23,17.5c0-0.51-0.045-1.008-0.112-1.5H41v21h3V14H4z"/><path fill="#DD7C12" d="M42,14v21.999H6V14H42 M44,12H4v25h40V12L44,12z"/><path fill="#B7610B" d="M4,26.206c0.615,0.53,1.282,1.003,2,1.396V14h16.454c-0.223-0.697-0.507-1.367-0.853-2H4V26.206z"/><path fill="#773D04" d="M46,40v-2c0-1.104-0.896-2-2-2H4c-1.104,0-2,0.896-2,2v2H46z"/><path fill="#FFF" d="M19 36L12 36 12 34 19 34 20 35z"/><path fill="#00ACC1" d="M21,17.5c0,5.247-4.253,9.5-9.5,9.5S2,22.747,2,17.5S6.253,8,11.5,8S21,12.253,21,17.5"/><path fill="#EEE" d="M11.5,10.5c-3.866,0-7,3.133-7,7s3.134,7,7,7s7-3.133,7-7S15.366,10.5,11.5,10.5z M11.5,18c-0.275,0-0.5-0.224-0.5-0.5s0.225-0.5,0.5-0.5s0.5,0.224,0.5,0.5S11.775,18,11.5,18z"/><path d="M11 12H12V16.734H11z"/><path d="M12.549 17.429H14.208V21.326999999999998H12.549z" transform="rotate(135.024 13.379 19.378)"/><path d="M11.5,16c-0.829,0-1.5,0.672-1.5,1.5c0,0.83,0.671,1.5,1.5,1.5s1.5-0.67,1.5-1.5C13,16.672,12.329,16,11.5,16z M11.5,18c-0.275,0-0.5-0.224-0.5-0.5s0.225-0.5,0.5-0.5s0.5,0.224,0.5,0.5S11.775,18,11.5,18z"/></svg>