<svg xmlns="http://www.w3.org/2000/svg"  viewBox="0 0 48 48" width="50px" height="50px"><path fill="#e39d36" d="M32.491,29.094L19.313,36.92c-0.025,0,3.074,4.029,3.074,4.029l12.605-7.648c1.15-0.691,1.527-2.18,0.848-3.336C35.156,28.799,33.657,28.408,32.491,29.094"/><path fill="#eda740" d="M36.022,29.549l-13.178,7.828c-0.025,0,3.074,4.03,3.074,4.03l12.605-7.648c1.15-0.691,1.528-2.182,0.848-3.338C38.687,29.254,37.188,28.863,36.022,29.549"/><path fill="#ffb74d" d="M38.942,30.43l-12.357,7.34c-0.028,0,0.029,0,0,0l-5.867-3.359l2.949,1.609c1.288,0.701,2.935,0.48,3.892-0.629c1.322-1.535,0.858-3.816-0.842-4.746l-12.351-7.147c-1.149-0.63-2.543-0.619-3.683,0.028L5.042,27C5.027,27.025,5,38,5,38l4.087-2.708l15.107,8.247c1.178,0.642,2.608,0.613,3.758-0.083l13.771-8.347c1.278-0.77,1.698-2.424,0.942-3.711C41.905,30.104,40.239,29.67,38.942,30.43"/><path fill="#eda740" d="M26.534,37.797l0.053-0.027l-1.368-0.877l-10.683-6.041l8.035,6.59C23.694,38.361,25.266,38.501,26.534,37.797"/><path fill="#ffcc80" d="M24.491,35.16c-0.902-0.465-0.574-1.275-0.109-2.176c0.467-0.903,0.896-1.555,1.798-1.09c0.901,0.465,1.255,1.574,0.789,2.477C26.503,35.273,25.394,35.625,24.491,35.16"/><path fill="#90caf9" d="M22,4H12v16h10c2.209,0,4,1.79,4,4V8C26,5.79,24.209,4,22,4z"/><path fill="#42a5f5" d="M30,4c-2.209,0-4,1.79-4,4v1v12v3c0-2.21,1.791-4,4-4h10V4H30z"/></svg>