<svg xmlns="http://www.w3.org/2000/svg"  viewBox="0 0 48 48" width="50px" height="50px"><path fill="#607d8b" d="M29.807,40.144l-4.5-9.5c-0.218-0.457-0.611-0.837-1.124-1.024l0,0l-7.675-3.959 c0.009-0.034,0.018-0.071,0.028-0.105c0.236-0.863,0.505-1.717,0.802-2.553c0.589-1.675,1.318-3.268,2.163-4.702l0.024-0.041 c0.983-1.664,0.431-3.81-1.233-4.793s-3.81-0.431-4.793,1.233c-1.147,1.942-2.042,3.938-2.756,5.959 c-0.359,1.011-0.679,2.028-0.96,3.055c-0.283,1.052-0.517,2.011-0.735,3.21l0,0.001l-0.062,0.69 c-0.132,1.468,0.841,2.843,2.318,3.175l10.797,2.429l4.091,8.638c0.473,0.998,1.665,1.424,2.664,0.951 C29.854,42.335,30.28,41.142,29.807,40.144z"/><polyline fill="#ff7043" points="25,19 29,14 33,17 29,22 27,22 25,19"/><polygon fill="#795548" points="16.441,33 18.938,43 21,43 18.503,33"/><polygon fill="#795548" points="8.437,33 5.941,43 8.003,43 10.5,33"/><circle cx="22" cy="9" r="4" fill="#ffb74d"/><path fill="#ff9800" d="M17,31h-4.47c-1.479,0-2.751-1.1-2.961-2.568L8.09,18.416C7.8,16.453,6.116,15,4.133,15H3.542 l2.069,14.006C6.099,32.423,9.073,35,12.53,35H21C21,32.791,19.209,31,17,31z"/><rect width="3" height="20" x="38" y="23" fill="#ff9800"/><rect width="3" height="20" x="23" y="23" fill="#ff9800"/><rect width="22" height="3" x="21" y="22" fill="#ff9800"/><rect width="8" height="2" x="34" y="20" fill="#66bb6a"/><rect width="8" height="2" x="36" y="18" fill="#f06292"/><rect width="8" height="2" x="35" y="16" fill="#42a5f5"/><path fill="#607d8b" d="M27.5,19h-6.043l-1.825-4.001c-0.052-0.111-0.119-0.23-0.193-0.333 c-0.645-0.903-1.899-1.113-2.803-0.468c-0.903,0.645-1.113,1.899-0.468,2.803l3.033,4.25l0.096,0.135 C19.567,21.758,20.005,22,20.5,22h7c0.828,0,1.5-0.672,1.5-1.5S28.328,19,27.5,19z"/></svg>