<svg xmlns="http://www.w3.org/2000/svg"  viewBox="0 0 48 48" width="50px" height="50px"><rect width="28" height="2" x="1" y="35" fill="#bba9a3"/><circle cx="22" cy="36" r="3" fill="#bba9a3"/><rect width="2" height="26" x="41" y="10" fill="#bba9a3"/><path fill="#d7ccc8" d="M41.1,26c-0.4,0-0.8,0.1-1.2,0.2c-0.7-0.7-1.7-1.2-2.8-1.2v-3c0-2.2-1.8-4-4-4c-2.2,0-4,1.8-4,4v9	c-1.5-1-3.6-0.8-5,0.5c-1.5,1.6-1.5,4.1,0,5.7l0.5,0.3c0.1-0.2,0.2-0.3,0.3-0.5H32h1.2H43v-6v-3v-1.5C42.4,26.2,41.8,26,41.1,26z"/><path fill="#efebe9" d="M12.8,7H3v28h18V9C19.9,8,16.7,7,12.8,7z"/><rect width="20.8" height="2" x="1" y="35" fill="#bba9a3"/><line x1="22" x2="22" y1="34" y2="9" fill="none" stroke="#bba9a3" stroke-miterlimit="10" stroke-width="2"/><path fill="#bba9a3" d="M18,12.1C14.8,11,11.6,11,6,11v2c5.9,0,8.9,0,12,1.2V12.1z"/><path fill="#bba9a3" d="M18,17.1C14.8,16,11.6,16,6,16v2c5.9,0,8.9,0,12,1.2V17.1z"/><path fill="#bba9a3" d="M18,22.1C14.8,21,11.6,21,6,21v2c5.9,0,8.9,0,12,1.2V22.1z"/><path fill="#bba9a3" d="M18,27.1C14.8,26,11.6,26,6,26v2c5.9,0,8.9,0,12,1.2V27.1z"/><rect width="2" height="28" x="1" y="9" fill="#bba9a3"/><path fill="#efebe9" d="M41,7h-9.8c-3.9,0-7.1,1-8.2,2v26h18V7z"/><path fill="#bba9a3" d="M26,12.1C29.2,11,32.4,11,38,11v2c-5.9,0-8.9,0-12,1.2V12.1z"/><path fill="#f5f5f5" d="M39.9,26.2c-0.7-0.7-1.7-1.2-2.8-1.2v-3c0-2.2-1.8-4-4-4c-2.2,0-4,1.8-4,4v9c-1.5-1-3.6-0.8-5,0.5	c-0.9,1-1.3,2.3-1.1,3.5h7v1h2v-1h1.1H41v-5v-3v-1C40.6,26,40.2,26.1,39.9,26.2z"/><path fill="#ffcc80" d="M45,29c-1.1,0-2,0.9-2,2v-1c0-1.1-0.9-2-2-2s-2,0.9-2,2v-1c0-1.1-0.9-2-2-2s-2,0.9-2,2v-7	c0-1.1-0.9-2-2-2s-2,0.9-2,2v8.4V31v4.7l-2.8-2.8c-0.8-0.8-2-0.8-2.8,0s-0.8,2,0,2.8l5.6,5.6c0,0,2.7,2.7,5,2.7h4.8	c3.3,0,6-2.5,6.2-5.8c0-0.1,0-0.1,0-0.2v-0.2v-5.4V31C47,29.9,46.1,29,45,29z"/><path fill="#bba9a3" d="M26,17.1C29.2,16,32.4,16,38,16v2c-5.9,0-8.9,0-12,1.2V17.1z"/></svg>