<svg xmlns="http://www.w3.org/2000/svg"  viewBox="0 0 48 48" width="50px" height="50px"><rect width="44" height="2" x="2" y="41" fill="#d7ccc8"/><rect width="5" height="18" x="36" y="19" fill="#d7ccc8"/><rect width="5" height="18" x="7" y="19" fill="#d7ccc8"/><polygon fill="#d7ccc8" points="43,17 5,17 5,14 24,5 43,14"/><rect width="36" height="2" x="6" y="37" fill="#d7ccc8"/><rect width="7" height="2" x="35" y="17" fill="#bcaaa4"/><rect width="7" height="2" x="6" y="17" fill="#bcaaa4"/><rect width="40" height="2" x="4" y="39" fill="#bcaaa4"/><circle cx="24" cy="12" r="2" fill="#bcaaa4"/><path fill="#d32f2f" d="M14,21h20v13H14V21z"/><path fill="#d32f2f" d="M21.392,32.389c0-1.438,1.165-2.607,2.608-2.607s2.608,1.169,2.608,2.607	c0,1.44-1.165,2.609-2.608,2.609S21.392,33.829,21.392,32.389z"/><path fill="#4c0808" d="M22.39,32.391c0-0.887,0.72-1.612,1.61-1.612s1.61,0.725,1.61,1.612C25.61,33.281,24.89,34,24,34	S22.39,33.281,22.39,32.391z"/><path fill="#bcaaa4" d="M31.385,20.001L24.615,21h-1.231l-6.769-0.999L16,22.332V32.39h16V22.332L31.385,20.001z"/><path fill="#e5e2e1" d="M32,20.001c0,0-7-0.095-7,1.304c0,1.397,0,11.084,0,11.084c0-1.399,7-1.304,7-1.304V20.001z"/><path fill="#e5e2e1" d="M16,20.001c0,0,7-0.095,7,1.304c0,1.397,0,11.084,0,11.084c0-1.399-7-1.304-7-1.304V20.001z"/></svg>