<svg xmlns="http://www.w3.org/2000/svg"  viewBox="0 0 48 48" width="50px" height="50px"><path fill="#00ACC1" d="M12,5h5c0,0,0,11.177,0,17.538c0,2.924,1.58,4.814,4.841,4.814c2.159,0,5.147-4.644,5.147-6.705C27.16,16.004,27,5,27,5h5c0,0,0,8.599,0,18.912c0,1.035-0.037,4.472,2.023,4.472c2.744,0,3.432-3.954,3.432-3.954H39c0,0-0.516,6.532-5.49,6.532c-3.26,0-4.635-1.03-5.836-5.156c0,0-2.34,5.156-7.721,5.156c-1.374,0-3.604-0.688-5.491-1.721c0,3.957,0.688,7.224,0.688,10.318c0,1.721-0.688,3.44-2.575,3.44C10.858,43,10,41.623,10,39.56c0-2.579,2-8.251,2-14.443V5z"/></svg>