<svg xmlns="http://www.w3.org/2000/svg"  viewBox="0 0 48 48" width="50px" height="50px"><polygon fill="#d32f2f" points="3,10 3,39 24.829,39 38.908,39 45,39 45,32.908 45,18.829 45,10"/><polygon fill="#d7ccc8" points="40,7 25,10 23,10 8,7 6,12 6,36 27.829,36 42,36 42,21.829 42,12"/><path fill="#bcaaa4" d="M8,33h15v3h2v-3h15l2.25,3h-36L8,33z"/><path fill="#efebe9" d="M8,7v26c0,0,15,0,15,3c0,0,0-23,0-26S8,7,8,7z"/><path fill="#efebe9" d="M25,10c0,3,0,26,0,26c0-1.183,2.336-1.899,5.162-2.332C34.501,33.001,40,33,40,33v-9.171V7	C40,7,25,7,25,10z"/><path fill="#ffc107" d="M21.273,17.983l5.657,1.414l-4.243,4.243L21.273,17.983z"/><rect width="6" height="23" x="29.919" y="18.128" fill="#4caf50" transform="rotate(134.999 32.919 29.628)"/><rect width="2" height="22.993" x="31.921" y="18.134" fill="#388e3c" transform="rotate(134.999 32.921 29.63)"/><rect width="5.8" height="3" x="39.211" y="37.32" fill="#b0bec5" transform="rotate(134.999 42.111 38.82)"/><path fill="#e57373" d="M41.05,42.002l4.243-4.243l1.414,1.414c0.391,0.391,0.391,1.024,0,1.414l-2.828,2.828 c-0.391,0.391-1.024,0.391-1.414,0L41.05,42.002z"/><polygon fill="#37474f" points="24.597,18.814 21.273,17.983 22.104,21.306"/></svg>