<svg xmlns="http://www.w3.org/2000/svg"  viewBox="0 0 48 48" width="50px" height="50px"><path fill="#FFCC80" d="M18.992,44v-4.631l-2.617,0.533c-2.865,0.586-5.598-1.462-5.84-4.375L9.99,29.007L7.094,27.8c-1.002-0.417-1.4-1.626-0.842-2.557l3.738-6.231C10.619,11.455,14.908,4,26.012,4c11.432,0,16.986,8.44,16.986,17.007c0,3.651-1.348,6.869-3.343,9.616c-1.794,2.466-2.661,5.486-2.661,8.536V44H18.992z"/><path fill="#9C27B0" d="M24.023 28c0-1.255.149-2.413.451-3.156.302-.744.854-1.477 1.658-2.199.805-.721 1.338-1.309 1.605-1.764.267-.453.398-.93.398-1.434 0-1.518-.691-2.275-2.077-2.275-.657 0-1.183.205-1.577.613-.396.409-.603 1.498-.621 2.215H20c.017-1.711.566-3.578 1.646-4.549C22.723 14.485 24.196 14 26.06 14c1.884 0 3.343.461 4.382 1.381C31.48 16.3 32 17.596 32 19.273c0 .763-.169 1.482-.506 2.16-.338.677-.929 1.429-1.772 2.254l-1.077 1.035c-.676.656-1.062 1.422-1.16 2.302L27.432 28H24.023zM24 32.015c0-.584.188-1.064.563-1.445C24.937 30.191 25.416 30 26 30s1.063.191 1.438.569C27.811 30.95 28 31.431 28 32.015c0 .574-.184 1.049-.549 1.422C27.082 33.813 26.6 34 26 34s-1.084-.188-1.451-.563C24.184 33.063 24 32.589 24 32.015z"/></svg>