<svg xmlns="http://www.w3.org/2000/svg"  viewBox="0 0 48 48" width="50px" height="50px"><path fill="#ffb74d" d="M38,26l-9.049-8.756C28.463,17,27.731,17,27,17H16v0.058c-0.506,0.103-0.986,0.356-1.358,0.768l-9,10c-0.924,1.026-0.84,2.607,0.186,3.531C6.306,31.788,6.903,32,7.499,32c0.685,0,1.365-0.279,1.859-0.827L17,23v9h11v8h15V26H38z"/><path fill="#e69329" d="M27 30h-5v8.5c0 1.381 1.119 2.5 2.5 2.5 1.381 0 2.5-1.119 2.5-2.5V30zM22 29h-5v8.5c0 1.381 1.119 2.5 2.5 2.5 1.381 0 2.5-1.119 2.5-2.5V29zM17 28h-5v7.5c0 1.381 1.119 2.5 2.5 2.5 1.381 0 2.5-1.119 2.5-2.5V28z"/><path fill="#455a64" d="M7.601,39.151l-1.513-1.308l-1.309,1.515c-0.361,0.418-0.315,1.049,0.103,1.41h0c0.418,0.361,1.049,0.314,1.41-0.103L7.601,39.151z"/><path fill="#90a4ae" d="M30.59,8.413l-0.818-0.696c-1.257-1.07-3.143-0.926-4.222,0.324L19,15.621l1.513,1.306l6.538-7.566c0.372-0.43,1.022-0.478,1.453-0.106l0.778,0.672L30.59,8.413z"/><path fill="#33691e" d="M33.961,7.731c-1.255-1.084-3.148-0.946-4.23,0.307L19.538,19.361l4.541,3.923L34.27,11.96C35.353,10.707,35.215,8.814,33.961,7.731z"/><path fill="#4caf50" d="M7.279,39.526c1.844-0.557,5.301-3.076,6.091-3.99l10.055-11.495l-4.541-3.923L8.83,31.614c-0.79,0.913-2.78,4.7-3.063,6.604L7.279,39.526z"/><path fill="#ff0" d="M18.155 21.078H24.154V23.08H18.155z" transform="rotate(40.819 21.153 22.078)"/><path fill="#ffb74d" d="M10.133,32.108L10.133,32.108c-0.528,1.661,0.586,3.105,2.026,3.658l10.676,3.055c0.72,0.279,4.202,1.864,6.706,0.887c2.795-1.09,5.2-3.385,5.2-3.385L28,28l-5.364,3.011L14.5,30.125C12.205,29.746,10.699,30.424,10.133,32.108"/><path fill="#ffcdd2" d="M12.067,34.459c-0.911-0.41-1.317-1.48-0.908-2.392c0.411-0.911,1.482-1.318,2.393-0.906C14.463,31.569,12.979,34.869,12.067,34.459"/><path fill="#e69329" d="M22.77 24.798L22.766 24.794 17.79 30.483 22.636 31.011 28 28 26 24.011 24.23 23.116 24.079 23.284 23.424 24.042 23.424 24.042 23.396 24.074z"/></svg>