<svg xmlns="http://www.w3.org/2000/svg"  viewBox="0 0 48 48" width="50px" height="50px"><path fill="#f57c00" d="M8.444,20.333h31.111V27H8.444V20.333z"/><path fill="#ffc107" d="M4,19h40v5.333H4V19z"/><path fill="#ff9800" d="M6.667,24.333H11L8.333,43h-3L6.667,24.333z M37,24.333h4.333L42.667,43h-3L37,24.333z"/><path fill="#673ab7" d="M14,42v-6h21v6H14z"/><path fill="#4527a0" d="M14,42v-2h21v2H14z"/><rect width="2" height="6" x="17" y="36" fill="#9575cd"/><rect width="2" height="6" x="30" y="36" fill="#9575cd"/><rect width="2" height="2" x="17" y="40" fill="#7e57c2"/><rect width="2" height="2" x="30" y="40" fill="#7e57c2"/><path fill="#4caf50" d="M14,36v-6h19v6H14z"/><path fill="#388e3c" d="M14,36v-2h19v2H14z"/><rect width="2" height="6" x="17" y="30" fill="#81c784"/><rect width="2" height="6" x="28" y="30" fill="#81c784"/><rect width="2" height="2" x="17" y="34" fill="#4caf50"/><rect width="2" height="2" x="28" y="34" fill="#4caf50"/></svg>