<svg xmlns="http://www.w3.org/2000/svg"  viewBox="0 0 48 48" width="50px" height="50px"><polygon fill="#263238" points="39,22 5,22 9,17 32,17"/><path fill="#455a64" d="M44.831,22.517l-4.807-1.02l-5.003-4.125C33.949,16.487,32.594,16,31.204,16H12.618	c-2.586,0-5.049,1.114-6.759,3.057L4.15,21.001L3,21c-1.654,0-3,1.346-3,3v3c0,1.103,0.897,2,2,2h44c1.103,0,2-0.897,2-2v-0.57	C48,24.554,46.667,22.908,44.831,22.517z M36.304,21.021L32,21.018v-2.929c0.638,0.13,1.242,0.407,1.75,0.826L36.304,21.021z M30,18	v3.017l-17-0.01V18H30z M7.361,20.378c0.965-1.098,2.242-1.85,3.639-2.182v2.809l-4.188-0.003L7.361,20.378z"/><circle cx="40" cy="28" r="3" fill="#90a4ae"/><path fill="#37474f" d="M40,32c-2.206,0-4-1.794-4-4s1.794-4,4-4s4,1.794,4,4S42.206,32,40,32z M40,26c-1.103,0-2,0.897-2,2 s0.897,2,2,2s2-0.897,2-2S41.103,26,40,26z"/><circle cx="8" cy="28" r="3" fill="#90a4ae"/><path fill="#37474f" d="M8,32c-2.206,0-4-1.794-4-4s1.794-4,4-4s4,1.794,4,4S10.206,32,8,32z M8,26c-1.103,0-2,0.897-2,2 s0.897,2,2,2s2-0.897,2-2S9.103,26,8,26z"/><path fill="#ff1744" d="M1,25l1-2H0.184C0.072,23.314,0,23.648,0,24v1H1z"/><g><path fill="#b3e5fc" d="M46.011,25h1.735c-0.325-0.832-0.92-1.539-1.692-2H44v0C44,24.105,44.9,25,46.011,25z"/></g></svg>