<svg xmlns="http://www.w3.org/2000/svg"  viewBox="0 0 48 48" width="50px" height="50px"><path fill="#455A64" d="M13 32c0-.553-.447-1-1-1H9c-.553 0-1 .447-1 1v6c0 .553.447 1 1 1h3c.553 0 1-.447 1-1V32zM32 32c0-.553-.447-1-1-1h-3c-.553 0-1 .447-1 1v6c0 .553.447 1 1 1h3c.553 0 1-.447 1-1V32z"/><path fill="#FFC107" d="M31.5,6h-5.758C25.02,5.996,24.271,6,23.5,6h-7c-0.771,0-1.52-0.004-2.243,0H8.5C7.119,6,6,7.119,6,8.5v3v10v1.497V34c0,0,0,2,2,2s21.999,0,24,0c2,0,2-2,2-2V24v-2.5v-10v-3C34,7.119,32.881,6,31.5,6z"/><path fill="#FFC107" d="M8 23.499c0 .828-.672 1.5-1.5 1.5h-1c-.828 0-1.5-.672-1.5-1.5V20.5C4 19.671 4.672 19 5.5 19h1C7.328 19 8 19.671 8 20.5V23.499zM36 23.499c0 .828-.672 1.5-1.5 1.5h-1c-.828 0-1.5-.672-1.5-1.5V20.5c0-.829.672-1.5 1.5-1.5h1c.828 0 1.5.671 1.5 1.5V23.499z"/><path fill="#FFF8E1" d="M11 29A2 2 0 1 0 11 33 2 2 0 1 0 11 29zM29 29A2 2 0 1 0 29 33 2 2 0 1 0 29 29z"/><path fill="#9FA8DA" d="M30.5,8h-21C8.672,8,8,8.672,8,9.5v4v1v6c0,1.381,1.119,2.5,2.5,2.5h19c1.381,0,2.5-1.119,2.5-2.5v-6v-1v-4C32,8.672,31.328,8,30.5,8z"/><path fill="#263238" d="M32,14H8V9.5C8,8.672,8.672,8,9.5,8h21C31.328,8,32,8.672,32,9.5V14z"/><path fill="#64DD17" d="M10 10H17V12H10zM19 10H23V12H19z"/><path fill="#7986CB" d="M18 23h-7v-5.5c0-.828.672-1.5 1.5-1.5h4c.828 0 1.5.672 1.5 1.5V23zM29 23h-7v-5.5c0-.828.672-1.5 1.5-1.5h4c.828 0 1.5.672 1.5 1.5V23z"/><path fill="#C5CAE9" d="M36,25h-8c-2.563,0-4,6.344-4,8h16C40,31.344,39,25,36,25z"/><g><path fill="#455A64" d="M25 41c0 .553-.447 1-1 1h-1c-.553 0-1-.447-1-1v-3c0-.553.447-1 1-1h1c.553 0 1 .447 1 1V41zM42 41c0 .553-.447 1-1 1h-1c-.553 0-1-.447-1-1v-3c0-.553.447-1 1-1h1c.553 0 1 .447 1 1V41z"/></g><path fill="#3949AB" d="M25.5,21c1.379,0,2.5,0.897,2.5,2h1.5c0.169,0,0.334-0.018,0.494-0.05C29.963,20.768,27.962,19,25.5,19c-2.481,0-4.5,1.794-4.5,4h2C23,21.897,24.121,21,25.5,21z"/><g><path fill="#AB47BC" d="M42,33c0-0.553-0.447-1-1-1H23c-0.553,0-1,0.447-1,1v6c0,0.553,0.447,1,1,1h18c0.553,0,1-0.447,1-1V33z"/><path fill="#AB47BC" d="M44,33c0,0.553-0.447,1-1,1H21c-0.553,0-1-0.447-1-1v-1c0-0.553,0.447-1,1-1h22c0.553,0,1,0.447,1,1V33z"/><path fill="#AB47BC" d="M28,26h8c1.836,0,3,4.922,3,7h2c0-1.398-0.922-9-5-9h-8c-3.638,0-5,7.474-5,9h2C25,31.198,26.525,26,28,26z"/></g><path fill="#212121" d="M41,37.401C41,37.732,40.735,38,40.409,38H23.591C23.265,38,23,37.732,23,37.401v-1.801C23,35.269,23.265,35,23.591,35h16.818C40.735,35,41,35.269,41,35.601V37.401z"/><g><path fill="#FFEB3B" d="M24.857 35.714A.857.857 0 1 0 24.857 37.428.857.857 0 1 0 24.857 35.714zM39.143 35.642A.857.857 0 1 0 39.143 37.356.857.857 0 1 0 39.143 35.642z"/></g></svg>