<svg xmlns="http://www.w3.org/2000/svg"  viewBox="0 0 48 48" width="50px" height="50px"><polygon fill="#b0bec5" points="18.732,13.015 20.263,13.649 17.585,20.116 16.106,19.504 7,42 24,48 24,0"/><polygon fill="#90a4ae" points="29.268,13.015 27.737,13.649 30.415,20.116 31.894,19.504 41,42 24,48 24,0"/><rect width="14" height="4" x="17" y="40" fill="#cfd8dc"/><circle cx="20" cy="42" r="1" fill="#b0bec5"/><circle cx="16" cy="38" r="1" fill="#90a4ae"/><circle cx="16" cy="34" r="1" fill="#90a4ae"/><circle cx="16" cy="30" r="1" fill="#90a4ae"/><circle cx="32" cy="38" r="1" fill="#b0bec5"/><circle cx="32" cy="34" r="1" fill="#b0bec5"/><circle cx="32" cy="30" r="1" fill="#b0bec5"/><circle cx="28" cy="42" r="1" fill="#b0bec5"/><rect width="2" height="4" x="23" y="44" fill="#cfd8dc"/><rect width="10" height="12" x="19" y="28" fill="#cfd8dc"/><polygon fill="#cfd8dc" points="28,28 20,28 20,25 23.938,24 28,25"/><rect width="10" height="2" x="19" y="28" fill="#b0bec5"/><rect width="2" height="3" x="16" y="23" fill="#78909c"/><rect width="10" height="2" x="19" y="38" fill="#b0bec5"/><rect width="2" height="3" x="30" y="23" fill="#78909c"/></svg>