<svg xmlns="http://www.w3.org/2000/svg"  viewBox="0 0 48 48" width="50px" height="50px"><path fill="#ffa000" d="M28,34H2.9c0,0-1.9,0.1-1.9-2s0-5,0-5h27V34z"/><path fill="#ffc107" d="M45,36H27c0,0,0-16,0-18s2-2,2-2h12.6c0.9,0,1.6,0.6,1.9,1.4L47,26v8C47,35.1,46.1,36,45,36"/><path fill="#7a1a04" d="M43,26h-7c-0.6,0-1-0.4-1-1v-6c0-0.6,0.4-1,1-1h5c0.4,0,0.8,0.3,0.9,0.7l2,5c0,0.1,0.1,0.2,0.1,0.3 v1C44,25.6,43.6,26,43,26"/><path fill="#607d8b" d="M7,17.2V9H5v9c0,0,0,1,1,1c0.6,0,1,0.4,1,1s-0.4,1-1,1c-0.6,0-1-0.4-1-1H3c0,1.7,1.3,3,3,3 s3-1.3,3-3C9,18.7,8.2,17.6,7,17.2z"/><path fill="#b0bec5" d="M22,27c-0.3,0-0.5-0.1-0.7-0.3l-16-17c-0.4-0.4-0.4-1,0-1.4l1-1c0.4-0.4,1-0.4,1.4,0l17,15 c0.4,0.3,0.4,0.9,0.2,1.3l-2,3C22.7,26.8,22.4,27,22,27C22.1,27,22,27,22,27z M11.1,12.9l10.8,11.5l0.8-1.2L11.1,12.9z"/><path fill="#90a4ae" d="M38,37H12v-4h26V37z M18,27h7v-4h-7V27z"/><path fill="#455a64" d="M16,36c0,2.8-2.2,5-5,5s-5-2.2-5-5s2.2-5,5-5S16,33.2,16,36 M42,36c0-2.8-2.2-5-5-5s-5,2.2-5,5 s2.2,5,5,5S42,38.8,42,36"/><path fill="#cfd8dc" d="M13,36c0,1.1-0.9,2-2,2c-1.1,0-2-0.9-2-2s0.9-2,2-2C12.1,34,13,34.9,13,36 M39,36c0-1.1-0.9-2-2-2 s-2,0.9-2,2s0.9,2,2,2S39,37.1,39,36"/></svg>