<svg xmlns="http://www.w3.org/2000/svg"  viewBox="0 0 48 48" width="50px" height="50px"><path fill="#455A64" d="M17 30c0 .553-.448 1-1 1h-1c-.552 0-1-.447-1-1v-3c0-.553.448-1 1-1h1c.552 0 1 .447 1 1V30zM36 30c0 .553-.447 1-1 1h-1c-.553 0-1-.447-1-1v-3c0-.553.447-1 1-1h1c.553 0 1 .447 1 1V30z"/><path fill="#AB47BC" d="M30,13H20c-3.638,0-5,7.473-5,9h20C35,20.602,34.078,13,30,13z"/><path fill="#AB47BC" d="M36,22c0-0.553-0.447-1-1-1H15c-0.552,0-1,0.447-1,1v6c0,0.553,0.448,1,1,1h20c0.553,0,1-0.447,1-1V22z"/><path fill="#AB47BC" d="M38,22c0,0.553-0.447,1-1,1H13c-0.552,0-1-0.447-1-1v-1c0-0.553,0.448-1,1-1h24c0.553,0,1,0.447,1,1V22z"/><path fill="#3F51B5" d="M41,25v3.5c0,1.381-1.119,2.5-2.5,2.5h-26c-1.381,0-2.5-1.119-2.5-2.5V5H5v25.5c0,3.037,2.462,5.5,5.5,5.5h27c3.037,0,5.5-2.463,5.5-5.5V25H41z"/><path fill="#90CAF9" d="M44,34c-3,0-4-2-4-2s-1,2-4,2s-4-2-4-2s-1,2-4,2s-4-2-4-2s-1,2-4,2s-4-2-4-2s-1,2-4,2s-4-2-4-2s-1,2-4,2v8h4h32h4V34z"/><path fill="#2196F3" d="M44,38c-3,0-4-2-4-2s-1,2-4,2s-4-2-4-2s-1,2-4,2s-4-2-4-2s-1,2-4,2s-4-2-4-2s-1,2-4,2s-4-2-4-2s-1,2-4,2v4h4h32h4V38z"/><path fill="#212121" d="M34.715,26.43c0,0.315-0.256,0.57-0.572,0.57H15.857c-0.316,0-0.572-0.255-0.572-0.57v-1.715c0-0.316,0.255-0.572,0.572-0.572h18.285c0.316,0,0.572,0.256,0.572,0.572V26.43z"/><path fill="#FFEB3B" d="M16.714 24.714000000000002A.857.857 0 1 0 16.714 26.428.857.857 0 1 0 16.714 24.714000000000002zM33.285 24.714000000000002A.857.857 0 1 0 33.285 26.428.857.857 0 1 0 33.285 24.714000000000002z"/><path fill="#283593" d="M13 12L10 15 5 15 5 5 13 5z"/><path fill="#5C6BC0" d="M5 5H13V12H5z"/><path fill="#E3F2FD" d="M32.771,19.939C32.348,17.696,31.359,15,30,15H20c-1.072,0-2.169,2.747-2.688,4.939H32.771z"/></svg>