<svg xmlns="http://www.w3.org/2000/svg"  viewBox="0 0 48 48" width="50px" height="50px"><path fill="#78909C" d="M11 9H18V11H11zM30 9H37V11H30z"/><path fill="#455A64" d="M41 29H7c0 0-3 0-3-9s3-9 3-9h34c0 0 3 0 3 9S41 29 41 29zM19 10V9c0-.552-.447-1-1-1h-7c-.553 0-1 .448-1 1v1H19zM38 10V9c0-.552-.447-1-1-1h-7c-.553 0-1 .448-1 1v1H38z"/><path fill="#FFC107" d="M4,20c0,0.355,0.013,0.672,0.021,1h39.957C43.987,20.672,44,20.355,44,20s-0.013-0.672-0.021-1H4.021C4.013,19.328,4,19.645,4,20z"/><path fill="#FFC107" d="M24 15A5 5 0 1 0 24 25A5 5 0 1 0 24 15Z"/><path fill="#263238" d="M22,21c0-1.104,2-4,2-4s2,2.896,2,4s-0.896,2-2,2S22,22.104,22,21z"/><g><path fill="#455A64" d="M12 35.5c0 1.932-1.567 3.5-3.5 3.5S5 37.432 5 35.5 6.567 32 8.5 32 12 33.568 12 35.5M21 35.5c0 1.932-1.567 3.5-3.5 3.5S14 37.432 14 35.5s1.567-3.5 3.5-3.5S21 33.568 21 35.5M34 35.5c0 1.932-1.567 3.5-3.5 3.5S27 37.432 27 35.5s1.567-3.5 3.5-3.5S34 33.568 34 35.5M43 35.5c0 1.932-1.567 3.5-3.5 3.5S36 37.432 36 35.5s1.567-3.5 3.5-3.5S43 33.568 43 35.5"/></g><g><path fill="#90A4AE" d="M19 36c0 .553-.447 1-1 1H9c-.553 0-1-.447-1-1l0 0c0-.553.447-1 1-1h9C18.553 35 19 35.447 19 36L19 36zM41 36c0 .553-.447 1-1 1h-9c-.553 0-1-.447-1-1l0 0c0-.553.447-1 1-1h9C40.553 35 41 35.447 41 36L41 36z"/></g><path fill="#263238" d="M4 29H44V33H4z"/></svg>