<svg xmlns="http://www.w3.org/2000/svg"  viewBox="0 0 48 48" width="50px" height="50px"><path fill="#424242" d="M28.3 14H38.7V16H28.3z" transform="rotate(-73.316 33.5 15)"/><path fill="#b0bec5" d="M4 17L2 17 2 22 23 22 46 20 44 17 26 17 24 10 5 10z"/><path fill="#424242" d="M4 31L41 31 46 20 23 22 2 22z"/><path fill="#00897b" d="M39,11H3c-0.6,0-1-0.4-1-1s0.4-1,1-1h36c0.6,0,1,0.4,1,1S39.6,11,39,11z"/><path fill="#263238" d="M2,22c0,0,33,0,44-2"/><path fill="#dd2c00" d="M2,23c-0.6,0-1-0.4-1-1s0.4-1,1-1c0.3,0,33,0,43.8-2c0.5-0.1,1.1,0.3,1.2,0.8 c0.1,0.5-0.3,1.1-0.8,1.2C35.2,23,3.4,23,2,23z"/><path fill="#455a64" d="M10.5 17h-3C7.2 17 7 16.8 7 16.5v-3C7 13.2 7.2 13 7.5 13h3c.3 0 .5.2.5.5v3C11 16.8 10.8 17 10.5 17zM16.5 17h-3c-.3 0-.5-.2-.5-.5v-3c0-.3.2-.5.5-.5h3c.3 0 .5.2.5.5v3C17 16.8 16.8 17 16.5 17zM22.5 17h-3c-.3 0-.5-.2-.5-.5v-3c0-.3.2-.5.5-.5h3c.3 0 .5.2.5.5v3C23 16.8 22.8 17 22.5 17z"/><path fill="#90caf9" d="M44,27c0,0-1,2-4,2s-4-2-4-2s-1,2-4,2s-4-2-4-2s-1,2-4,2s-4-2-4-2s-1,2-4,2s-4-2-4-2s-1,2-4,2 s-4-2-4-2s-1,2-4,2v9h48v-9C45,29,44,27,44,27z"/><path fill="#2196f3" d="M44,32c0,0-1,2-4,2s-4-2-4-2s-1,2-4,2s-4-2-4-2s-1,2-4,2s-4-2-4-2s-1,2-4,2s-4-2-4-2s-1,2-4,2 s-4-2-4-2s-1,2-4,2v5h48v-5C45,34,44,32,44,32z"/></svg>