<svg xmlns="http://www.w3.org/2000/svg"  viewBox="0 0 48 48" width="50px" height="50px"><path fill="#683710" d="M16.3 4.6H18.3V26H16.3z" transform="rotate(-45.001 17.267 15.268)"/><path fill="#683710" d="M8.3,7.7l15.8,15.8l1.4-1.4L9.7,6.3c-0.4-0.4-1-0.4-1.4,0l0,0C7.9,6.7,7.9,7.3,8.3,7.7z"/><path fill="#9fa8da" d="M19,4C13,6,8,11,6,17c0-4,0-7.2,3-10C12.2,4,15,4,19,4z"/><path fill="#ffe57f" d="M11.5 18A1.5 1.5 0 1 0 11.5 21A1.5 1.5 0 1 0 11.5 18Z"/><path fill="#683710" d="M4 36H44V38H4z"/><path fill="#683710" d="M19.8 13.8H42.6V15.8H19.8z" transform="rotate(-45.001 31.232 14.768)"/><path fill="#683710" d="M19.8 13.8H42.6V15.8H19.8z" transform="rotate(-45.001 31.232 14.768)"/><path fill="#7c4a13" d="M38 40L10 40 7 20 41 20z"/><path fill="#995f1a" d="M7.6 24L8.2 28 39.8 28 40.4 24zM38.6 36L39.2 32 8.8 32 9.4 36z"/><path fill="#c68632" d="M17 37A4 4 0 1 0 17 45A4 4 0 1 0 17 37Z"/><path fill="#683710" d="M17 40A1 1 0 1 0 17 42A1 1 0 1 0 17 40Z"/><path fill="#c68632" d="M31 37A4 4 0 1 0 31 45A4 4 0 1 0 31 37Z"/><path fill="#683710" d="M31 40A1 1 0 1 0 31 42A1 1 0 1 0 31 40Z"/><path fill="#c68632" d="M36 40L40 40 44 19 40 19zM12 40L8 40 4 19 8 19z"/><path fill="#ffc400" d="M38,20c0-1.7-1.3-3-3-3c0-1.7-1.3-3-3-3c-0.5,0-0.9,0.1-1.3,0.3c-0.4-0.8-1.2-1.3-2.2-1.3 c-0.5,0-0.9,0.1-1.3,0.4C26.8,13.1,26.4,13,26,13c-0.4,0-0.7,0.1-1,0.3C24.9,12,23.8,11,22.5,11c-1.2,0-2.2,0.9-2.5,2.1 c-0.2,0-0.4-0.1-0.5-0.1c-1.3,0-2.4,1-2.5,2.3c-0.3-0.2-0.6-0.3-1-0.3c-1.1,0-2,0.9-2,2c0,0,0,0,0,0.1c-0.2,0-0.3-0.1-0.5-0.1 c-1.4,0-2.5,1.1-2.5,2.5c0,0.2,0,0.3,0.1,0.5H38z"/><path fill="#ffe57f" d="M37.9,19.4c0-0.1-0.1-0.3-0.1-0.4c0,0,0-0.1,0-0.1c-0.1-0.2-0.1-0.3-0.2-0.5c0,0,0,0,0,0 C37,17.6,36.1,17,35,17c-0.8,0-1.5,0.3-2,0.8c0-0.1,0-0.2,0-0.3c0-0.8-0.7-1.5-1.5-1.5c-0.8,0-1.4,0.6-1.5,1.3 c-0.3-0.2-0.6-0.3-1-0.3c-0.2,0-0.3,0-0.5,0.1c-0.5-0.6-1.2-1.1-2-1.1c-0.6,0-1.1,0.2-1.6,0.6C24.7,15.7,24,15,23,15 c-0.9,0-1.6,0.6-1.9,1.3C20.8,16.1,20.4,16,20,16c-0.9,0-1.6,0.6-1.9,1.3C17.8,17.1,17.4,17,17,17c-0.7,0-1.3,0.3-1.6,0.9 c-0.5-0.5-1.1-0.9-1.9-0.9c-0.8,0-1.5,0.4-2,1l0,0l0,0c-0.1,0.1-0.1,0.2-0.2,0.3c0,0,0,0.1-0.1,0.1c0,0.1-0.1,0.2-0.1,0.3 c0,0.1,0,0.1-0.1,0.2s0,0.1-0.1,0.2c0,0.1,0,0.3,0,0.5c0,0.2,0,0.3,0.1,0.5h7.7h5.8h6.2H32h6C38,19.8,38,19.6,37.9,19.4z"/><path fill="#ff1744" d="M22,16l-1,2l-2-1l1-2L22,16z M30,15l-2,1l1,2l2-1L30,15z"/><path fill="#9fa8da" d="M33,7l6,6c0,0,6.3-5.8,3.1-9.1S33,7,33,7z"/><path fill="#7986cb" d="M36.7,10.7l3-3c0.4-0.4,0.4-1,0-1.4s-1-0.4-1.4,0l-3,3L36.7,10.7z"/></svg>