<svg xmlns="http://www.w3.org/2000/svg"  viewBox="0 0 48 48" width="50px" height="50px"><path fill="#d3d1d1" d="M44.37,38.66c0,0,0,0-0.01-0.01c-0.01,0-0.01,0-0.02-0.01C42.05,37.42,39.1,35.6,36,33	c-1.77-1.49-3.2-2.91-4.23-4c-0.95-1-1.55-1.73-1.77-2c-1.15-1.4-2.36-3.07-3.56-4.84c-0.57-0.85-1.15-1.72-1.72-2.6	c-0.3-0.47-0.61-0.94-0.9-1.42c-0.01,0-0.01-0.01-0.01-0.01c-0.03-0.05-0.07-0.11-0.1-0.16c-0.1-0.16-0.21-0.33-0.31-0.49	l-0.04-0.07c-0.32-0.51-0.63-1.01-0.93-1.51c-0.02-0.02-0.03-0.03-0.03-0.05c-0.23-0.36-0.45-0.72-0.66-1.07	c-0.01-0.01-0.02-0.03-0.02-0.04c-0.14-0.24-0.29-0.47-0.43-0.7c-1.8-2.99-3.3-5.55-4.17-6.89c-0.29-0.45-0.96-1.48-2.21-1.92	C14.49,5.08,14.04,5,13.58,5H3l0.07,0.42l0.18,1.1l0.23,1.33l0.1,0.62l0.67,4.02l0.25,1.52l1.01,6.03l0.46,2.81l0.21,1.28l0.39,2.31	l0.1,0.6l0.29,1.69v0.02l0.46,2.78v0.02l0.11,0.6v0.01l0.2,1.2l0.07,0.45l0.21,1.25L9,41h6.43h3.07h0.69H45v-2	C44.79,38.89,44.6,38.77,44.37,38.66z"/><rect width="1.791" height="5.374" x="8.356" y="25.964" fill="#0288d1"/><polygon fill="#0288d1" points="19.939,31.338 14.565,31.338 14.565,25.964 16.356,25.964 16.356,29.547 19.939,29.547"/><polygon fill="#0288d1" points="14.106,25.964 11.41,28.651 14.106,31.338 11.571,31.338 8.885,28.651 10.147,27.388 11.563,25.964"/><polygon fill="#0288d1" points="26.038,25.964 24.453,28.744 22.868,25.964 22.214,25.964 20.799,25.964 20.423,25.964 20.423,31.338 22.214,31.338 22.214,28.445 23.871,31.338 24.005,31.338 24.901,31.338 25.035,31.338 26.692,28.445 26.692,31.338 28.484,31.338 28.484,25.964"/><rect width="8.237" height="1.544" x="14.565" y="23.232" fill="#0288d1"/><circle cx="14.293" cy="21.51" r="1.194" fill="#0288d1"/><circle cx="17.204" cy="21.51" r="1.194" fill="#0288d1"/><circle cx="20.125" cy="21.51" r="1.194" fill="#0288d1"/><circle cx="22.989" cy="21.51" r="1.194" fill="#0288d1"/><rect width=".746" height="2.983" x="18.31" y="17.434" fill="#0288d1"/><rect width="2.983" height=".746" x="17.192" y="18.553" fill="#0288d1"/></svg>