<svg xmlns="http://www.w3.org/2000/svg"  viewBox="0 0 48 48" width="50px" height="50px"><path fill="#455A64" d="M12 35.5c0 1.932-1.567 3.5-3.5 3.5S5 37.432 5 35.5 6.567 32 8.5 32 12 33.568 12 35.5M21 35.5c0 1.932-1.567 3.5-3.5 3.5S14 37.432 14 35.5s1.567-3.5 3.5-3.5S21 33.568 21 35.5M34 35.5c0 1.932-1.567 3.5-3.5 3.5S27 37.432 27 35.5s1.567-3.5 3.5-3.5S34 33.568 34 35.5M43 35.5c0 1.932-1.567 3.5-3.5 3.5S36 37.432 36 35.5s1.567-3.5 3.5-3.5S43 33.568 43 35.5"/><path fill="#90A4AE" d="M19 36c0 .553-.448 1-1 1H9c-.552 0-1-.447-1-1l0 0c0-.553.448-1 1-1h9C18.552 35 19 35.447 19 36L19 36zM41 36c0 .553-.447 1-1 1h-9c-.553 0-1-.447-1-1l0 0c0-.553.447-1 1-1h9C40.553 35 41 35.447 41 36L41 36z"/><path fill="#8BC34A" d="M46,31V14.5c0-3.037-2.463-5.5-5.5-5.5h-33C4.462,9,2,11.463,2,14.5V31c0,0-0.001,2,2,2s38,0,40,0S46,31,46,31z"/><path fill="#33691E" d="M46,15v-0.5c0-3.037-2.463-5.5-5.5-5.5h-33C4.462,9,2,11.463,2,14.5V15H46z"/><path fill="#689F38" d="M34 15H44V33H34z"/><g><path fill="#0B420D" d="M12 23.5c0 .828-.671 1.5-1.5 1.5h-5C4.671 25 4 24.328 4 23.5v-5C4 17.672 4.671 17 5.5 17h5c.829 0 1.5.672 1.5 1.5V23.5zM22 23.5c0 .828-.671 1.5-1.5 1.5h-5c-.829 0-1.5-.672-1.5-1.5v-5c0-.828.671-1.5 1.5-1.5h5c.829 0 1.5.672 1.5 1.5V23.5zM32 23.5c0 .828-.672 1.5-1.5 1.5h-5c-.829 0-1.5-.672-1.5-1.5v-5c0-.828.671-1.5 1.5-1.5h5c.828 0 1.5.672 1.5 1.5V23.5zM42 23.5c0 .828-.672 1.5-1.5 1.5h-3c-.828 0-1.5-.672-1.5-1.5v-5c0-.828.672-1.5 1.5-1.5h3c.828 0 1.5.672 1.5 1.5V23.5z"/></g></svg>