<svg xmlns="http://www.w3.org/2000/svg"  viewBox="0 0 48 48" width="50px" height="50px"><path fill="#448aff" d="M32,20c-3.309,0-6-2.691-6-6V9h12v5C38,17.309,35.309,20,32,20z"/><path fill="#bcaaa4" d="M38,9c-0.826-2.327-3.393-5-6-5s-5.174,2.673-6,5H38z"/><path fill="#b0bec5" d="M22.005,43h-8.938c-0.641,0-1.248-0.311-1.623-0.831c-0.375-0.52-0.478-1.193-0.275-1.802 l2.964-7.726L16,33.358l-2.949,7.684L22.005,41l-2.934-7.642l1.867-0.717l2.949,7.684c0.218,0.651,0.115,1.324-0.26,1.844 C23.252,42.689,22.646,43,22.005,43z"/><circle cx="16" cy="9" r="4" fill="#ffb74d"/><path fill="#607d8b" d="M29.873,42.8c-0.29,0.14-0.58,0.2-0.87,0.2c-0.9,0-1.71-0.61-1.94-1.51L26.44,31h-9.91 c-1.48,0-2.75-1.09-2.96-2.56c-0.08-0.54-1.53-10.32-1.53-10.32C12.03,17.97,12,17.83,12,17.69c0-0.19,0.02-0.39,0.05-0.57 c0.31-2.04,2.29-3.52,4.51-3.02c1.33,0.3,2.41,1.39,2.72,2.72c0.01,0.03,1.2,8.4,1.31,9.18c0,0,2.31,0.31,4.4,0.59 c1.73,0.22,3.32,0.43,3.33,0.44c0.78,0.12,1.42,0.7,1.62,1.48l0.973,11.87C31.143,41.33,30.753,42.37,29.873,42.8z"/><path fill="#78909c" d="M29.873,42.8c-0.29,0.14-0.58,0.2-0.87,0.2c-0.9,0-1.71-0.61-1.94-1.51L26.44,31h-9.91 c-1.48,0-2.75-1.09-2.96-2.56c-0.08-0.54-1.53-10.32-1.53-10.32C12.03,17.97,12,17.83,12,17.69c0-0.19,0.02-0.39,0.05-0.57 c0.31-2.04,2.29-3.52,4.51-3.02c1.33,0.3,2.41,1.39,2.72,2.72c0.01,0.03,1.2,8.4,1.31,9.18c0,0,2.31,0.31,4.4,0.59 c1.73,0.22,3.32,0.43,3.33,0.44c0.78,0.12,1.42,0.7,1.62,1.48l0.973,11.87C31.143,41.33,30.753,42.37,29.873,42.8z"/><path fill="#455a64" d="M20.59,26c-0.11-0.78-0.25-1.7-0.38-2.65l-3.47-0.87L15.087,18l-2.072,6.712 c0,0-0.265-1.762,0.295,1.978c0.18,0.11,0.37,0.18,0.58,0.23l8.01,2.01c0.2,0.05,0.4,0.07,0.6,0.07c1.15,0,2.15-0.78,2.42-1.89 c0.04-0.18,0.07-0.35,0.07-0.52C22.9,26.31,20.59,26,20.59,26z"/><path fill="#78909c" d="M23.558,25.219l-7.716-1.93L15.087,18l-3.047,0.12l0.975,6.592c0.087,0.604,0.53,1.096,1.121,1.243 l8,2C22.259,27.985,22.381,28,22.501,28C23.634,28,24.596,26.707,23.558,25.219z"/><path fill="#0d47a1" d="M25,33c0-1.105-0.895-2-2-2h-6.47c-1.479,0-2.751-1.1-2.961-2.568L11.534,14.69 C11.388,13.719,10.553,13,9.571,13h0c-1.212,0-2.141,1.076-1.964,2.275l2.004,13.731C10.099,32.423,13.073,35,16.53,35H23 C24.105,35,25,34.105,25,33L25,33z"/><path fill="#d7ccc8" d="M32,21c-3.86,0-7-3.14-7-7v-4c0-3.86,3.14-7,7-7s7,3.14,7,7v4C39,17.86,35.86,21,32,21z M32,5 c-2.757,0-5,2.243-5,5v4c0,2.757,2.243,5,5,5s5-2.243,5-5v-4C37,7.243,34.757,5,32,5z"/><path fill="#efebe9" d="M33.5,8h-3v0c0-1,0-1,0-1h3C33.5,7,33.5,7.448,33.5,8L33.5,8z"/><circle cx="30.5" cy="7.5" r=".5" fill="#efebe9"/><circle cx="33.5" cy="7.5" r=".5" fill="#efebe9"/></svg>