<svg xmlns="http://www.w3.org/2000/svg"  viewBox="0 0 48 48" width="50px" height="50px"><path fill="#37474F" d="M15 36c0-.553-.447-1-1-1h-3c-.553 0-1 .447-1 1v5c0 .553.447 1 1 1h3c.553 0 1-.447 1-1V36zM38 36c0-.553-.447-1-1-1h-3c-.553 0-1 .447-1 1v5c0 .553.447 1 1 1h3c.553 0 1-.447 1-1V36zM41 21v3h-2v2h2c.97 0 2-.701 2-2v-3H41zM9 24H7v-3H5v3c0 1.299 1.03 2 2 2h2V24z"/><path fill="#B71C1C" d="M39,13V7c0-0.553-0.447-1-1-1H10C9.448,6,9,6.447,9,7v6H39z"/><path fill="#FF5722" d="M44 22c0 .553-.447 1-1 1h-2c-.553 0-1-.447-1-1v-6c0-.553.447-1 1-1h2c.553 0 1 .447 1 1V22zM39 13c0-1.104-.896-2-2-2H11c-1.104 0-2 .896-2 2v23c0 1.104.896 2 2 2h26c1.104 0 2-.896 2-2V13zM4 22c0 .553.448 1 1 1h2c.552 0 1-.447 1-1v-6c0-.553-.448-1-1-1H5c-.552 0-1 .447-1 1V22z"/><path fill="#37474F" d="M16 26H32V36H16z"/><path fill="#455A64" d="M37,14c0-0.553-0.447-1-1-1H12c-0.552,0-1,0.447-1,1v9c0,0.553,0.448,1,1,1h24c0.553,0,1-0.447,1-1V14z"/><g><path fill="#546E7A" d="M16 28H32V30H16zM16 32H32V34H16z"/></g><g><path fill="#FFF" d="M12 29A2 2 0 1 0 12 33 2 2 0 1 0 12 29zM36 29A2 2 0 1 0 36 33 2 2 0 1 0 36 29z"/></g></svg>