<svg xmlns="http://www.w3.org/2000/svg"  viewBox="0 0 48 48" width="50px" height="50px"><path fill="#90a4ae" d="M30.4 19.4c-.4 0-.8-.3-1-.7L28 12.9c-.1-.5.1-1 .6-1.2 0 0 2.5-1.2 2.5-2.8 0-.4-.1-.5-.2-.6-.5-.4-2.3-.8-8.6.5-.5.1-1.1-.2-1.2-.8-.1-.5.2-1.1.8-1.2 5.8-1.3 8.8-1.3 10.3-.1.4.4 1 1 1 2.1 0 2.1-1.8 3.5-2.9 4.2l1.3 4.9c.1.5-.2 1.1-.7 1.2C30.6 19.4 30.5 19.4 30.4 19.4zM24 33h-2c0-6.6 5.4-12 12-12 1.9 0 3.8.4 5.5 1.3l-.9 1.8C37.1 23.4 35.6 23 34 23 28.5 23 24 27.5 24 33z"/><path fill="#c51162" d="M14.6 24.3l-2.9-5.8 1.8-.9 2.9 5.8L14.6 24.3zM32.4 20L32.4 20 32.4 20l-1.5-6.3-2.9.7 1.5 6.3C30.2 20.2 31.4 19.9 32.4 20z"/><path fill="#b0bec5" d="M39.7 37.2l-1.4 1.4-3.5-4.9L39.7 37.2zM29.8 27.3l-1.4 1.4 4.9 3.5L29.8 27.3zM29.8 38.7l-1.4-1.4 4.9-3.5L29.8 38.7zM39.7 28.8l-1.4-1.4-3.5 4.9L39.7 28.8zM35 40h-2l1-6L35 40zM35 26h-2l1 6L35 26zM27 34v-2l6 1L27 34zM41 34v-2l-6 1L41 34z"/><path fill="#cfd8dc" d="M15,36c0,2.8-2.2,5-5,5s-5-2.2-5-5s2.2-5,5-5S15,33.2,15,36z"/><path fill="#455a64" d="M34 42c-5 0-9-4-9-9s4-9 9-9 9 4 9 9S39 42 34 42zM34 26c-3.9 0-7 3.1-7 7s3.1 7 7 7 7-3.1 7-7S37.9 26 34 26zM10 42c-3.3 0-6-2.7-6-6s2.7-6 6-6 6 2.7 6 6S13.3 42 10 42zM10 32c-2.2 0-4 1.8-4 4s1.8 4 4 4 4-1.8 4-4S12.2 32 10 32z"/><path fill="#ff4081" d="M29.5 20.7L33 33h2l-2.6-13C31.4 19.9 30.1 20.2 29.5 20.7zM28.4 16.2C17.8 18 12.9 24.9 10.7 30.1c.7.1 1.3.3 1.9.6 2-4.7 6.5-10.9 16.3-12.4L28.4 16.2z"/><path fill="#37474f" d="M11 36c0 .6-.4 1-1 1s-1-.4-1-1 .4-1 1-1S11 35.4 11 36zM35 33c0 .6-.4 1-1 1s-1-.4-1-1 .4-1 1-1S35 32.4 35 33z"/><path fill="#455a64" d="M18,17c0,0.8-1,1-1,1s-6,2-8,2s-2-2-2-2v-1c0-0.6,0.4-1,1-1h9C17.6,16,18,16.4,18,17z"/></svg>