<svg xmlns="http://www.w3.org/2000/svg"  viewBox="0 0 48 48" width="50px" height="50px"><rect width="32" height="16" y="16" fill="#90a4ae"/><rect width="28" height="11" x="2" y="18" fill="#b0bec5"/><rect width="32" height="2.011" y="30.989" fill="#37474f"/><rect width="17" height="1.984" x="22" y="33.011" fill="#37474f" transform="rotate(-180 30.5 34.003)"/><path fill="#ff5722" d="M36,17v17.002c0,0.552,0.447,0.999,0.998,1l10,0.018c0.553,0.001,1.002-0.447,1.002-1v-9.032	l-2.772-8.305C45.091,16.275,44.709,16,44.279,16H37C36.448,16,36,16.448,36,17z"/><path fill="#546e7a" d="M45,35c0,1.657-1.343,3-3,3s-3-1.343-3-3s1.343-3,3-3S45,33.343,45,35"/><path fill="#90a4ae" d="M43,35c0,0.553-0.447,1-1,1s-1-0.447-1-1s0.447-1,1-1S43,34.447,43,35"/><path fill="#546e7a" d="M30,35c0,1.657-1.343,3-3,3s-3-1.343-3-3s1.343-3,3-3S30,33.343,30,35"/><rect width="8" height="3" x="5" y="32" fill="#37474f"/><path fill="#90a4ae" d="M28,35c0,0.553-0.447,1-1,1s-1-0.447-1-1s0.447-1,1-1S28,34.447,28,35"/><path fill="#546e7a" d="M8,35c0,1.657-1.343,3-3,3s-3-1.343-3-3s1.343-3,3-3S8,33.343,8,35"/><path fill="#90a4ae" d="M6,35c0,0.553-0.447,1-1,1s-1-0.447-1-1s0.447-1,1-1S6,34.447,6,35"/><path fill="#546e7a" d="M16,35c0,1.657-1.343,3-3,3s-3-1.343-3-3s1.343-3,3-3S16,33.343,16,35"/><path fill="#90a4ae" d="M14,35c0,0.553-0.447,1-1,1s-1-0.447-1-1s0.447-1,1-1S14,34.447,14,35"/><path fill="#7a1a04" d="M38,19v5c0,0.552,0.448,1,1,1h5.581c0.692,0,1.174-0.685,0.942-1.336l-1.786-5	C43.595,18.266,43.218,18,42.795,18H39C38.448,18,38,18.448,38,19z"/></svg>