<svg xmlns="http://www.w3.org/2000/svg"  viewBox="0 0 48 48" width="50px" height="50px" baseProfile="basic"><polygon fill="#4caf50" points="0,27 4,33 44,33 48,27 48,24 43,24 38,19 6,19"/><polygon fill="#1b5e20" points="44,34 4,34 0,27 48,27"/><path fill="#546e7a" d="M34,34c0-2.761,2.239-5,5-5c2.761,0,5,2.239,5,5s-2.239,5-5,5C36.239,39,34,36.761,34,34"/><path fill="#546e7a" d="M14,34c0-2.761,2.238-5,5-5s5,2.239,5,5s-2.238,5-5,5S14,36.761,14,34"/><path fill="#bbdefb" d="M37,34c0-1.105,0.895-2,2-2s2,0.895,2,2s-0.895,2-2,2S37,35.105,37,34"/><path fill="#546e7a" d="M24,34c0-2.761,2.239-5,5-5s5,2.239,5,5s-2.239,5-5,5S24,36.761,24,34"/><path fill="#bbdefb" d="M27,34c0-1.105,0.895-2,2-2s2,0.895,2,2s-0.895,2-2,2S27,35.105,27,34"/><path fill="#bbdefb" d="M17,34c0-1.105,0.895-2,2-2s2,0.895,2,2s-0.895,2-2,2S17,35.105,17,34"/><path fill="#546e7a" d="M4,34c0-2.761,2.238-5,5-5s5,2.239,5,5s-2.238,5-5,5S4,36.761,4,34"/><path fill="#bbdefb" d="M7,34c0-1.105,0.895-2,2-2s2,0.895,2,2s-0.895,2-2,2S7,35.105,7,34"/><rect width="3" height="4" x="8" y="19" fill="#1b5e20" transform="rotate(-180 9.5 21)"/><rect width="16" height="2" x="28" y="14" fill="#1b5e20" transform="rotate(-180 36 15)"/><rect width="3" height="4" x="13" y="19" fill="#1b5e20" transform="rotate(-180 14.5 21)"/><polygon fill="#4caf50" points="18,17 33,17 30,12 21,12"/><rect width="15" height="2" x="18" y="17" fill="#1b5e20" transform="rotate(-180 25.5 18)"/><polygon fill="#fff3e0" points="36,21 36.618,22.253 38,22.453 37.001,23.429 37.236,24.805 36.001,24.156 34.766,24.806 35.001,23.43 34,22.454 35.383,22.253"/></svg>