<svg xmlns="http://www.w3.org/2000/svg"  viewBox="0 0 48 48" width="50px" height="50px"><rect width="2" height="16" x="18" y="9" fill="#455a64"/><path fill="#455a64" d="M46,36c0,2.762-2.238,5-5,5s-5-2.238-5-5s2.238-5,5-5S46,33.238,46,36"/><path fill="#cfd8dc" d="M43,36c0,1.105-0.895,2-2,2s-2-0.895-2-2s0.895-2,2-2S43,34.895,43,36"/><path fill="#388e3c" d="M48,34H34v-7h9C48,29,48,34,48,34z"/><path fill="#455a64" d="M32,21L31.997,9H37c0,0,6,4,6,12H32z"/><path fill="#43a047" d="M33,36H0V23h20v9h9v-8h14v3L33,36z"/><path fill="#ffc107" d="M32,21V9h7V7H11C4.029,7,0,11.029,0,16v7h9v-7c0-2.761,2.239-5,5-5h15v13h14v-3H32z"/><path fill="#66bb6a" d="M9,29c-3.866,0-7,3.134-7,7h14C16,32.134,12.866,29,9,29z"/><path fill="#455a64" d="M14,36c0,2.762-2.238,5-5,5s-5-2.238-5-5s2.238-5,5-5S14,33.238,14,36"/><path fill="#cfd8dc" d="M11,36c0,1.105-0.895,2-2,2s-2-0.895-2-2s0.895-2,2-2S11,34.895,11,36"/></svg>