<svg xmlns="http://www.w3.org/2000/svg"  viewBox="0 0 48 48" width="50px" height="50px" fill-rule="evenodd" clip-rule="evenodd" baseProfile="basic"><path fill="#3e2723" fill-rule="evenodd" d="M42.479,43.856l-23-14	c-0.472-0.287-0.621-0.903-0.335-1.373c0.287-0.472,0.903-0.621,1.373-0.335l23,14c0.472,0.287,0.621,0.903,0.335,1.373	C43.565,43.993,42.949,44.143,42.479,43.856z" clip-rule="evenodd"/><path fill="#009688" d="M12.998,33.997l-8.998-2l0.003-8.955L6,18.997l-2-5L4.004,5	H25c1.105,0,2,0.896,2,2l-0.004,6.997l-2,5l2,4v9L12.998,33.997z"/><path fill="#4db6ac" d="M4.004,23.003V14H27v9.003H4.004z"/><path fill="#37474f" d="M4.004,39v-7H27v5c0,1.105-0.895,2-2,2H4.004z"/><circle cx="17" cy="39" r="5" fill="#546d7a"/><circle cx="17" cy="39" r="2" fill="#90a4ae"/></svg>