<svg xmlns="http://www.w3.org/2000/svg"  viewBox="0 0 48 48" width="50px" height="50px" baseProfile="basic"><path fill="#757575" d="M2.004,28.998l42.988-0.011l1.901-4.425c0.141-0.349,0.128-0.741-0.036-1.079l-1.79-3.487	l0.624-1.952c0.145-0.454-0.252-0.897-0.72-0.802l-2.948,0.603c0,0-11.257-2.441-13.302-2.674c-2.045-0.233-6.143-0.114-8.045,0.41	c-2.644,0.73-5.473,1.396-10.562,4.022c-1.252,0.366-2.595,0.934-3.521,1.38c-2.951,1.422-4.335,2.7-5.247,3.466	c-0.293,0.246-0.382,0.652-0.225,1.001l0.659,1.758l-0.784,1.784L2.004,28.998z"/><path fill="#424242" d="M12.985,19.014c0.08,0.133,3.02,1.98,3.02,1.98l19.988-2.983c0,0-4.276-1.422-5.171-1.591	c-2.861-0.539-6.278-0.446-7.21-0.402c-1.303,0.063-2.845,0.503-4.336,0.902C17.785,17.321,12.985,19.014,12.985,19.014z"/><path fill="#ededed" d="M26.007,19.486l-0.688-1.576c-0.139-0.344-0.497-0.472-0.867-0.448	c-2.849,0.18-6.478,1.524-6.48,1.571c-0.019,0.647,0.038,1.619,0.038,1.619L26.007,19.486z"/><circle cx="9.99" cy="27.004" r="3.984" fill="#424242"/><circle cx="9.99" cy="27.004" r="2.996" fill="#e54a19"/><circle cx="39.984" cy="26.994" r="3.984" fill="#424242"/><circle cx="39.984" cy="26.994" r="2.996" fill="#e54a19"/><path fill="#616161" d="M5.28,24.966l-3.718,0.189c0,0,1.08,1.832,1.178,1.865c0.098,0.033,2.911,1.145,2.911,1.145	C5.258,27.13,5.1,26.067,5.28,24.966z"/><path fill="#616161" d="M14.499,25.107l17.67-2.229l2.12,0.816l-3.028,2.938l1.512,1.208l-1.494,1.153l-17.379-0.026	C13.901,28.967,15.029,27.351,14.499,25.107z"/><path fill="#616161" d="M32.331,26.475l1.62-0.192l1.9-0.5c0,0-0.433,1.167-0.133,1.867s0.433,1.3,0.433,1.3l-3.467,0.033	l1.233-1.067L32.331,26.475z"/><path fill="#616161" d="M43.632,24.205l2.916-1.032l0.314,0.718l-2.064,4.756l-0.942,0.045c0,0,0.718-1.391,0.583-2.333	C44.305,25.416,43.632,24.205,43.632,24.205z"/><path fill="#616161" d="M39.671,19.866c-0.067,0.008,5.821-2.104,5.821-2.104l-0.649,2.06	C44.843,19.821,44.193,19.351,39.671,19.866z"/><circle cx="9.99" cy="27.004" r="1.058" fill="#757575"/><circle cx="39.99" cy="27.004" r="1.058" fill="#757575"/><path fill="#bcbcbc" d="M13.614,21.439c0.663-0.728,1.719-1.422,2.976-1.884l0.698,1.754	C16.259,21.568,14.424,21.687,13.614,21.439z"/></svg>