<svg xmlns="http://www.w3.org/2000/svg"  viewBox="0 0 48 48" width="50px" height="50px"><path fill="#e64a19" d="M21,14h-5v-2c0-0.552,0.448-1,1-1h4V14z"/><path fill="#2979ff" d="M24,14h-4v-3h3c0.552,0,1,0.448,1,1V14z"/><path fill="#455a64" d="M48,25.63V32c0,1.1-0.9,2-2,2H6l-4.33-0.72C0.71,33.12,0,32.28,0,31.31V23.8c0-1,0.75-1.85,1.74-1.98	L7,21.13L8,21h27l2,0.64l9.42,2.03c0.71,0.15,1.26,0.67,1.47,1.33C47.96,25.2,48,25.41,48,25.63z"/><polygon fill="#eceff1" points="37,21.64 37,34 7,34 7,21.13 8,21 35,21"/><circle cx="10" cy="34" r="5" fill="#37474f"/><circle cx="37" cy="34" r="5" fill="#37474f"/><circle cx="10" cy="34" r="2" fill="#90a4ae"/><path fill="#455a64" d="M8,21l0.864-3.455C9.532,14.874,11.931,13,14.685,13h8.999c5.002,0,9.48,3.103,11.236,7.787L35,21H8z"/><path fill="#9fa8da" d="M10,21l0.804-2.97c0.446-1.784,2.042-3.03,3.88-3.03h9c3.179,0,6.133,1.534,7.994,4L33,21H10z"/><circle cx="37" cy="34" r="2" fill="#90a4ae"/><rect width="2" height="13" x="19" y="21" fill="#cfd8dc"/><rect width="2" height="6" x="19" y="15" fill="#7986cb"/><polygon fill="#ffb300" points="27,23 28.236,25.633 31,26.056 29,28.106 29.472,31 27,29.633 24.528,31 25,28.106 23,26.056 25.764,25.633"/><path fill="#e64a19" d="M1,27H0v-2.985h1c0.552,0,1,0.448,1,1V26C2,26.552,1.552,27,1,27z"/><path fill="#eceff1" d="M48,28h-2c-1.105,0-2-0.895-2-2v0h4V28z"/></svg>