<svg xmlns="http://www.w3.org/2000/svg"  viewBox="0 0 48 48" width="50px" height="50px"><line x1="13" x2="13" y1="15" y2="24" fill="none" stroke="#455a64" stroke-miterlimit="10" stroke-width="2"/><path fill="#ef9a9a" d="M9,29h4v5H9V29z"/><path fill="#ff3d00" d="M13,29h4v5h-4V29z"/><path fill="#ffb74d" d="M17,29h4v5h-4V29z"/><path fill="#ff7043" d="M5,29h4v5H5V29z"/><rect width="44" height="3" x="3" y="13" fill="#ff3d00"/><rect width="2" height="27" x="40" y="16" fill="#ff3d00"/><rect width="2" height="22.5" x="34" y="13.3" fill="#ff3d00" transform="rotate(-32.274 35 24.499)"/><rect width="2" height="38" x="28" y="5" fill="#ff3d00"/><polygon fill="#ff3d00" points="6.4,14.9 5.6,13.1 29.1,2.9 44.6,13.2 43.4,14.8 28.9,5.1"/><rect width="13" height="2" x="28" y="33" fill="#ff3d00"/><path fill="#b0bec5" d="M13,31c-2,0-10,4-10,4s1.6,4,4.1,7c0.3,0.3,3.9-1,5.9-1s5.6,1.4,5.9,1c2.5-3,4.1-7,4.1-7S15,31,13,31z"/><path fill="#78909c" d="M13,31v10c2,0,5.6,1.4,5.9,1c2.5-3,4.1-7,4.1-7S15,31,13,31z"/><path fill="none" stroke="#2196f3" stroke-linejoin="round" stroke-miterlimit="10" stroke-width="2" d="M17,42c3,0,4-2,4-2s1,2,4,2"/><path fill="none" stroke="#2196f3" stroke-linejoin="round" stroke-miterlimit="10" stroke-width="2" d="M9,42c3,0,4-2,4-2s1,2,4,2"/><path fill="none" stroke="#2196f3" stroke-linejoin="round" stroke-miterlimit="10" stroke-width="2" d="M1,42c3,0,4-2,4-2s1,2,4,2"/><rect width="4" height="4" x="9" y="22" fill="#ff7043"/><rect width="4" height="4" x="13" y="22" fill="#ffb74d"/></svg>