<svg xmlns="http://www.w3.org/2000/svg"  viewBox="0 0 48 48" width="50px" height="50px" baseProfile="basic"><polygon fill="#37474f" points="23.352,22.518 13.747,22.867 13.301,7.074 22.906,6.725"/><rect width="13.423" height="15.546" x=".974" y="8.264" fill="#b0bec5" transform="rotate(-16.146 7.685 16.037)"/><path fill="#4fc3f7" d="M21.41,23.73l1.976-0.307l-1.566-10.081c-0.151-0.965-1.058-1.633-2.023-1.489l-2.199,0.327	c-0.545,0.081-1.055-0.297-1.136-0.842c-0.081-0.545,0.297-1.055,0.842-1.136l2.194-0.327c0.972-0.145,1.645-1.053,1.5-2.025	l-0.327-2.194l-1.978,0.294l0.294,1.978L17.01,8.224c-1.636,0.244-2.769,1.773-2.526,3.409s1.773,2.769,3.409,2.526l1.984-0.295	L21.41,23.73z"/><path fill="#37474f" d="M11.084,13.304l0.126-3.757c-0.147,0.103-0.311,0.279-0.526,0.673	c-0.454,0.827-0.663-1.35-1.622,0.385c-0.454,0.827-0.663-1.35-1.622,0.385c-0.405,0.747-0.628-0.913-1.35-0.056l1.728,3.146	c-2.222,1.418-3.395,4.413-2.888,6.549c0.616,2.595,3.243,1.972,6.454,1.21c3.211-0.762,5.838-1.385,5.222-3.98	C16.1,15.721,13.706,13.572,11.084,13.304z"/><polygon fill="#fbc02d" points="4.383,29.4 1.881,20.995 18.808,15.955 19.24,17.408 17.659,18.361 19.492,18.253 21.31,24.36"/><polygon fill="#e3f2fd" points="10.107,16.958 3.743,10.594 2.329,12.008 9.4,19.079 12.228,19.079 17.885,24.736 19.299,23.322 12.935,16.958"/><path fill="#4caf50" d="M30,11l-7,0.001V23l14-0.001c1.104,0,2-0.896,2-2C39,20.999,33,11,30,11z"/><path fill="#4caf50" d="M1,20.999h34V32H1V20.999z"/><path fill="#4caf50" d="M30,30c0,1.104,0.896,2,2,2h13c1.104,0,2-0.896,2-2v-6.001c0-1.104-5-3-10-3c-4,0-7,0.896-7,2V30z"/><path fill="#1b5e20" d="M25,20.999h11.71c-2.565-4.506-5.611-7.558-6.803-7.999H25V20.999z"/><path fill="#ff3d00" d="M3,23H1v7.002h2c0.552,0,1-0.449,1-1V24C4,23.448,3.552,23,3,23z"/><path fill="#bbdefb" d="M43,21.824V25c0,0.553,0.447,1,1,1h3v-2.001C47,23.365,45.35,22.472,43,21.824z"/><path fill="#5d4037" d="M15,32c0,2.761-2.239,5-5,5s-5-2.239-5-5s2.239-5,5-5S15,29.239,15,32 M42,32c0,2.761-2.238,5-5,5 s-5-2.239-5-5s2.238-5,5-5S42,29.239,42,32"/><path fill="#bcaaa4" d="M12,32c0,1.105-0.895,2-2,2s-2-0.895-2-2s0.895-2,2-2S12,30.895,12,32 M39,32c0,1.105-0.895,2-2,2 s-2-0.895-2-2s0.895-2,2-2S39,30.895,39,32"/></svg>