<svg xmlns="http://www.w3.org/2000/svg"  viewBox="0 0 48 48" width="50px" height="50px"><path fill="#455a64" d="M12 40.5c0 1.9-1.6 3.5-3.5 3.5S5 42.4 5 40.5 6.6 37 8.5 37 12 38.6 12 40.5M21 40.5c0 1.9-1.6 3.5-3.5 3.5S14 42.4 14 40.5s1.6-3.5 3.5-3.5S21 38.6 21 40.5M34 40.5c0 1.9-1.6 3.5-3.5 3.5S27 42.4 27 40.5s1.6-3.5 3.5-3.5S34 38.6 34 40.5M43 40.5c0 1.9-1.6 3.5-3.5 3.5S36 42.4 36 40.5s1.6-3.5 3.5-3.5S43 38.6 43 40.5"/><path fill="#cfd8dc" d="M46,37v-8l-5-12c0,0-1-3-5-3H7.5c-3,0-5.5,2.5-5.5,5.5V37c0,0,0,2,2,2s38,0,40,0S46,37,46,37z"/><path fill="#ff3d00" d="M2,29v8c0,0,0,2,2,2s38,0,40,0s2-2,2-2v-8H2z"/><path fill="#bf360c" d="M24,29h10v10H24V29z"/><path fill="#455a64" d="M16,12h13v2H16V12z"/><path fill="#455a64" d="M22.7 13.7L21.3 12.3 23.6 10 19.3 5.7 20.7 4.3 26.4 10z"/><path fill="#b0bec5" d="M34,29V18.5c0-0.8-0.7-1.5-1.5-1.5h-7c-0.8,0-1.5,0.7-1.5,1.5V29H34z"/><path fill="#263238" d="M39.6 19h-2.1c-.8 0-1.5.7-1.5 1.5v5c0 .8.7 1.5 1.5 1.5h5c.1 0 .1 0 .2 0L39.6 19zM22 25.5c0 .8-.7 1.5-1.5 1.5h-5c-.8 0-1.5-.7-1.5-1.5v-5c0-.8.7-1.5 1.5-1.5h5c.8 0 1.5.7 1.5 1.5V25.5zM12 25.5c0 .8-.7 1.5-1.5 1.5h-5C4.7 27 4 26.3 4 25.5v-5C4 19.7 4.7 19 5.5 19h5c.8 0 1.5.7 1.5 1.5V25.5zM28 33c0 .6-.4 1-1 1s-1-.4-1-1V20c0-.6.4-1 1-1s1 .4 1 1V33zM32 33c0 .6-.4 1-1 1s-1-.4-1-1V20c0-.6.4-1 1-1s1 .4 1 1V33z"/></svg>