<svg xmlns="http://www.w3.org/2000/svg"  viewBox="0 0 48 48" width="50px" height="50px"><path fill="#b0bec5" d="M36.885,37.489L31.003,7h-4.961V5h5.789c0.48,0,0.893,0.342,0.982,0.813l6.036,31.303L36.885,37.489 z"/><path fill="#212121" d="M38,43c-2.757,0-5-2.243-5-5s2.243-5,5-5s5,2.243,5,5S40.757,43,38,43z M38,35c-1.654,0-3,1.346-3,3 s1.346,3,3,3s3-1.346,3-3S39.654,35,38,35z"/><path fill="#3949ab" d="M17,38h-2c0-2.757-2.243-5-5-5s-5,2.243-5,5H3c0-3.859,3.141-7,7-7S17,34.141,17,38z"/><path fill="#5c6bc0" d="M36.453,37.727l-2.576-13.398c-0.104-0.543,0.252-1.068,0.795-1.171l0.982-0.187 c0.542-0.103,1.065,0.252,1.169,0.794l2.577,13.402c0.155,0.814-0.38,1.599-1.193,1.754h0 C37.393,39.075,36.608,38.541,36.453,37.727z"/><path fill="#212121" d="M10,43c-2.757,0-5-2.243-5-5s2.243-5,5-5s5,2.243,5,5S12.757,43,10,43z M10,35c-1.654,0-3,1.346-3,3 s1.346,3,3,3s3-1.346,3-3S11.654,35,10,35z"/><path fill="#5c6bc0" d="M37.065,28.342l-2.43-1.76L27.815,36h-9.458c-1.203,0-2.362,0.358-3.348,1H10c-0.552,0-1,0.448-1,1	c0,0.552,0.448,1,1,1h18.335c0.643,0,1.246-0.309,1.622-0.83L31.521,36h-0.002L37.065,28.342z"/></svg>