<svg xmlns="http://www.w3.org/2000/svg"  viewBox="0 0 48 48" width="50px" height="50px"><path fill="#CFD8DC" d="M32,15c0,1.104-0.896,2-2,2H18c-1.104,0-2-0.896-2-2v-5c0-1.104,0.896-2,2-2h12c1.104,0,2,0.896,2,2V15z"/><path fill="#CFD8DC" d="M36,24H12v-9c0-1.104,0.896-2,2-2h20c1.104,0,2,0.896,2,2V24z"/><path fill="#546E7A" d="M15 15H17V17H15zM19 15H21V17H19zM23 15H25V17H23zM27 15H29V17H27zM31 15H33V17H31zM19 10H21V12H19zM23 10H25V12H23zM27 10H29V12H27z"/><path fill="#3F51B5" d="M24,17c-3,0-14,6-14,6s2,11,6.417,17.584c1.889,2.814,4.935-0.404,7.583-0.583c2.648,0.179,5.693,3.397,7.583,0.583C36,34,38,23,38,23S27,17,24,17z"/><path fill="#283593" d="M27.936,18.084C26.277,17.443,24.831,17,24,17s-2.278,0.443-3.935,1.084l3.471,21.979c0.155-0.028,0.31-0.051,0.464-0.062c0.154,0.011,0.309,0.032,0.464,0.062L27.936,18.084z"/><path fill="#90CAF9" d="M44,35c-3,0-4-2-4-2s-1,2-4,2s-4-2-4-2s-1,2-4,2s-4-2-4-2s-1,2-4,2s-4-2-4-2s-1,2-4,2s-4-2-4-2s-1,2-4,2v8h4h32h4V35z"/><path fill="#2196F3" d="M44,39c-3,0-4-2-4-2s-1,2-4,2s-4-2-4-2s-1,2-4,2s-4-2-4-2s-1,2-4,2s-4-2-4-2s-1,2-4,2s-4-2-4-2s-1,2-4,2v4h4h32h4V39z"/><g><path d="M30 29L29 32 31 33 32 30zM18 29L19 32 17 33 16 30z"/></g><path fill="#90A4AE" d="M23 4H25V8H23z"/></svg>