<svg xmlns="http://www.w3.org/2000/svg"  viewBox="0 0 48 48" width="50px" height="50px" baseProfile="basic"><path fill="#81d4fa" d="M37,40H11l-5.766-7.414C4.434,31.558,4,30.293,4,28.991V17.028C4,15.356,5.356,14,7.028,14H34 c5.532,1.581,8.853,11.904,9.882,16.165c0.278,1.151,0.09,2.36-0.519,3.376L41,37L37,40z"/><circle cx="11.5" cy="37.5" r="7.5" fill="#455a64"/><circle cx="11.5" cy="37.5" r="5.5" fill="#b3e5fc"/><circle cx="34.5" cy="37.5" r="7.5" fill="#455a64"/><circle cx="34.5" cy="37.5" r="5.5" fill="#b3e5fc"/><rect width="9" height="7" x="4" y="3" fill="#ff80ab"/><path fill="#455a64" d="M38.816,18H19c0,2.209,1.791,4,4,4h12l2.159,5.037C37.669,28.228,38.84,29,40.136,29h3.444 C42.763,25.999,41.169,21.37,38.816,18z"/><path fill="#455a64" d="M13,22L13,22c-0.552,0-1-0.448-1-1V3h2v18C14,21.552,13.552,22,13,22z"/></svg>