<svg xmlns="http://www.w3.org/2000/svg"  viewBox="0 0 48 48" width="50px" height="50px"><path fill="#ffa000" d="M40,35H8L6,25h36L40,35z"/><path fill="#795548" d="M34,42c-3.9,0-7-3.1-7-7s3.1-7,7-7s7,3.1,7,7S37.9,42,34,42z M34,30c-2.8,0-5,2.2-5,5s2.2,5,5,5 s5-2.2,5-5S36.8,30,34,30z"/><path fill="#795548" d="M33,29h2v12h-2V29z"/><path fill="#795548" d="M28,34h12v2H28V34z"/><path fill="#795548" d="M37.5,30.1l1.4,1.4l-8.5,8.5l-1.4-1.4L37.5,30.1z"/><path fill="#795548" d="M29.1 31.5l1.4-1.4 8.5 8.5-1.4 1.4L29.1 31.5zM14 42c-3.9 0-7-3.1-7-7s3.1-7 7-7 7 3.1 7 7S17.9 42 14 42zM14 30c-2.8 0-5 2.2-5 5s2.2 5 5 5 5-2.2 5-5S16.8 30 14 30z"/><path fill="#795548" d="M13,29h2v12h-2V29z"/><path fill="#795548" d="M8,34h12v2H8V34z"/><path fill="#795548" d="M17.5,30.1l1.4,1.4l-8.5,8.5l-1.4-1.4L17.5,30.1z"/><path fill="#795548" d="M9.1,31.5l1.4-1.4l8.5,8.5l-1.4,1.4L9.1,31.5z"/><path fill="#3e2723" d="M36 35c0 1.1-.9 2-2 2s-2-.9-2-2 .9-2 2-2S36 33.9 36 35zM16 35c0 1.1-.9 2-2 2s-2-.9-2-2 .9-2 2-2S16 33.9 16 35z"/><path fill="#90caf9" d="M40,25H8L4,9c0-0.6,0.4-1,1-1l6-2h2c0,0,2,1,5,1s5-1,5-1h2c0,0,2,1,5,1s5-1,5-1h2l6,2 c0.6,0,1,0.4,1,1L40,25z"/><path fill="#64b5f6" d="M11 6h2v19h-2V6zM23 6h2v19h-2V6zM35 6h2v19h-2V6z"/></svg>