<svg xmlns="http://www.w3.org/2000/svg"  viewBox="0 0 48 48" width="50px" height="50px"><path fill="#ff9800" d="M39,42H9c-1.1,0-2-0.9-2-2l3-8L7,14h34l-2,6l2,20C41,41.1,40.1,42,39,42z"/><path fill="#b86d00" d="M27,37h9v1h-9V37z M33,31h2v5h-2V31z"/><path fill="#b86d00" d="M34,29l-2,3h4L34,29z M28,31h2v5h-2V31z"/><path fill="#b86d00" d="M29,29l-2,3h4L29,29z"/><path fill="#ef6c00" d="M10,32l-0.9,2.5l2.4,3.5L10,32z M35.9,28.4l3.5-4.5L39,20L35.9,28.4z"/><path fill="#ffb74d" d="M7,14l7-7h17.444C38,7,41,14,41,14H7z"/><rect width="6" height="6" x="21" y="14" fill="#ffcc80"/><polygon fill="#ffe082" points="21,14 22.936,7 26.064,7 27,14"/><path fill="#f44336" d="M38,1c-4.971,0-9,4.029-9,9s4.029,9,9,9s9-4.029,9-9S42.971,1,38,1z"/><rect width="2" height="9" x="37" y="3" fill="#fff"/><rect width="2" height="2" x="37" y="14" fill="#fff"/></svg>