<svg xmlns="http://www.w3.org/2000/svg"  viewBox="0 0 48 48" width="50px" height="50px"><path fill="#9fa8da" d="M23.5 12.7H25.5V34.599999999999994H23.5z" transform="rotate(-24.231 24.497 23.624)"/><path fill="#ffc107" d="M46,37H32V17c0-1.1,0.9-2,2-2h8.6c0.9,0,1.6,0.6,1.9,1.4L48,27v8C48,36.1,47.1,37,46,37z"/><path fill="#37474f" d="M44 26h-7c-.6 0-1-.4-1-1v-7c0-.6.4-1 1-1h5.3c.4 0 .8.3.9.7l1.7 5.2c0 .1.1.2.1.3V25C45 25.6 44.6 26 44 26zM9 37h23v-5H7v3C7 36.1 7.9 37 9 37z"/><path fill="#546e7a" d="M40 32A5 5 0 1 0 40 42 5 5 0 1 0 40 32zM15 32A5 5 0 1 0 15 42 5 5 0 1 0 15 32z"/><path fill="#90a4ae" d="M40 35A2 2 0 1 0 40 39 2 2 0 1 0 40 35zM15 35A2 2 0 1 0 15 39 2 2 0 1 0 15 35z"/><path fill="#ff5722" d="M28.3,23L6,31.9c-0.5,0.2-1.1-0.1-1.3-0.6L0,19.5L24,10l4.9,11.7C29.1,22.2,28.9,22.8,28.3,23z"/><path fill="#dd2c00" d="M1.5,23.3L0,19.5L25.8,9.3l1.2,2.8c0.2,0.5,0,1.1-0.6,1.3L1.5,23.3z"/></svg>