<svg xmlns="http://www.w3.org/2000/svg"  viewBox="0 0 48 48" width="50px" height="50px"><rect width="8" height="46" x="20" fill="#78909c"/><rect width="10" height="2" x="19" y="11" fill="#b0bec5"/><rect width="12" height="11" x="8" y="13" fill="#b0bec5"/><rect width="12" height="11" x="28" y="13" fill="#b0bec5"/><rect width="10" height="2" x="19" y="24" fill="#b0bec5"/><rect width="10" height="2" x="19" y="39" fill="#90a4ae"/><polygon fill="#b0bec5" points="29,39 19,39 20,33 28,33"/><rect width="2" height="11" x="13" y="13" fill="#90a4ae"/><rect width="2" height="6" x="20" fill="#b0bec5"/><rect width="2" height="6" x="26" fill="#b0bec5"/><rect width="2" height="7" x="21" y="41" fill="#b0bec5"/><rect width="2" height="7" x="25" y="41" fill="#b0bec5"/><rect width="2" height="11" x="33" y="13" fill="#90a4ae"/><rect width="2" height="5" x="23" y="6" fill="#90a4ae"/><rect width="2" height="7" x="23" y="26" fill="#90a4ae"/><rect width="2" height="2" x="23" y="20" fill="#ef5350"/><rect width="2" height="2" x="21" y="43" fill="#ef5350"/><rect width="2" height="2" x="25" y="43" fill="#ef5350"/><rect width="2" height="2" x="23" y="15" fill="#ef5350"/><rect width="2" height="2" x="18" y="27" fill="#90a4ae"/><rect width="2" height="2" x="18" y="31" fill="#90a4ae"/><rect width="2" height="2" x="28" y="27" fill="#90a4ae"/><rect width="2" height="2" x="28" y="31" fill="#90a4ae"/></svg>