<svg xmlns="http://www.w3.org/2000/svg"  viewBox="0 0 48 48" width="50px" height="50px"><path fill="#7C4DFF" d="M10,42h28c2.2,0,4-1.8,4-4V10c0-2.2-1.8-4-4-4H10c-2.2,0-4,1.8-4,4v28C6,40.2,7.8,42,10,42z"/><path fill="#651FFF" d="M29.8 36L33 42 30.2 42 27 36zM21 36L17.8 42 15 42 18.2 36z"/><path fill="#651FFF" d="M30 38L18 38 16.5 40 31.5 40z"/><path fill="#FF5722" d="M32.7,13.1l-0.2-0.7c-0.3-0.8-1-1.4-1.9-1.4H17.4c-0.9,0-1.6,0.6-1.9,1.4l-0.2,0.7c-0.2,0.6-0.6,1.1-1.2,1.4l0,0c-0.7,0.3-1.1,1-1.1,1.8V34c0,0,3,2,11,2s11-2,11-2V16.2c0-0.8-0.4-1.5-1.1-1.8l0,0C33.3,14.2,32.9,13.7,32.7,13.1z"/><path fill="#37474F" d="M24,31c-6.5,0-8.4-10.3-8.9-13.9c-0.1-0.6,0.2-1.3,0.8-1.6c0.7-0.4,1.3-1,1.6-1.6c0.3-0.5,0.8-0.9,1.4-0.9h10.2c0.6,0,1.1,0.4,1.4,0.9c0.4,0.7,0.9,1.3,1.6,1.6c0.6,0.3,0.8,0.9,0.8,1.6C32.4,20.7,30.5,31,24,31z"/><path fill="#B0BEC5" d="M29 36L32.2 42 35 42 31.8 36zM19 36L15.8 42 13 42 16.2 36z"/><path fill="#D84315" d="M34.2,36.1C31.7,36.5,30,38,30,38l-6,1l-6-1c0,0-1.7-1.5-4.2-1.9c-0.5-0.1-0.8-0.5-0.8-1V34c0,0,4.3,1,11,1s11-1,11-1v1.1C35,35.6,34.7,36,34.2,36.1z"/><g><path fill="#FFEB3B" d="M26 32.7V33c4.6 0 7-2 7-2v-1h-2.9C29.1 31.2 27.4 32.2 26 32.7zM22 32.7V33c-4.6 0-7-2-7-2v-1h2.9C18.9 31.2 20.6 32.2 22 32.7z"/></g><path fill="#263238" d="M16.4,23c1.2,3.9,3.5,8,7.6,8s6.4-4.1,7.6-8H16.4z"/></svg>