<svg xmlns="http://www.w3.org/2000/svg"  viewBox="0 0 48 48" width="50px" height="50px"><path fill="#90caf9" d="M24,5L4,16.89V41h40V16.89L24,5z"/><path fill="#455a64" d="M19,34.692c0-0.34-0.298-0.615-0.667-0.615h-2.667c-0.369,0-0.667,0.275-0.667,0.615v3.692 C15,38.725,15.298,39,15.667,39h2.667C18.702,39,19,38.725,19,38.385V34.692z"/><path fill="#455a64" d="M33,34.692c0-0.34-0.298-0.615-0.667-0.615h-2.667c-0.369,0-0.667,0.275-0.667,0.615v3.692 C29,38.725,29.298,39,29.667,39h2.667C32.702,39,33,38.725,33,38.385V34.692z"/><path fill="#ffc107" d="M32.437,15H15.562C14.699,15,14,15.671,14,16.5v18.3c0,0,0,1.2,1.25,1.2s16.249,0,17.5,0 C34,36,34,34.8,34,34.8V16.5C34,15.671,33.301,15,32.437,15z"/><path fill="#ffc107" d="M15.444,26c0,0.552-0.41,1-0.917,1h-0.611C13.41,27,13,26.552,13,26v-2c0-0.553,0.41-1,0.917-1 h0.611c0.507,0,0.917,0.447,0.917,1V26z M35,26c0,0.552-0.411,1-0.917,1h-0.611c-0.506,0-0.917-0.448-0.917-1v-2 c0-0.553,0.411-1,0.917-1h0.611C34.589,23,35,23.447,35,24V26z"/><path fill="#fff8e1" d="M17.615,31c-0.85,0-1.538,0.689-1.538,1.538c0,0.85,0.689,1.538,1.538,1.538 s1.538-0.689,1.538-1.538C19.154,31.689,18.465,31,17.615,31z M30.538,31C29.689,31,29,31.689,29,32.538 c0,0.85,0.689,1.538,1.538,1.538s1.538-0.689,1.538-1.538C32.077,31.689,31.388,31,30.538,31z"/><path fill="#9fa8da" d="M31.769,16.231H16.385c-0.51,0-0.923,0.414-0.923,0.923v5.538v0.615V27 c0,0.85,0.689,1.538,1.538,1.538h14.154c0.85,0,1.538-0.689,1.538-1.538v-3.692v-0.615v-5.538 C32.692,16.644,32.279,16.231,31.769,16.231z"/><path fill="#263238" d="M32.692,19.923H15.462v-2.769c0-0.51,0.413-0.923,0.923-0.923h15.385 c0.51,0,0.923,0.414,0.923,0.923V19.923z"/><path fill="#64dd17" d="M17,17.462h6.57v1.231H17V17.462z M24.765,17.462h2.389v1.231h-2.389V17.462z"/><path fill="#7986cb" d="M22.231,28.538h-4.923v-4.615c0-0.51,0.413-0.923,0.923-0.923h3.077c0.51,0,0.923,0.414,0.923,0.923 V28.538z M30.846,28.538h-4.923v-4.615c0-0.51,0.414-0.923,0.923-0.923h3.077c0.51,0,0.923,0.414,0.923,0.923V28.538z"/><path fill="#3949ab" d="M26.803,28.538c-0.164-0.183-0.265-0.392-0.265-0.615c0-0.667,0.846-1.231,1.846-1.231 c1.001,0,1.846,0.564,1.846,1.231c0,0.223-0.101,0.433-0.265,0.615h1.386c0.065-0.198,0.11-0.401,0.11-0.615 c0-1.358-1.38-2.462-3.077-2.462s-3.077,1.104-3.077,2.462c0,0.214,0.045,0.418,0.11,0.615H26.803z"/></svg>