<svg xmlns="http://www.w3.org/2000/svg"  viewBox="0 0 48 48" width="50px" height="50px"><path fill="#37474f" d="M4,23v21h40V23c0-11.046-8.954-20-20-20h0C12.954,3,4,11.954,4,23z"/><path fill="#8bc34a" d="M34,37V16.5c0-3.59-2.91-4.5-6.5-4.5h-7c-3.59,0-6.5,0.91-6.5,4.5V37H34z"/><path fill="#0b420d" d="M23,17h-5.5c-0.829,0-1.5,0.672-1.5,1.5v5c0,0.828,0.671,1.5,1.5,1.5H23V17z M30.5,17H25v8h5.5	c0.828,0,1.5-0.672,1.5-1.5v-5C32,17.672,31.328,17,30.5,17z"/><path fill="#263238" d="M24,10c-1.104,0-2,0.896-2,2h-2c0-2.205,1.794-4,4-4c2.205,0,4,1.795,4,4h-2	C26,10.896,25.104,10,24,10z"/><path fill="#b0bec5" d="M16.287,44l4.175-7.515l-1.748-0.97L14,44H16.287z M31.713,44l-4.175-7.515l1.748-0.97L34,44H31.713z"/><path fill="#558b2f" d="M24,14c-1.104,0-2-0.896-2-2h-2c0,2.205,1.794,4,4,4c2.205,0,4-1.795,4-4h-2 C26,13.104,25.104,14,24,14z M34,37c0,0,0.001,2-2,2c-2,0-14,0-16,0s-2-2-2-2v-5h20V37z"/><path fill="#558b2f" d="M18,31c1.104,0,2,0.896,2,2s-0.896,2-2,2s-2-0.896-2-2S16.896,31,18,31 M18,29c-2.206,0-4,1.794-4,4 s1.794,4,4,4s4-1.794,4-4S20.206,29,18,29L18,29z M30,31c1.104,0,2,0.896,2,2s-0.896,2-2,2s-2-0.896-2-2S28.896,31,30,31 M30,29 c-2.206,0-4,1.794-4,4s1.794,4,4,4s4-1.794,4-4S32.206,29,30,29L30,29z"/><g><path fill="#ffeb3b" d="M24,10c-1.105,0-2,0.895-2,2s0.895,2,2,2s2-0.895,2-2S25.105,10,24,10z M18,31c-1.105,0-2,0.895-2,2 c0,1.105,0.895,2,2,2s2-0.895,2-2C20,31.895,19.105,31,18,31z M30,31c-1.105,0-2,0.895-2,2c0,1.105,0.895,2,2,2s2-0.895,2-2 C32,31.895,31.105,31,30,31z"/></g></svg>