<svg xmlns="http://www.w3.org/2000/svg"  viewBox="0 0 48 48" width="50px" height="50px"><path fill="#ffc107" d="M44,37H30V17c0-1.105,0.895-2,2-2h8.558c0.861,0,1.625,0.551,1.897,1.368L46,27v8 C46,36.105,45.105,37,44,37z"/><path fill="#37474f" d="M42 26h-7c-.552 0-1-.448-1-1v-7c0-.552.448-1 1-1h5.279c.43 0 .813.275.949.684l1.721 5.162C42.983 22.948 43 23.055 43 23.162V25C43 25.552 42.552 26 42 26zM4 37h26v-7H2v5C2 36.105 2.895 37 4 37z"/><path fill="#546e7a" d="M38 32A5 5 0 1 0 38 42 5 5 0 1 0 38 32zM11 32A5 5 0 1 0 11 42 5 5 0 1 0 11 32z"/><path fill="#90a4ae" d="M38 35A2 2 0 1 0 38 39 2 2 0 1 0 38 35zM11 35A2 2 0 1 0 11 39 2 2 0 1 0 11 35z"/><g><path fill="#4caf50" d="M2 9H28V30H2z"/><path fill="#388e3c" d="M22 25c0 .553-.447 1-1 1l0 0c-.553 0-1-.447-1-1V14c0-.553.447-1 1-1l0 0c.553 0 1 .447 1 1V25zM18 25c0 .553-.447 1-1 1l0 0c-.553 0-1-.447-1-1V14c0-.553.447-1 1-1l0 0c.553 0 1 .447 1 1V25zM14 25c0 .553-.447 1-1 1l0 0c-.553 0-1-.447-1-1V14c0-.553.447-1 1-1l0 0c.553 0 1 .447 1 1V25zM10 25c0 .553-.447 1-1 1l0 0c-.553 0-1-.447-1-1V14c0-.553.447-1 1-1l0 0c.553 0 1 .447 1 1V25z"/><g><path fill="#43a047" d="M2 28H28V30H2zM2 9H28V11H2z"/><path fill="#43a047" d="M25 7c-.553 0-1 .447-1 1v22h4V7H25zM5 7H2v23h4V8C6 7.447 5.553 7 5 7z"/></g><g><path fill="#1b5e20" d="M18 28H22V30H18zM8 28H12V30H8zM26 8A1 1 0 1 0 26 10 1 1 0 1 0 26 8zM26 27A1 1 0 1 0 26 29 1 1 0 1 0 26 27zM4 8A1 1 0 1 0 4 10 1 1 0 1 0 4 8zM4 27A1 1 0 1 0 4 29 1 1 0 1 0 4 27z"/></g></g></svg>