<svg xmlns="http://www.w3.org/2000/svg"  viewBox="0 0 48 48" width="50px" height="50px"><path fill="#ffe0b2" d="M43.01,8C42.16,8.31,3,22.63,3,22v-1.65c0-0.82,0.49-1.55,1.25-1.86L34.09,6.37	C34.69,6.12,35.33,6,35.98,6h5.62c0.577,0,1.075,0.404,1.194,0.969L43.01,8z"/><path fill="#ff5722" d="M44.85,17.91c-0.06,0.33-0.18,0.65-0.36,0.94l-0.93,1.55l-0.67,1.11c-0.58,0.97-1.46,1.71-2.51,2.1	L6.84,36.31c-1,0.37-2.1-0.1-2.54-1.06c-0.01-0.02-0.02-0.05-0.03-0.07l-0.66-1.67l-0.25-0.62C3.12,32.3,3,31.67,3,31.04V21	L34.09,8.37C34.69,8.12,35.33,8,35.98,8h7.04l1.88,9.01C44.93,17.31,44.92,17.61,44.85,17.91z"/><path fill="#ffe0b2" d="M44.85,17.91c-0.06,0.33-0.18,0.65-0.36,0.94l-0.93,1.55L4.3,35.25c-0.01-0.02-0.02-0.05-0.03-0.07	l-0.66-1.67L44.85,17.91z"/><path fill="#455a64" d="M42.688,15.889C42.748,16.481,42.295,17,41.7,17h-0.65C39.58,17,38,15.64,38,14.16L38.02,12l0.02-2	h2.2c0.45,0,0.84,0.3,0.96,0.73l0.527,1.344c0.476,1.214,0.821,2.481,0.957,3.778C42.685,15.864,42.687,15.877,42.688,15.889z"/><rect width="6" height="6" x="29" y="13" fill="#455a64"/><rect width="6" height="6" x="21" y="17" fill="#455a64"/><rect width="6" height="6" x="13" y="20" fill="#455a64"/><rect width="6" height="6" x="5" y="23" fill="#455a64"/><rect width="40.499" height="2" x="3.753" y="33" fill="#37474f" transform="rotate(-20.223 24.002 33.998)"/><rect width="6" height="2" x="5" y="22" fill="#ffe0b2"/><rect width="6" height="2" x="13" y="19" fill="#ffe0b2"/><rect width="6" height="2" x="21" y="16" fill="#ffe0b2"/><rect width="6" height="2" x="29" y="12" fill="#ffe0b2"/></svg>