<svg xmlns="http://www.w3.org/2000/svg"  viewBox="0 0 48 48" width="50px" height="50px"><path fill="#3F51B5" d="M38,36c0,2.8-2.2,5-5,5H11c-2.8,0-5-2.2-5-5V8c0-2.8,2.2-5,5-5h22c2.8,0,5,2.2,5,5V36z"/><path fill="#FFF" d="M22.6,11h-8.5L14,32h4v-8h4.6c4.5,0,7.4-2,7.4-6.3C30,14.4,28.2,11,22.6,11z M22.4,21H18v-7h4.4c2.3,0,3.8,1.1,3.8,3.7C26.2,20.5,23.9,21,22.4,21z"/><path fill="#FFC107" d="M42,35c0,5.5-4.5,10-10,10s-10-4.5-10-10s4.5-10,10-10S42,29.5,42,35"/><path fill="#FFE082" d="M32,28c-3.9,0-7,3.1-7,7s3.1,7,7,7s7-3.1,7-7S35.9,28,32,28z M32.3,39.1v1.1h-0.9v-1.1c-0.3,0-2.3-0.2-2.3-2.5h1.6c0,0.3,0,1.3,1.2,1.3c1,0,1-0.8,1-0.9c0-1.7-3.5-1-3.5-3.7c0-1.6,1.5-2.1,2.1-2.2v-1.2h0.9v1.2c0.5,0.1,2,0.5,2,2.5h-1.5c0-0.4-0.1-1.3-1-1.3S31,33.1,31,33.2c0,1.6,3.5,1,3.5,3.7C34.4,38.8,32.6,39,32.3,39.1z"/></svg>