<svg xmlns="http://www.w3.org/2000/svg"  viewBox="0 0 48 48" width="50px" height="50px"><path fill="#90caf9" d="M15.15,18.101l-10.613-5.09l0.522-0.964c0.508-0.937,1.662-1.311,2.623-0.85l8.896,4.267 L15.15,18.101z"/><path fill="#424242" d="M14 18H48V23.101H14z"/><path fill="#90caf9" d="M45.874,18h-30.85v-3.024h28.85c1.105,0,2,0.895,2,2V18z"/><path fill="#424242" d="M0.342 14.992H15.846V19.992H0.342z" transform="rotate(25.644 8.094 17.495)"/><path fill="#90caf9" d="M14 23.101H16V35.101H14zM38 23.101H40V35.101H38z"/><path fill="#90caf9" d="M15 29.101H39V31.101H15z"/><path fill="#424242" d="M15 33.101A4 4 0 1 0 15 41.101A4 4 0 1 0 15 33.101Z"/><path fill="#90caf9" d="M15 35.101A2 2 0 1 0 15 39.101A2 2 0 1 0 15 35.101Z"/><path fill="#424242" d="M39 33.101A4 4 0 1 0 39 41.101A4 4 0 1 0 39 33.101Z"/><path fill="#90caf9" d="M39 35.101A2 2 0 1 0 39 39.101A2 2 0 1 0 39 35.101Z"/></svg>