<svg xmlns="http://www.w3.org/2000/svg"  viewBox="0 0 48 48" width="50px" height="50px"><path fill="#64b5f6" d="M35,44H13c0,0-3-4-3-12s3-12,3-12h22c0,0,3,4,3,12S35,44,35,44z"/><path fill="#37474f" d="M6.6 7.6H41.300000000000004V9.6H6.6z" transform="rotate(-11.805 23.995 8.55)"/><path fill="#ffc107" d="M33.9,22c0.8,1.4,2.1,4.8,2.1,10c0,5.2-1.4,8.6-2.1,10H14.1c-0.8-1.4-2.1-4.8-2.1-10 c0-5.2,1.4-8.6,2.1-10H33.9 M35,20H13c0,0-3,4-3,12s3,12,3,12h22c0,0,3-4,3-12S35,20,35,20z"/><path fill="#ffc107" d="M35,43H13l-2-10h26L35,43z"/><path fill="#455a64" d="M32.6,24c0.6,1.5,1.4,4.2,1.4,8c0,3.8-0.8,6.5-1.4,8H15.4c-0.6-1.5-1.4-4.2-1.4-8 c0-3.8,0.8-6.5,1.4-8H32.6 M33.9,22H14.1c-0.8,1.4-2.1,4.8-2.1,10c0,5.2,1.4,8.6,2.1,10h19.7c0.8-1.4,2.1-4.8,2.1-10 C36,26.8,34.6,23.4,33.9,22z"/><path fill="#455a64" d="M23,23h2v18h-2V23z"/><path fill="#90a4ae" d="M31 20v-1c0-1.1-.9-2-2-2H19c-1.1 0-2 .9-2 2v1H31zM23 6c0 1.1-.9 2-2 2s-2-.9-2-2 .9-2 2-2S23 4.9 23 6zM28 5c0 1.1-.9 2-2 2s-2-.9-2-2 .9-2 2-2S28 3.9 28 5z"/><path fill="#90a4ae" d="M23.3,7.6C24.4,8.8,26,11,26,14c0,2.8-1.7,3-2,3h-3v2h3c1.4,0,4-1,4-5c0-3-1.3-5.3-2.5-6.8L23.3,7.6 z"/></svg>