<svg xmlns="http://www.w3.org/2000/svg"  viewBox="0 0 48 48" width="50px" height="50px"><path fill="#455a64" d="M16 38c0-.6-.4-1-1-1h-4c-.6 0-1 .4-1 1v6c0 .6.4 1 1 1h4c.6 0 1-.4 1-1V38zM38 38c0-.6-.4-1-1-1h-4c-.6 0-1 .4-1 1v6c0 .6.4 1 1 1h4c.6 0 1-.4 1-1V38z"/><path fill="#455a64" d="M26.3 4.5H31.700000000000003V6.5H26.3z" transform="rotate(-68.191 29.002 5.5)"/><path fill="#455a64" d="M18 2.8H20V8.2H18z" transform="rotate(-21.801 19 5.5)"/><path fill="#ff9800" d="M8 30v9c0 0 0 2 2 2s26 0 28 0 2-2 2-2v-9H8zM15 7h18v2H15V7z"/><path fill="#fff8e1" d="M16 35.5c0 1.4-1.1 2.5-2.5 2.5S11 36.9 11 35.5s1.1-2.5 2.5-2.5S16 34.1 16 35.5zM37 35.5c0 1.4-1.1 2.5-2.5 2.5S32 36.9 32 35.5s1.1-2.5 2.5-2.5S37 34.1 37 35.5z"/><path fill="#ffc107" d="M40,26.5c0,1.4,0,3.5,0,3.5H8c0,0,0-2.1,0-3.5v-15C8,10.1,9.1,9,10.5,9h27c1.4,0,2.5,1.1,2.5,2.5 V26.5z"/><path fill="#9fa8da" d="M36.5,11h-25c-0.8,0-1.5,0.7-1.5,1.5v13c0,1.4,1.1,2.5,2.5,2.5h23c1.4,0,2.5-1.1,2.5-2.5v-13 C38,11.7,37.3,11,36.5,11z"/><path fill="#263238" d="M38,17H10v-4.5c0-0.8,0.7-1.5,1.5-1.5h25c0.8,0,1.5,0.7,1.5,1.5V17z"/><path fill="#64dd17" d="M12 13h11v2H12V13zM25 13h4v2h-4V13z"/><path fill="#7986cb" d="M21 28h-8v-6.5c0-.8.7-1.5 1.5-1.5h5c.8 0 1.5.7 1.5 1.5V28zM35 28h-8v-6.5c0-.8.7-1.5 1.5-1.5h5c.8 0 1.5.7 1.5 1.5V28z"/><path fill="#3949ab" d="M28.4,28c-0.3-0.3-0.4-0.6-0.4-1c0-1.1,1.4-2,3-2s3,0.9,3,2c0,0.4-0.2,0.7-0.4,1h2.3 c0.1-0.3,0.2-0.7,0.2-1c0-2.2-2.2-4-5-4s-5,1.8-5,4c0,0.3,0.1,0.7,0.2,1H28.4z"/></svg>